<?xml version="1.0" encoding="utf-8"?>
<!-- Generator: Adobe Illustrator 26.1.0, SVG Export Plug-In . SVG Version: 6.00 Build 0)  -->
<svg version="1.1" id="Capa_1" xmlns="http://www.w3.org/2000/svg" x="0px" y="0px"
     viewBox="0 0 99.21 99.21" width="24" height="24" style="enable-background:new 0 0 99.21 99.21;"
     xml:space="preserve">
<style type="text/css">
	.st0{fill:#003781;}
</style>
    <path class="st0" d="M9.04,50.33H5.65l1.8-5.89L9.04,50.33z M3.9,56.81l1.16-3.88h4.56l1.08,3.87h4.22l-4.19-14.74
	c-0.25-0.87-0.77-1.27-1.69-1.27H3.06v1.39h0.5c0.63,0,0.96,0.25,0.96,0.72c0,0.32-0.07,0.58-0.32,1.3L0,56.81H3.9z"/>
    <path class="st0"
          d="M19.8,56.81v-14.8c0-0.77-0.45-1.23-1.2-1.23h-3.71v1.39h0.25c0.62,0,0.89,0.27,0.89,0.9v13.74H19.8z"/>
    <path class="st0"
          d="M26.21,56.81v-14.8c0-0.77-0.46-1.23-1.2-1.23h-3.7v1.39h0.25c0.63,0,0.89,0.27,0.89,0.9v13.74H26.21z"/>
    <path class="st0" d="M32.79,42.25c0-1.07-0.8-1.74-2.16-1.74s-2.17,0.65-2.17,1.74s0.82,1.74,2.17,1.74
	C31.98,43.99,32.79,43.34,32.79,42.25 M32.72,56.81V46.03c0-0.77-0.46-1.22-1.2-1.22h-3.65v1.36h0.22c0.62,0,0.89,0.29,0.89,0.91
	v9.73H32.72z"/>
    <path class="st0" d="M40.98,51.05v2.34c-0.63,0.65-1.39,1.04-2.04,1.04s-0.91-0.33-0.91-1.24c0-0.91,0.19-1.29,0.86-1.55
	C39.56,51.36,40.26,51.16,40.98,51.05 M35.91,48.24c1.15-0.57,2.41-0.89,3.7-0.94c1.01,0,1.37,0.36,1.37,1.41v0.27
	c-1.54,0.25-2.02,0.34-2.88,0.53c-0.49,0.11-0.96,0.26-1.42,0.44c-1.52,0.61-2.23,1.78-2.23,3.58c0,2.28,0.99,3.39,3.03,3.39
	c0.69,0,1.38-0.13,2.02-0.38c0.58-0.27,1.13-0.61,1.61-1.03v0.17c0,0.74,0.38,1.12,1.13,1.12h3.44v-1.28H45.5
	c-0.65,0-0.89-0.29-0.89-1.06v-5.72c0-3.05-1.06-4.11-4.11-4.11c-0.97,0-1.93,0.12-2.88,0.34c-0.89,0.2-1.75,0.52-2.55,0.96
	L35.91,48.24z"/>
    <path class="st0" d="M51.14,56.81v-8.12c0.63-0.7,1.27-1.01,2.02-1.01c0.8,0,0.99,0.32,0.99,1.52v7.61h3.75v-8.17
	c0-1.9-0.14-2.5-0.74-3.15c-0.5-0.56-1.27-0.84-2.26-0.84c-1.47,0-2.5,0.45-3.89,1.75v-0.48c0-0.74-0.39-1.13-1.16-1.13h-3.56v1.36
	h0.22c0.62,0,0.89,0.29,0.89,0.91v9.73H51.14z"/>
    <path class="st0" d="M69.01,54.29h-5.23l5-7.01V44.8h-7.84c-0.89,0-1.3,0.41-1.3,1.3v2.18h1.39v-0.21c0-0.55,0.29-0.82,0.89-0.82
	h2.7l-5.05,7.09v2.48h9.43L69.01,54.29z"/>
    <path class="st0" d="M88.68,56.51V42.93c0-1.08-0.38-1.45-1.43-1.45h-3.18v1.53h0.19c0.72,0,0.87,0.16,0.87,1.04v12.46H88.68z
	 M90.25,56.51h3.53V45.93c0-1.06-0.41-1.44-1.44-1.44h-2.08V56.51z M83.57,56.51V44.5h-2.09c-1.03,0-1.44,0.38-1.44,1.44v10.57
	H83.57z M97.12,49.61c0,5.98-4.3,10.33-10.21,10.33s-10.22-4.35-10.22-10.33S81,39.27,86.91,39.27S97.12,43.65,97.12,49.61
	 M99.21,49.61c0-7.04-5.26-12.3-12.3-12.3S74.6,42.57,74.6,49.61s5.26,12.3,12.31,12.3S99.21,56.66,99.21,49.61"/>
</svg>
