<?xml version="1.0" encoding="utf-8"?>
<!-- Generator: Adobe Illustrator 26.1.0, SVG Export Plug-In . SVG Version: 6.00 Build 0)  -->
<!--suppress ALL -->
<svg version="1.1" id="Capa_1" xmlns="http://www.w3.org/2000/svg" x="0px" y="0px"
     viewBox="0 0 99.21 99.21" width="24" height="24" style="enable-background:new 0 0 99.21 99.21;"
     xml:space="preserve">
<style type="text/css">
	.st0{fill:#9B0E21;}
	.st1{fill:#005C1C;}
	.st2{fill:#606465;}
</style>
    <g id="Grupo_6225" transform="translate(-831.441 -6030)">
	<g id="Grupo_4121" transform="translate(831.537 6030)">
		<g id="Grupo_4120">
			<g id="Grupo_4119">
				<g id="Grupo_4118">
					<g id="Grupo_4117">
						<rect id="Rect치ngulo_2086" x="12.9" y="31.59" class="st0" width="13.3" height="13.04"/>
                        <path id="Trazado_31" class="st1" d="M69.55,38.22c0,6.12-4.75,8.97-11.92,8.84c0.14,0,0.1-17.89,0.12-17.9
							C65.1,28.92,69.55,32.12,69.55,38.22 M82.57,38.06c0-9.76-7.01-19.51-23.83-19.51H44.76v39.12H58.8
							C75.56,57.67,82.57,47.99,82.57,38.06"/>
                        <rect id="Rect치ngulo_2087" x="86.08" y="18.54" class="st1" width="13.04" height="39.12"/>
                        <rect id="Rect치ngulo_2088" x="26.07" y="18.54" class="st1" width="13.04" height="39.12"/>
                        <rect id="Rect치ngulo_2089" x="-0.01" y="18.54" class="st1" width="13.04" height="39.12"/>
					</g>
				</g>
			</g>
		</g>
	</g>
        <g id="Grupo_4122" transform="translate(831.441 6086.257)">
		<path id="Trazado_32" class="st2" d="M0,22.54l1.32-1.56c0.97,0.9,2.24,1.42,3.56,1.45c1.49,0,2.27-0.65,2.27-1.55
			c0-1.14-0.87-1.44-2.12-1.97l-1.76-0.76c-1.34-0.52-2.73-1.52-2.73-3.39c0-2.03,1.83-3.6,4.44-3.6c1.52-0.01,2.99,0.58,4.09,1.63
			l-1.16,1.44c-0.84-0.73-1.93-1.11-3.04-1.09c-1.22,0-2.03,0.54-2.03,1.49c0,0.99,1.02,1.36,2.18,1.8l1.68,0.73
			c1.63,0.62,2.78,1.6,2.78,3.44c0,2.08-1.75,3.8-4.73,3.8C2.98,24.41,1.29,23.74,0,22.54z"/>
            <path id="Trazado_33" class="st2"
                  d="M15.49,11.4h8.19v1.91h-5.92v3.27h5.01v1.91h-5.01v3.78h6.11v1.91h-8.38V11.4z"/>
            <path id="Trazado_34" class="st2" d="M29.81,17.82c0-4.2,2.48-6.66,5.79-6.66c1.38-0.01,2.7,0.57,3.63,1.59l-1.27,1.42
			c-0.6-0.68-1.46-1.05-2.36-1.03c-2.03,0-3.44,1.75-3.44,4.61c0,2.91,1.23,4.68,3.48,4.68c0.62,0.03,1.23-0.17,1.71-0.56v-2.76
			h-2.19v-1.86h4.25v5.64c-1.07,0.98-2.46,1.52-3.91,1.51C32.27,24.41,29.81,22.06,29.81,17.82z"/>
            <path id="Trazado_35" class="st2" d="M45.08,19.18v-7.9h2.29v8.07c0,2.07,0.85,2.96,2.21,2.96c1.36,0,2.25-0.89,2.25-2.96v-8.07
			h2.19v7.9c0,3.49-1.64,5.11-4.44,5.11C46.78,24.29,45.08,22.67,45.08,19.18z"/>
            <path id="Trazado_36" class="st2" d="M59.75,11.4h4.27c2.65,0,4.71,0.94,4.71,3.79c0,2.75-2.06,3.99-4.71,3.99h-1.98v4.99h-2.29
			L59.75,11.4z M63.79,17.37c1.75,0,2.7-0.73,2.7-2.17c0-1.46-0.96-1.98-2.7-1.98h-1.75v4.15L63.79,17.37z M65.24,17.22l3.99,6.96
			h-2.55l-3.08-5.6L65.24,17.22z"/>
            <path id="Trazado_37" class="st2" d="M74.4,17.73c0-4.2,2.06-6.56,5.03-6.56c2.96,0,5.02,2.36,5.02,6.56
			c0,4.28-2.06,6.68-5.02,6.68C76.46,24.41,74.4,22.01,74.4,17.73z M82.11,17.73c0-2.93-1.06-4.59-2.69-4.59s-2.69,1.66-2.69,4.59
			c0,3.01,1.06,4.7,2.69,4.7S82.11,20.74,82.11,17.73z"/>
            <path id="Trazado_38" class="st2" d="M89.62,22.54l1.32-1.56c0.97,0.9,2.24,1.42,3.56,1.45c1.49,0,2.27-0.65,2.27-1.55
			c0-1.14-0.87-1.44-2.12-1.97l-1.76-0.76c-1.34-0.52-2.73-1.52-2.73-3.39c0-2.03,1.83-3.6,4.44-3.6c1.52-0.01,2.99,0.58,4.09,1.63
			l-1.16,1.44c-0.85-0.73-1.93-1.11-3.04-1.09c-1.22,0-2.03,0.54-2.03,1.49c0,0.99,1.02,1.36,2.18,1.8l1.68,0.73
			c1.63,0.62,2.78,1.6,2.78,3.44c0,2.08-1.75,3.8-4.73,3.8C92.6,24.41,90.91,23.74,89.62,22.54z"/>
	</g>
</g>
</svg>
