<?xml version="1.0" encoding="utf-8"?>
<!-- Generator: Adobe Illustrator 26.1.0, SVG Export Plug-In . SVG Version: 6.00 Build 0)  -->
<svg version="1.1" id="Capa_1" xmlns="http://www.w3.org/2000/svg" x="0px" y="0px"
     viewBox="0 0 99.21 99.21" width="24" height="24" style="enable-background:new 0 0 99.21 99.21;"
     xml:space="preserve">
<style type="text/css">
	.st0{fill-rule:event;clip-rule:evenodd;fill:#211645;}
	.st1{fill-rule:evenodd;clip-rule:evenodd;fill:#FFFFFF;}
</style>
    <desc>Created with Sketch.</desc>
    <g id="Symbols">
	<g id="Elements-_x2F_-Logo-_x2F_-Default" transform="translate(-1.000000, -1.000000)">
		<g id="logo" transform="translate(1.000000, 1.000000)">
			<g id="Seguros" transform="translate(75.000000, 66.000000)">
				<path id="Fill-26" class="st0" d="M15.28-1.92c0.13,1.62,1.56,1.78,2.98,2.34c1.68,0.66,1.5,1.73,0.66,2.19
					c-0.7,0.38-1.88,0.35-2.63-0.63c-0.38-0.49-0.54-1.09-0.78-1.33c-0.06-0.06-0.35-0.03-0.39-0.03c-0.03,0-0.01,2.65-0.03,2.78
					c-0.03,0.23,0.66-0.48,0.76-0.48c0.87,0.01,1.81,0.59,2.71,0.37c1.72-0.41,2.22-1.29,2.24-2.53c0.02-0.94-0.7-1.81-1.84-2.24
					c-0.64-0.24-1.53-0.53-1.99-0.9c-1.03-0.83,0.29-1.6,1.56-1.19c1.49,0.48,1.42,1.46,1.44,1.46c0.08,0,0.27-0.03,0.32-0.01
					c0.09,0.03,0.05-1.29,0.04-2.13c0-0.15-0.14-0.13-0.25-0.07c-0.03,0.02-0.1,0.09-0.12,0.11c-0.23,0.13-0.76,0.12-1,0.03
					c-0.63-0.25-1.65-0.21-2.38,0.06C15.81-3.82,15.2-2.97,15.28-1.92"/>
                <path id="Fill-20" class="st0" d="M10.27-4.32c-0.5,0-0.96,0.06-1.37,0.17C8.48-4.04,8.11-3.91,7.8-3.74
					C7.48-3.58,7.22-3.41,7.02-3.25c-0.26,0.2-0.49,0.44-0.71,0.72c-0.21,0.28-0.38,0.6-0.5,0.97C5.68-1.2,5.62-0.8,5.62-0.37
					c0,0.35,0.07,0.7,0.2,1.06c0.13,0.36,0.31,0.69,0.54,1C6.58,2,6.85,2.27,7.14,2.49C7.39,2.68,7.68,2.85,8,3
					c0.32,0.14,0.65,0.25,0.98,0.33c0.33,0.08,0.66,0.12,0.96,0.12c0.31,0,0.63-0.02,0.96-0.08c0.33-0.05,0.64-0.13,0.96-0.25
					c0.31-0.11,0.61-0.26,0.89-0.44c0.19-0.11,0.39-0.27,0.6-0.46c0.21-0.2,0.4-0.43,0.59-0.7c0.18-0.27,0.33-0.57,0.45-0.91
					c0.11-0.33,0.17-0.7,0.18-1.09c0-0.48-0.09-0.93-0.25-1.33c-0.16-0.4-0.39-0.76-0.67-1.07c-0.29-0.32-0.61-0.58-0.98-0.79
					c-0.37-0.22-0.75-0.38-1.16-0.5C11.09-4.27,10.68-4.32,10.27-4.32 M10.61-3.68c0.6,0.12,1.1,0.52,1.38,1
					c0.3,0.53,0.34,1.36,0.32,1.94c-0.03,0.78-0.06,1.96-0.55,2.63c-0.22,0.31-0.51,0.8-1.18,0.87c-1.8,0.2-2.34-1.13-2.53-2.35
					C7.93-0.27,7.99-1.49,8.2-2.11C8.54-3.09,9.4-3.92,10.61-3.68"/>
                <path id="Fill-25" class="st0" d="M-1.74-3.65c0.03,0.3,1.34-0.55,1.34,1.54v3.72c0,1.3-1.27,1.05-1.26,1.24
					c0,0.11-0.03,0.33,0.05,0.33l4.59,0c0.03,0,0.08-0.37,0-0.38C2,2.73,1.74,2.08,1.74,1.35v-2.56c0-0.18,0.4-0.88,1.06-1.09
					c1.7-0.54,1.86,0.69,2.21,0.68C5.18-2.44,5.52-3.39,5.5-3.6C5.44-4.12,5.02-4.32,4.6-4.33C3.17-4.37,2.37-3.16,1.73-2.04
					C1.72-2.02,1.85-4.38,1.8-4.38l-3.57,0.39L-1.74-3.65z"/>
                <path id="Fill-24" class="st0" d="M-2.2,3.11C-3.45,3.24-4.6,3.29-5.48,3.26l0-1.43c0-0.05-0.01-0.11-0.01-0.16
					c-1.17,1.45-3.08,2.01-4.3,1.37c-0.54-0.28-1.16-0.87-1.15-1.53l0.01-3.86c0-0.59,0-0.88-0.11-1c-0.14-0.15-0.18-0.21-0.91-0.27
					l0.01-0.41c0.87-0.07,2.64-0.31,3.18-0.32l0,3.87c0,1.27,0.08,2.22,0.57,2.59c0.84,0.63,2.59-0.37,2.71-1.31
					c0.06-0.27,0.11-1.28,0.11-2.77c0-0.87-0.13-1.4-0.25-1.53c-0.12-0.13-0.31-0.1-1.08-0.17l0.06-0.43
					c1.06-0.1,2.23-0.09,3.24-0.24l0.03,4.96c0,0.67-0.07,1.36,0.31,1.78c0.16,0.18,0.42,0.29,0.77,0.37
					C-2.11,2.8-2.17,2.89-2.2,3.11"/>
                <path id="Fill-21" class="st0" d="M-20.84-2.43c-0.4,1-0.33,1.61,0.16,2.45c0.33,0.56,1.17,0.81,1.51,0.93
					c0.15,0.05,0.29,0.16,0.11,0.25c-0.2,0.1-0.86,0.29-1.42,0.56c-0.66,0.32-1.03,1.65,0.12,2.23c0.57,0.29,1.34,0.23,1.15,0.53
					c-0.05,0.08-0.43,0.09-0.91,0.26c-1.22,0.43-1.46,1.13-1.47,1.68c-0.02,0.95,1.14,1.74,2.57,2.12c0.69,0.19,1.5,0.23,2.17,0.23
					c0.46,0,1.2-0.11,1.76-0.3c0.87-0.31,1.56-0.84,2.07-1.52c0.58-0.77,0.75-1.88-0.22-2.86c-1.19-1.2-3.7-1.14-5.25-1.42
					c-1.42-0.26-0.74-1.44,0.41-1.36c0.52,0.03,1.43,0.07,2.07-0.09c2.02-0.51,3.61-2.14,1.67-4.15c-0.02-0.02,0-0.05,0.02-0.09
					c0.02-0.04,0.05-0.06,0.1-0.06h1.58l0.04-1.1l-0.15-0.16l-4.98-0.02c-0.39,0-0.83,0.06-1.16,0.19
					C-19.66-3.86-20.51-3.24-20.84-2.43 M-19.91,5.67c-0.26-1.37,6.16-1.59,6.02,0.81c-0.05,0.81-1.82,1.12-2.99,0.98
					C-18.13,7.31-19.66,6.95-19.91,5.67 M-18.47-3.26c0.76-0.69,2.01-0.68,2.63,0.44c0.55,0.98,0.59,2.56-0.57,3.34
					c-0.7,0.47-1.73,0.19-2.15-0.4c-0.23-0.32-0.38-0.7-0.46-1.09C-19.15-1.64-19.07-2.71-18.47-3.26"/>
                <path id="Fill-23" class="st0" d="M-22.27-1.08c0.23,0,0.16-0.18,0.15-0.3c-0.71-2.8-3.32-3.53-5.28-2.68
					c-1.43,0.62-2.41,1.99-2.42,3.77c0,0.57,0.17,1.17,0.37,1.63c0.2,0.45,0.47,0.84,0.83,1.16c0.35,0.32,0.77,0.56,1.24,0.73
					c2.07,0.74,4.27-0.13,5.24-2.07c0.13-0.25,0.04-0.32-0.04-0.24c-2.72,2.89-4.6,1.23-5.13-0.31c-0.29-0.84-0.27-1.68-0.25-1.68
					H-22.27z M-27.56-1.52c-0.03,0,0.1-2.13,1.58-2.27c1.2-0.11,2.09,2.26,1.5,2.26L-27.56-1.52z"/>
                <path id="Fill-22" class="st0" d="M-37.52-4.76c0.21,1.66,1.16,2.42,2.09,3.01C-34.9-1.4-34.23-1-33.7-0.73
					c1.31,0.65,2.35,1.94,0.91,3.05c-0.5,0.38-1.27,0.49-1.96,0.36c-0.36-0.07-0.69-0.26-0.98-0.37c-1.4-0.53-1.34-2.28-1.5-2.47
					c-0.08-0.09-0.45-0.05-0.5-0.05c-0.03,0,0.03,3.39,0,3.58c-0.01,0.08,0.3,0.05,0.38,0.03c0.27-0.07,0.21-0.62,0.32-0.61
					c1.05,0.12,1.64,0.77,3.34,0.62c0.33-0.03,0.71-0.11,1-0.2c0.57-0.19,1.3-0.61,1.65-1.09c0.8-1.12,0.83-2.6,0.17-3.74
					c-0.18-0.31-0.43-0.53-0.79-0.84c-1.1-0.95-3.56-1.59-4.15-2.75c-1.36-2.69,3.71-3.23,4.4-0.3c0.01,0.03-0.01,0.28,0.02,0.28
					c0.1,0,0.3-0.02,0.37,0.01c0.12,0.05,0.07-0.27,0.07-0.38l0-2.52c0-0.34-0.32-0.25-0.47-0.09c-0.14,0.15-0.36,0.25-0.5,0.28
					c-0.27,0.06-0.64,0.02-0.84-0.07c-0.82-0.37-2.11-0.28-3.05,0.13C-36.81-7.43-37.72-6.33-37.52-4.76"/>
			</g>
            <polygon id="Fill-2" class="st0" points="89.45,54.97 98.95,54.97 98.95,54.27 89.45,54.27 			"/>
            <polygon id="Fill-1" class="st0" points="37.21,54.97 82.84,54.97 82.84,54.27 37.21,54.27 			"/>
            <g id="Liberty" transform="translate(75.000000, 27.000000)">
				<path id="Fill-1_00000139260481672205592090000006201634422718384036_" class="st0" d="M13.12,16.54
					c-0.06-0.25,0.72-0.39,0.72-0.43c0-0.23,0.03-0.22-0.15-0.25l-4.28,0c-0.12,0-0.01,0.62,0.09,0.63c0.41,0.02,0.85-0.03,1.03,0.3
					l1.77,3.39c0.81,1.55,1.55,3.1,1.47,3.49c-0.11,0.56-1.1,3.09-2.46,3.42c-0.53,0.13-1.7-0.32-1.62-0.09
					c0.07,0.22-0.01,1.26-0.46,2.24c-0.03,0.07,1.3,0.33,2.4-0.36c0.49-0.31,0.85-0.92,1.17-1.62L17,17.93
					c0.16-0.33,0.32-0.88,0.67-1.22c0.38-0.36,0.94-0.5,0.94-0.51l0.1-0.36l-3.18,0.01c-0.15,0.02-0.03,0.38,0,0.37
					c0.11-0.03,0.44,0.03,0.61,0.13c0.47,0.5,0.48,0.59,0.21,1.48l-1.34,3.07C14.71,20.25,13.38,17.64,13.12,16.54"/>
                <path id="Fill-3" class="st0" d="M7.38,16.96l2.1,0c0.12,0,0.21,0,0.25-0.05c0.06-0.07,0.05-0.39,0.02-0.47
					c-0.02-0.06-0.06-0.1-0.1-0.1l-0.72,0H7.66c-0.44,0-0.29-0.2-0.29-0.8l-0.01-1.93c0-0.32-0.17-0.36-0.46-0.07l-3.08,3.07
					c-0.16,0.16-0.12,0.35,0.04,0.35l1.15,0c0.09,0,0.09,0.21,0.09,0.34v4.7c0,2.64,3.49,3.02,4.83,1.33
					c0.18-0.23,0.49-0.82,0.07-0.53c-1.47,1-2.62,0.49-2.63-1.28L7.38,16.96z"/>
                <path id="Fill-5" class="st0" d="M-4.27,16.59c0.01,0.31,1.42-0.4,1.42,1.72v3.88c0,1.36-1.34,1.12-1.33,1.32
					c0,0.12-0.01,0.32,0.06,0.32l4.79,0c0.04,0,0.08-0.38,0-0.39c-1.21-0.11-1.19-0.77-1.19-1.53v-2.96c0-0.19,0.32-0.63,1.01-0.84
					c1.78-0.56,1.86,0.66,2.23,0.65c0.29-0.01,0.51-1.59,0.49-1.81c-0.11-1.08-1.25-1.31-1.99-0.93c-0.96,0.49-1.5,1.77-1.77,2.24
					c-0.01,0.02,0.1-2.37,0.05-2.36l-3.79,0.21L-4.27,16.59z"/>
                <path id="Fill-7" class="st0" d="M-4.48,19.42c0.24,0,0.17-0.19,0.15-0.33c-0.73-3.01-3.43-3.8-5.45-2.89
					c-1.48,0.67-2.49,2.15-2.5,4.07c0,0.61,0.18,1.26,0.38,1.75c0.2,0.48,0.49,0.9,0.85,1.25c0.37,0.35,0.8,0.61,1.28,0.79
					c2.14,0.8,4.42-0.14,5.41-2.23c0.13-0.27,0.04-0.34-0.04-0.26c-2.81,3.11-4.75,1.33-5.3-0.34c-0.3-0.91-0.27-1.81-0.26-1.81
					H-4.48z M-9.94,18.95c-0.03,0,0.11-2.3,1.63-2.44c1.25-0.12,2.16,2.43,1.55,2.43L-9.94,18.95z"/>
                <path id="Fill-9" class="st0" d="M-22.09,23.22c0,0.11-0.06,0.34,0.14,0.34c1.79,0.01,2.08,0.23,2.26,0.25
					c1.5,0.12,3.09-0.1,3.91-0.44c1.14-0.47,1.89-1.26,2.29-2.42c0.69-2.01-0.28-4.75-2.51-5.27c-2.66-0.63-3.9,1.96-3.89,0.81
					l0.05-5.63l-3.43,0.23l0.02,0.3c0,0.09,1.21,0.44,1.21,0.64L-22.09,23.22z M-19.83,18.01c0-0.14,0-0.26,0.03-0.38
					c0.07-0.41,1.28-0.89,1.61-0.93c3.5-0.39,3.36,6.49-0.2,6.52c-1.21,0.01-1.44-0.57-1.44-1.61V18.01z"/>
                <path id="Fill-11" class="st0" d="M-24.77,12.13c0-0.24-0.06-0.46-0.17-0.65c-0.11-0.19-0.26-0.34-0.44-0.46
					c-0.18-0.11-0.4-0.17-0.63-0.18c-0.25,0-0.47,0.07-0.66,0.18c-0.19,0.12-0.34,0.27-0.44,0.47c-0.11,0.19-0.16,0.39-0.16,0.61
					c0,0.23,0.06,0.43,0.17,0.62c0.11,0.19,0.26,0.34,0.45,0.45c0.19,0.11,0.4,0.17,0.64,0.17c0.25,0,0.46-0.06,0.65-0.18
					c0.19-0.12,0.33-0.27,0.43-0.45C-24.83,12.53-24.77,12.33-24.77,12.13"/>
                <path id="Fill-13" class="st0" d="M-26.94,21.84c-0.01,0.28-0.01,1.06-0.28,1.26c-0.23,0.18-0.93,0.45-0.93,0.49
					c0.01,0.21,0.13,0.25,0.3,0.25l3.34-0.02c0.19,0,0.43,0.06,0.62-0.01c0.19-0.07,0.1-0.36-0.11-0.36c-0.95,0-0.72-0.97-0.75-1.54
					c-0.15-3.87-0.07-5.33-0.07-6.01c0-0.16-2.41,0.11-3.41,0.26c-0.11,0.02-0.05,0.46,0.01,0.45c0.97-0.05,1.4,0.71,1.37,1.58
					L-26.94,21.84z"/>
                <path id="Fill-15" class="st0" d="M-36.13,21.41c0,0.2,0,0.38-0.02,0.54c-0.08,0.99-1.54,0.96-1.52,1.02l0.11,0.37l8.3-0.01
					c0.46,0,0.52,0.02,0.62-0.08c0.07-0.06,0.11-0.18,0.12-0.36c0.04-0.84,0.17-1.69,0.24-2.53c0.01-0.07-0.07-0.08-0.16-0.08
					c-0.2,0-0.29,0.31-0.37,0.45c-0.44,0.79-0.78,1.39-1.64,1.79c-0.59,0.28-1.98,0.38-2.57,0.01c-0.23-0.14-0.38-0.35-0.47-0.61
					c-0.09-0.27-0.13-0.61-0.13-1v-7.26c0-0.18,0.02-0.3,0.03-0.45c0.02-0.15,0.06-0.28,0.12-0.39c0.06-0.11,0.19-0.23,0.33-0.3
					c0.09-0.04,0.88-0.39,1.22-0.57c0.14-0.07,0.12-0.13,0.05-0.1l-5.55-0.01c-0.05,0-0.26,0-0.32,0.01
					c-0.06,0.01-0.01,0.21,0.04,0.23c0.63,0.22,1.46,0.36,1.51,1.15c0.01,0.16,0.01,0.33,0.01,0.53L-36.13,21.41z"/>
			</g>
            <g id="Isotipo">
				<path id="Fill-27" class="st0" d="M35.42,44.41c-0.12-0.15-0.4-0.03-0.4-0.03l-4.58,1.7c-0.35-0.86-0.76-1.68-1.23-2.44
					l1.48-4.05c0,0,0.19-0.4,0.02-0.5c-0.17-0.1-0.45,0.17-0.45,0.17l-2.69,2.21c-1.05-1.13-2.28-2.03-3.7-2.67
					c-0.53-0.24-1.08-0.43-1.65-0.59L21.37,35c0,0-0.07-0.32-0.29-0.32c-0.21,0-0.27,0.3-0.27,0.3l-0.54,2.83
					c-0.59-0.07-1.19-0.12-1.81-0.12c-2.01,0-3.79,0.38-5.36,1.08c-0.67,0.3-1.3,0.66-1.89,1.07c-0.1,0.07-0.19,0.14-0.29,0.22
					c-0.56-1.43-0.99-2.6-1.08-2.95c0.31-0.28,0.96-1.3,1.12-1.99c0.22-0.96,0.15-1.42-0.08-2.15c-0.17-0.53-0.5-1.03-0.48-1.37
					c0.02-0.25,0.15-0.43,0.26-0.55c-0.06-0.35-0.29-0.51-0.56-0.54c-0.25-0.03-0.45,0.04-0.67,0.05c-0.06-0.1-0.17-0.08-0.09-0.45
					c0.13-0.55,1.19-0.81,2.06-1.15c1.1-0.43,1.71-1.22,1.75-2.49c0.03-0.92-0.49-1.61-1.13-1.91c-0.13,0.37-0.67,0.87-1.04,1.08
					c-0.37,0.2-0.88,0.28-1.24,0.2c0.08-0.68-0.23-1.26-0.73-1.49c-0.16,0.29-0.75,0.69-1.65,0.66c-0.9-0.03-0.95-0.24-2.22-0.23
					c-1.79,0-3.28,1.08-3.46,2.67c-0.12,1.03,0.28,1.9,0.58,2.35c-0.22,0.17-0.75,0.67-0.84,0.82c-0.13-0.15-0.49-0.35-0.91-0.07
					c0.09,0.23,0.11,0.5,0.04,0.76c-0.07,0.26-0.73,1.53-0.8,2.56c-0.13,1.74,0.88,2.91,1.72,3.25c-0.18,0.28-0.22,0.58-0.09,0.82
					c0.09,0.16,0.26,0.32,0.62,0.32c-0.2,0.22-0.28,0.56-0.15,0.89c0.15,0.37,0.58,0.92,0.95,0.92C2.77,40.38,2.92,41.13,3,41.43
					c-0.13,0.25-0.26,0.43-0.24,0.88c0.02,0.46,0.32,0.84,0.69,0.92c0.09,0.23,0.16,0.47,0.3,0.62c0.13,0.15,0.25,0.33,0.53,0.52
					c0.28,0.19,0.6,0.34,0.97,0.34c0.37,0,0.7,0.02,0.87-0.04c0.01,0.11,0.04,1.09,0.09,2.19c-0.94,2.61-1.41,5.64-1.41,8.89v0
					c0,5.83,1.66,11.02,4.83,14.36c0,0,0.18,0.22,0.69,0.56c0,0,0.99-1.7,2.5-3.63c0.38-0.49,0.82-0.96,1.3-1.42
					c0.74-0.64,1.46-1.22,2.17-1.73c1.95-1.33,4.21-2.34,6.3-2.78c-2.39,1.24-3.75,1.9-6,3.83c-1.43,1.22-3.7,3.38-5.25,6.33
					c0.32,0.26,0.76,0.52,1.27,0.57c0.33-0.39,2.02-3.48,4.61-5.97c5.24-4.91,11.42-6.04,14.65-5.98c0.18-1.33,0.28-2.72,0.28-4.15
					c0-2.34-0.24-4.57-0.73-6.62l3.86-4.29C35.26,44.84,35.53,44.57,35.42,44.41"/>
                <path id="Fill-28" class="st1" d="M6.71,42.47c-0.23-0.13-0.84-0.43-1.33-0.41c-0.5,0.02-0.93,0.12-1.32,0.38
					c-0.17-0.11-0.22-0.34-0.11-0.6c0.11-0.26,0.26-0.3,0.26-0.3l-0.14-2.44c0,0,0.69-0.49,0.87-0.54c0.19-0.06,0.27-0.2,0.27-0.39
					c0.3,0.21,0.75,0.67,0.99,1.01c0.22,0.32,0.35,0.67,0.37,1.06c0.02,0.39,0.02,0.86-0.06,1.34c0.15,0.13,0.3,0.24,0.32,0.45
					C6.86,42.23,6.79,42.31,6.71,42.47"/>
                <path id="Fill-29" class="st1" d="M29.01,50.09c-0.03-0.48-0.58-1.77-0.92-2.05l5.81-2.58L29.01,50.09z"/>
                <path id="Fill-30" class="st1" d="M13.08,40.47l4.92,4.46c-0.48,0.27-1.19,0.99-1.38,1.57L13.08,40.47z"/>
                <path id="Fill-31" class="st1" d="M15.95,49.31c-0.17,0.26-0.23,0.42-0.29,0.74c-0.06,0.32-0.01,0.49,0.02,0.76l-1.51-1.04
					c0.02-0.35-0.08-0.93-0.1-1.23c0-0.03-0.01-0.09-0.02-0.13L15.95,49.31z"/>
                <path id="Fill-32" class="st1" d="M7.65,49.74c-0.1-0.17-0.52-9.24-0.54-9.56l0.49-0.35v-0.09c-0.35-0.02-0.77-0.15-0.9-0.36
					l-0.13-2.78c-0.49-0.04-0.99-0.19-1.17-0.38c-0.23-0.23-0.41-0.52-0.15-1.02c0.24,0.17,0.95,0.37,1.57,0.37
					c0.13,0,0.4,0.29,0.56,0.36c0.18,0.07,0.48,0.23,0.62,0.3c0.13,0.05,0.21,0.35,0.24,0.47c0.04,0.11,4.53,11.78,4.61,11.91
					c0.08,0.13,0.34,2.09,0.35,2.24c0.02,0.15,0.69,1.72,0.82,1.87c-0.6-0.02-1.58,0.32-2.38,1.11c-0.79,0.77-1.48,2.45-1.64,3.23
					C9.94,56.63,7.74,49.91,7.65,49.74"/>
                <path id="Fill-33" class="st1" d="M13.36,60.9c-0.2,1.8-0.63,3.35-1.29,4.46c-0.42,0.72-1.61,2.17-2.02,2.72
					c0.45-0.9,0.79-3.06,0.77-4.74c-0.02-1.09-0.35-3.5-0.06-5.1c0.31-1.71,0.8-2.67,1.94-3.73c0.59-0.54,1.78-1.22,3.49-0.76
					l1.38,2.6c-0.74-0.14-1.72-0.02-2.37,0.48C13.98,57.78,13.56,59.05,13.36,60.9"/>
                <path id="Fill-34" class="st1" d="M13.5,64.44c0.34-0.76,0.78-2.91,0.9-3.64c0.16-0.93,0.31-2.28,1.41-3.19
					c0.54-0.45,1.43-0.51,1.79-0.4l1.56,3.19c0.14,0.34,0.6,0.45,0.91,0.44C18.6,61.31,14.91,63.07,13.5,64.44"/>
                <path id="Fill-35" class="st1" d="M26.8,54.27c-0.25,0.39-0.16,0.77-0.02,1.03c0.16,0.3,0.99,1.83,0.99,1.83
					c0.26,0.69,0.46,1.04,0.71,1.49c0.45,0,0.93-0.01,1.45,0c-0.55-1.22-1.8-3.59-1.8-3.59l-0.09-1.91
					C27.68,53.34,27.05,53.88,26.8,54.27"/>
                <path id="Fill-36" class="st1" d="M20.13,44.13c0.62-0.11,2.01,0.02,2.46,0.24l-1.42-8.02L20.13,44.13z"/>
                <path id="Fill-37" class="st1" d="M8.23,36.68c-0.04-0.11-0.11-0.41-0.24-0.46c-0.14-0.06-0.44-0.23-0.62-0.3
					c-0.15-0.06-0.43-0.35-0.56-0.35c-0.62,0-1.33-0.2-1.57-0.37c-0.26,0.5-0.08,0.79,0.15,1.02c0.19,0.19,0.69,0.34,1.17,0.38
					l0.13,2.78c0.13,0.21,0.54,0.34,0.9,0.35v0.1l-0.49,0.35c0.02,0.32,0.45,9.39,0.54,9.56c0.09,0.17,2.3,6.89,2.35,7.3
					c0.16-0.78,0.85-2.46,1.64-3.23c0.8-0.79,1.78-1.13,2.38-1.11c-0.13-0.15-0.8-1.72-0.82-1.87c-0.02-0.15-0.28-2.11-0.35-2.24
					C12.76,48.47,8.27,36.8,8.23,36.68"/>
                <path id="Fill-38" class="st1" d="M5.36,34.46c1.27,0,1.87,0.53,2.17,0.81c0.04-0.43-0.03-0.81-0.43-1.13
					c-0.33-0.27-0.91-0.51-1.81-0.51c-0.6,0-1.2,0.18-1.57,0.49c-0.34,0.29-0.4,0.62-0.32,1.1C3.5,34.88,4.31,34.45,5.36,34.46"/>
                <path id="Fill-39" class="st1" d="M3.08,27.8c-0.03,0.49,0.1,0.99,0.32,1.29c0.13,0.17,0.43,0.5,0.65,0.48
					c0.32-0.02,0.62-0.63,1.36-0.6c0.48,0.02,0.8,0.7,1.21,0.73c0.32,0.02,0.48-0.3,0.81-0.33c0.27-0.03,0.37,0.11,0.54,0.28
					c0.11-0.26,0.27-0.44,0.69-0.75c0.5-0.37,2.22-0.73,2.95-1.38c0.36-0.33,0.45-0.93,0.33-1.34c-0.28,0.39-1.04,0.8-1.79,0.83
					C9.8,27.03,8.9,26.87,8.58,26.7c0.16-0.27,0.21-0.58,0.08-0.88C8.42,26,7.37,26.1,6.96,26.1c-0.41,0-1.21-0.17-1.83-0.13
					C3.76,26.04,3.13,27.01,3.08,27.8"/>
                <path id="Fill-40" class="st1" d="M5.44,32.04c2.95,0.06,4.28,1.42,4.32,2.54c0.15-0.33,0.13-0.65,0.11-1.03
					c-0.01-0.3-0.46-1.14-0.48-1.42c-0.02-0.28,0.06-0.47,0.11-0.73c-0.19,0.04-0.84,0.3-1.12,0.07c-0.3-0.24-0.09-0.84-0.49-0.99
					c-0.39-0.15-1.01,0.32-1.4,0.26c-0.39-0.06-0.73-0.6-1.14-0.6c-0.41,0-0.62,0.5-1.12,0.62c-0.39,0.09-0.86-0.15-1.09-0.13
					c-0.25,0.02-0.41,0.22-0.52,0.46c-0.11,0.24-0.2,0.34-0.5,0.42c-0.24,0.06-0.58-0.15-0.75-0.11c0.13,0.13,0.2,0.66,0.08,0.97
					c-0.15,0.39-0.47,0.8-0.51,1.29c-0.03,0.43,0.11,0.63,0.22,0.95C1.09,33.02,2.86,31.99,5.44,32.04"/>
                <path id="Fill-41" class="st1" d="M3.58,37.69c-0.2,0.04-0.64,0.37-0.84,0.72c0.06,0.23,0.3,0.75,0.54,0.9
					c0.05-0.24,0.32-0.65,0.45-0.74c0.19-0.13,0.37-0.23,0.52-0.3c0.15-0.08,0.21-0.15,0.21-0.32c0-0.17-0.02-0.25-0.1-0.42
					c0.15-0.02,0.42,0,0.52-0.13c0.09-0.13,0.14-0.3,0.14-0.46c0-0.17-0.08-0.21-0.24-0.23c-0.17-0.02-0.66-0.03-0.9-0.01
					c0,0,0.38-0.19,0.49-0.25c0.11-0.05,0.15-0.17,0.17-0.26c0.02-0.09,0.02-0.3-0.04-0.56c-0.56,0.02-1.55,0.52-1.81,0.74
					l0.21,0.51l-0.37-0.02c-0.06,0.25-0.02,0.65,0.09,0.87C2.94,37.69,3.33,37.67,3.58,37.69"/>
                <path id="Fill-42" class="st1" d="M25.01,49.01c-0.62-0.4-1.82-0.99-2.18-1.1l0.53-1.37c0.45,0.23,2.1,1.23,2.35,1.49
					L25.01,49.01z M22.1,47.69c-0.45-0.31-1.93-0.25-2.55-0.11l-0.45-1.29c0.34-0.25,0.98-0.42,1.57-0.42
					c0.59,0,1.23,0.14,1.68,0.37L22.1,47.69z M17.67,48.64c-0.25-0.85,0.42-1.68,0.73-1.99l0.47,1.09
					C18.52,47.94,17.96,48.36,17.67,48.64z M19.13,50.85c0,0,0.61-0.35,1.19-0.48c0.85-0.18,1.8,0.33,2.47,0.86l-0.13,0.2
					l-0.96,0.23c-0.19-0.16-0.54-0.24-0.93-0.22c-0.34,0.01-0.61,0.14-0.61,0.14l0.19,0.31L19.92,52c-0.2-0.25-0.51-0.56-0.78-0.64
					V50.85z M27.73,49.39c-0.07-0.36-0.98-1.45-2.53-2.62c-1.21-0.92-2.98-1.83-4.44-1.82c-2.47,0.01-3.48,1.71-3.67,2.59
					c-0.11,0.54-0.09,1.11,0.03,1.43c-0.39,0.34-0.54,0.61-0.61,0.99c-0.05,0.27,0,0.67,0.25,0.91c-0.03-0.36,0.22-0.79,0.42-1.06
					c0.22-0.31,0.6-0.43,0.94-0.64l0.06,0.68c-0.32,0.18-0.71,0.57-0.74,0.78l0.03,1.11l0.85-0.51l0.16,0.34l-0.31,1.96l0.48-0.08
					l0.87,0.36l-0.84,0.71v0.28c0,0,0.13-0.17,0.42-0.16c0.3,0.02,1.06,0.36,1.06,0.36l-0.03,0.17h-0.34h-1.15
					c-0.06,0.2,0.12,0.35,0.23,0.43c0.19-0.06,0.4-0.16,0.51-0.16c0.11,0,0.37,0.07,0.59,0.1l-0.27,0.36c0,0-0.14,0.1-0.39,0.05
					c-0.14-0.03-0.28,0.17-0.28,0.33c0,0.17,0.11,0.59,0.11,0.59c0.14,0.63,0.78,0.5,0.87,0.5c0.41-0.04,1.74-0.52,1.74-0.52
					l-1.28,1.8l0.56,1.92c0.85-0.35,3.37-1.25,6.12-1.7c-0.3-0.49-0.35-0.69-0.72-1.43l-1.4-3.22l0.2-0.48
					c0.31,0.11,0.79-0.11,1.09-0.36c0.31-0.25,0.67-0.7,0.81-0.98c-0.2-0.11-0.36-0.09-0.53,0.03c-0.17,0.11-0.3,0.33-0.53,0.22
					c-0.26-0.11-0.13-0.39-0.1-0.64c0.03-0.25-0.29-0.25-0.51-0.06c-0.23,0.2-0.7,0.11-1.01-0.2c-0.31-0.31-1.79-1.54-2.32-1.85
					c-0.77-0.44-1.79-0.55-2.55-0.41c-0.44,0.08-0.76,0.27-0.92,0.19l-0.56-0.86l0.09-0.06c0.19,0.08,0.38,0.24,0.63,0.16
					c0.25-0.09,1.06-0.27,1.79-0.28c1.12-0.02,2.48,0.39,3.08,0.64c0.03,0.73,1.49,1.65,2.16,1.73c0.56,0.07,0.9-0.08,1.23-0.28
					l-1.43-1.25l0.76-0.96c0,0,1.2,1.15,1.37,1.37C27.81,49.77,27.76,49.55,27.73,49.39z"/>
                <path id="Fill-43" class="st1" d="M24.82,45.36c0.55,0.2,1.73,1.18,2.01,1.41l2.97-6.33L24.82,45.36z"/>
			</g>
		</g>
	</g>
</g>
</svg>
