<?xml version="1.0" encoding="utf-8"?>
<!-- Generator: Adobe Illustrator 26.1.0, SVG Export Plug-In . SVG Version: 6.00 Build 0)  -->
<svg version="1.1" id="Capa_1" xmlns="http://www.w3.org/2000/svg" x="0px" y="0px"
     viewBox="0 0 99.21 99.21" width="24" height="24" style="enable-background:new 0 0 99.21 99.21;"
     xml:space="preserve">
<style type="text/css">
	.st0{fill:#961D60;}
	.st1{fill:#5B666F;}
	.st2{fill:#982063;}
	.st3{fill:#FBF8FA;}
	.st4{fill:#FCFAFB;}
	.st5{fill:#FAFAFB;}
	.st6{fill:#FAF7F9;}
	.st7{fill:#646F77;}
	.st8{fill:#69737B;}
	.st9{fill:#FEFEFE;}
	.st10{fill:#FDFDFD;}
</style>
    <path class="st0" d="M7.22,48.98c-1.53-3.5,0.18-7.13,3.85-7.46c3.37-0.3,6.8-0.42,10.19,0.22c5.69,1.08,10,7.17,9.39,12.86
	c-0.64,6-5.62,10.67-11.75,10.76c-4.39,0.07-8.79,0-13.18,0.02c-1.32,0.01-2.61-0.14-2.57-1.78c0.04-1.46,1.25-1.64,2.49-1.64
	c4.09,0.02,8.18,0.04,12.27,0c5.5-0.06,9.29-3.68,9.21-8.73c-0.08-4.89-3.92-8.31-9.38-8.33c-1.82-0.01-3.64,0.01-5.45,0
	c-1.22-0.01-2.15,0.41-2.14,1.75c0.01,1.26,0.96,1.58,2.05,1.59c1.97,0.01,3.94-0.04,5.91,0.02c3.4,0.09,5.71,2.2,5.72,5.17
	c0.01,2.94-2.37,5.11-5.72,5.15c-2.27,0.03-4.55,0.07-6.82-0.02C4.67,58.32-0.28,53.11-0.25,46.48c0.03-6.44,5.06-11.68,11.56-11.87
	c4.47-0.13,8.94-0.02,13.41-0.04c1.24,0,2.4,0.22,2.43,1.71c0.03,1.65-1.2,1.83-2.53,1.82c-4.17-0.02-8.34,0.09-12.5-0.03
	c-5.7-0.16-8.69,4.29-8.96,8.23c-0.31,4.38,3.24,8.32,8.06,8.72c2.84,0.24,5.74,0.5,8.57-0.28c1.13-0.09,1.09-0.83,0.89-1.63
	c-0.24-0.95-0.72-1.66-1.84-1.66c-1.51,0-3.03,0.01-4.54-0.01c-0.73-0.01-1.48,0.11-2.19-0.48c1.51-0.55,3.11-0.33,4.66-0.44
	c-1.98,0.09-3.97-0.14-5.93,0.37C9.08,51.38,8.48,49.54,7.22,48.98z"/>
    <path class="st1" d="M73.84,49.48c1.85,0.94,3.5,1.84,4.18,3.77c1.31,3.73-0.87,7.36-5.04,8.34c-2.16,0.51-4.36,0.45-6.56,0.44
	c-1.82-0.01-3.64-0.02-5.45,0c-1.87,0.02-2.82-0.89-2.82-2.75c0-6.18,0-12.36-0.01-18.55c0-1.85,0.81-2.78,2.75-2.74
	c2.8,0.06,5.61,0.01,8.41,0.02c3.14,0.02,5.97,0.78,7.28,3.95C77.86,45.05,76.55,47.48,73.84,49.48z"/>
    <path class="st1" d="M90.4,62.03c-2.91-0.08-5.77-0.92-8.32-2.72c-1.04-0.73-1.63-1.69-0.78-2.87c0.81-1.13,1.9-1.1,2.97-0.31
	c1.55,1.15,3.26,1.87,5.18,2.16c1.23,0.19,2.43,0.07,3.56-0.42c1.03-0.44,1.73-1.23,1.79-2.41c0.06-1.2-0.56-2.04-1.62-2.48
	c-1.18-0.48-2.42-0.84-3.65-1.22c-1.08-0.34-2.2-0.57-3.26-0.97c-3.45-1.3-4.86-3.39-4.58-6.65c0.25-2.93,2.5-5.4,5.68-5.94
	c3.05-0.51,6.05-0.25,8.81,1.32c1.23,0.7,2.53,1.51,1.54,3.16c-0.87,1.45-2.15,1.03-3.36,0.29c-1.8-1.11-3.77-1.56-5.87-1.24
	c-1.39,0.21-2.45,0.93-2.67,2.38c-0.24,1.52,0.71,2.43,2.02,2.89c1.56,0.55,3.18,0.97,4.77,1.43c4.89,1.41,6.84,3.8,6.24,7.71
	C98.32,59.7,95.12,61.99,90.4,62.03z"/>
    <path class="st1" d="M40.76,56.13c1.74,1.03,3.5,2,5.57,2.19c1.45,0.13,2.88,0.02,4.06-0.9c1.89-1.47,1.29-3.43-1.46-4.93
	c-0.56-0.94-1.63-0.33-2.36-0.77c-1.33,0.03-2.52-0.5-3.71-0.95c-3.35-1.25-4.65-3.17-4.49-6.48c0.14-2.86,1.99-5.15,5.07-5.92
	c3.43-0.85,6.76-0.44,9.84,1.41c1.05,0.63,1.9,1.41,1.19,2.74c-0.73,1.37-1.88,1.34-3.08,0.62c-1.87-1.12-3.85-1.77-6.05-1.45
	c-1.45,0.21-2.62,0.82-2.82,2.46c-0.19,1.56,0.74,2.42,2.05,2.86c2.07,0.7,4.22,1.19,6.28,1.94c3.47,1.26,5.08,3.56,4.77,6.56
	c-0.34,3.28-2.45,5.49-5.97,6.18c-3.74,0.74-7.19,0.04-10.33-2.12c-0.96-1.01-2.01-2-0.93-3.54c0.18-0.09,0.36-0.18,0.54-0.27
	C39.53,55.93,40.14,56.09,40.76,56.13z"/>
    <path class="st2" d="M7.22,48.98c3.3,2.3,7.12,1,10.69,1.78c-1.78,0-3.57,0-5.35,0c0,0.13,0,0.26,0.01,0.39
	c2.16,0,4.32,0.11,6.46-0.04c1.61-0.11,1.72,1.1,2.21,2.02c0.56,1.04-0.2,1.71-0.89,2.22c-0.49,0.36-0.49-0.27-0.58-0.59
	c0.79-2.18,0.32-2.94-1.91-2.98c-1.96-0.04-3.93-0.01-5.89-0.01C9.85,51.76,8.19,50.96,7.22,48.98z"/>
    <path class="st3" d="M11.2,53.84c2.47,0,4.94,0,7.42,0c0-0.22,0-0.45,0-0.67c-2.63,0-5.25,0-7.88,0c0-0.18,0-0.37,0.01-0.55
	c2.47,0,4.94,0,7.4,0c0.55,0,1.09,0.09,1.15,0.79c0.07,0.83-0.49,1-1.16,1c-2.31,0-4.62,0-6.92,0C11.2,54.21,11.2,54.02,11.2,53.84z
	"/>
    <path class="st4" d="M18.76,61.2c-4.08,0-8.16,0-12.24,0c-0.67,0-1.34,0-2.01,0c0-0.1,0-0.19,0-0.29c4.78,0,9.56,0,14.35,0
	C18.82,61,18.79,61.1,18.76,61.2z"/>
    <path class="st5" d="M70.6,37.09c-3.42,0-6.85,0-10.27,0c0-0.08,0-0.15,0-0.23c3.45,0,6.89,0,10.34,0
	C70.64,36.94,70.62,37.02,70.6,37.09z"/>
    <path class="st6" d="M10.75,59.5c2.68,0,5.37,0,8.05,0c0,0.07,0,0.14,0,0.2c-2.68,0-5.37,0-8.05,0
	C10.75,59.63,10.75,59.56,10.75,59.5z"/>
    <path class="st7" d="M38.38,56.06c-0.44,1.38,0.54,2.38,0.93,3.54C37.69,58.76,36.72,57.75,38.38,56.06z"/>
    <path class="st8" d="M46.57,51.73c0.83,0.13,1.92-0.56,2.36,0.77C48.14,52.24,47.36,51.98,46.57,51.73z"/>
    <path class="st7" d="M40.76,56.13c-0.74,0.55-1.29,0.1-1.85-0.35C39.63,55.38,40.24,55.53,40.76,56.13z"/>
    <path class="st9" d="M66.9,58.13c-4.53,0.09-4.46,0.08-4.5-4.52c-0.02-1.62,0.5-2.07,2.05-1.96c2.02,0.14,4.07-0.04,6.09,0.12
	c1.84,0.15,3.4,0.87,3.49,3.08c0.07,1.91-1.11,3.04-3.52,3.26C69.31,58.22,68.1,58.13,66.9,58.13z"/>
    <path class="st10" d="M66.24,48.13c-3.81-0.06-3.7-0.06-3.85-3.84c-0.08-2.01,0.42-2.88,2.57-2.6c1.49,0.19,3.03-0.02,4.54,0.11
	c1.73,0.14,3.08,0.87,3.18,2.86c0.09,1.96-1.13,2.9-2.82,3.25C68.68,48.13,67.44,48.06,66.24,48.13z"/>
</svg>
