<?xml version="1.0" encoding="utf-8"?>
<!-- Generator: Adobe Illustrator 26.1.0, SVG Export Plug-In . SVG Version: 6.00 Build 0)  -->
<svg version="1.1" id="Capa_1" xmlns="http://www.w3.org/2000/svg" x="0px" y="0px"
     viewBox="0 0 99.21 99.21" width="24" height="24" style="enable-background:new 0 0 99.21 99.21;"
     xml:space="preserve">
<style type="text/css">
	.st0{fill:#00AEC7;}
	.st1{fill:#0033A0;}
</style>
    <g>
	<g>
		<path id="XMLID_306_" class="st0" d="M85.49,60.43c0.04-0.06,0-0.11-0.04-0.13c-1.9,0.76-6.06,1.52-8.66,1.9
			c-2.24,0.34-4.16,0.4-5.24,0.46l-0.49,0.04c-0.06,0-0.08,0.04-0.11,0.08s0.02,0.06,0.04,0.08c0.19,0.21,0.82,0.8,2.09,0.99
			c1.46,0.19,3.59-0.17,6.3-0.95C81.64,62.29,84.22,61.19,85.49,60.43z"/>
        <path id="XMLID_305_" class="st0" d="M85.68,61.55c-1.2,0.82-2.85,1.63-4.8,2.3c-1.99,0.7-4.12,1.27-6.45,1.67
			c-0.04,0.02-0.08,0.04-0.08,0.08c0,0.02,0.02,0.06,0.02,0.08c0.38,0.3,0.89,0.49,1.48,0.55c0.74,0.08,1.65-0.02,2.68-0.3
			c0.93-0.25,1.8-0.66,2.81-1.14c0.95-0.46,1.86-0.99,2.62-1.54c0.78-0.57,1.39-1.12,1.75-1.61C85.74,61.59,85.72,61.55,85.68,61.55
			z"/>
        <path id="XMLID_304_" class="st0" d="M75.89,40.22c0.49,0.51,1.1,0.89,1.86,1.12l0.06,0.02c0.21,0.06,12.91,3.4,16.27,4.31
			c1.48,0.4,2.64,0.72,3.17,0.87c0.06,0,0.08-0.02,0.08-0.06c0-0.02-0.02-0.06-0.04-0.06c-2.11-0.85-15.19-5.87-20.12-7.76
			l-2.07-0.8c-0.06,0-0.11,0-0.13,0.02c-0.02,0.02-0.02,0.06-0.02,0.08c0.02,0.17,0.13,1.12,0.55,1.75
			C75.64,39.93,75.77,40.1,75.89,40.22z"/>
        <path id="XMLID_303_" class="st0" d="M76.44,35.24c0.25,0.32,0.49,0.51,0.95,0.8c0.15,0.08,0.32,0.19,0.49,0.27l1.16,0.59
			c0.66,0.34,10.46,4.9,11.9,5.62c1.69,0.82,3.38,1.63,4.12,2.01c0.08,0.02,0.11,0,0.08-0.08c-1.82-1.14-8.83-5.56-13.84-8.64
			l-3.59-2.18l-0.66-0.4l-1.23-0.74c-0.06-0.02-0.11-0.02-0.13,0c-0.04,0.02-0.04,0.04-0.04,0.06c-0.02,0.17-0.02,1.1,0.25,1.8
			C76.08,34.65,76.25,34.98,76.44,35.24z"/>
        <path id="XMLID_302_" class="st0" d="M85.28,63.74c-0.02,0-0.04,0-0.06,0.02c-1.63,1.61-4.01,2.49-4.82,2.75
			c-0.04,0-0.08,0.04-0.08,0.08c0,0.04,0.02,0.08,0.06,0.11c0.13,0.06,1.08,0.57,2.92-0.34c1.04-0.53,1.56-1.37,2.03-2.49
			C85.36,63.77,85.32,63.74,85.28,63.74z"/>
        <path id="XMLID_301_" class="st0" d="M96.96,50.3c-0.82,0.23-3.93,1.04-6.68,1.73c-2.37,0.61-5.05,1.33-5.05,1.33
			c-0.27,0.06-0.17,0.19-0.15,0.23c0.06,0.11,0.23,0.36,0.4,0.66c0.42,0.72,1.01,0.61,1.52,0.44c0.11-0.04,9.57-3.99,10-4.27
			c0.06-0.04,0.02-0.08,0.02-0.11C97.02,50.3,96.98,50.3,96.96,50.3z"/>
        <path id="XMLID_300_" class="st0" d="M92.8,56.88l-0.06,0.02c-1.25,1.04-3.17,2.7-5.13,4.4c-0.19,0.15-0.25,0.42-0.34,0.76
			c-0.13,0.57-0.42,1.29-0.42,1.29c-0.06,0.17,0.02,0.23,0.19,0.06c1.52-1.65,4.9-5.37,5.81-6.45
			C92.86,56.92,92.82,56.88,92.8,56.88z"/>
        <path id="XMLID_298_" class="st0" d="M98.8,47.79c-1.69-0.32-22.17-3.95-22.17-3.95c-0.04,0-0.08,0.02-0.11,0.04
			c-0.02,0.04,0,0.08,0,0.13c0.34,1.06,1.14,2.11,2.51,2.56c0.17,0.04,0.3,0.06,0.44,0.08c0,0,17.37,1.14,19.29,1.27
			c0.04,0,0.08-0.02,0.08-0.06C98.84,47.81,98.82,47.79,98.8,47.79z"/>
        <path id="XMLID_297_" class="st0" d="M97.93,48.95c-0.61,0.02-1.86,0.02-3.42,0.02c-1.8,0-4.04,0.02-6.11,0.02
			c-2.79,0-7.23,0.04-7.23,0.04c-0.02,0-0.06,0.02-0.08,0.04c-0.02,0.04-0.02,0.06,0,0.08c0.06,0.19,0.32,0.66,0.59,0.95
			c0.55,0.57,1.16,0.89,1.8,0.95c0.08,0,0.15,0,0.23,0c0.08,0,0.15,0,0.23-0.02c0.08,0,13.27-1.86,13.99-1.99
			c0.04,0,0.06-0.02,0.06-0.06C98,48.99,97.98,48.95,97.93,48.95z"/>
        <path id="XMLID_293_" class="st0" d="M95.88,52.14c-0.91,0.55-3.28,2.01-5.3,3.21c-1.14,0.7-2.56,1.48-3.3,1.94
			c-0.08,0.06-0.15,0.04-0.11,0.27c0,0,0.04,0.21,0.06,0.49c0.08,1.1,0.53,0.97,1.18,0.46l0.08-0.06c2.28-1.88,6.51-5.43,7.44-6.21
			C95.97,52.18,95.93,52.16,95.88,52.14z"/>
	</g>
</g>
    <g>
	<path class="st1" d="M57.7,39.72c-4.54,0-8.81,3.34-8.98,9.85c-0.17,5.92,2.92,10.06,8.14,10.06c4.29,0,5.79-2.98,5.79-2.98
		c0.25,2.01,1.33,2.62,3.49,2.62V39.72H57.7z M62.43,51.23c0,2.7-1.54,5.28-4.92,5.28c-3.02,0-5.18-2.03-5.03-6.89
		c0.13-4.67,2.39-6.74,5.37-6.74c0.23,0,0.44,0,0.66-0.02l0,0h3.93V51.23L62.43,51.23z"/>
        <path id="XMLID_277_" class="st1" d="M28.79,39.72l0.02,13.55c0,1.99-1.63,2.98-3.78,2.98c-2.28,0-3.76-0.99-3.76-2.98l-0.04-10.14
		c0-2.9-1.82-3.4-3.4-3.4v14.39c0,3.63,3.28,5.41,7.08,5.41c3.7,0,7.33-1.78,7.33-5.41V43.58C32.23,40.71,31.16,39.72,28.79,39.72z"
        />
        <path id="XMLID_267_" class="st1" d="M9.73,48.47l-4.16-1.14c-1.14-0.32-2.2-0.82-2.2-2.22c0-1.46,0.89-2.18,2.75-2.18h3.7
		c1.65,0,3.59-0.55,3.59-3.21H6.41c-4.31,0-6.76,2.18-6.76,5.28c0,2.9,1.84,4.52,5.11,5.41l3.66,0.95c1.5,0.4,2.03,1.35,2.03,2.3
		c0,1.46-0.93,2.35-3.19,2.37l-6.97,0.06v3.15h7.1c4.29,0,6.76-2.3,6.76-5.35C14.17,50.85,12.96,49.33,9.73,48.47z"/>
        <path id="XMLID_266_" class="st1" d="M43.96,39.72c-4.23,0-7.14,2.45-7.14,7.48v12.07h3.4V47.07c0-2.6,1.39-4.14,4.04-4.14h1.01
		c2.98,0,3.47-1.54,3.47-3.21H43.96L43.96,39.72z"/>
</g>
</svg>
