<?xml version="1.0" encoding="utf-8"?>
<!-- Generator: Adobe Illustrator 26.1.0, SVG Export Plug-In . SVG Version: 6.00 Build 0)  -->
<svg version="1.1" id="Mark" xmlns="http://www.w3.org/2000/svg" x="0px" y="0px"
     viewBox="0 0 99.2 50" width="24" height="24" style="enable-background:new 0 0 99.2 50;" xml:space="preserve">
<style type="text/css">
	.st0{fill:#2167AE;}
</style>
    <g>
	<path id="logoSymbol" class="st0" d="M12,13.1c-6.6,0-12,5.3-12,12c0,2.7,0.9,5.3,2.5,7.3l10-13.1h-1h-1c-1.1,0-2.2,0.1-2.9,0.2
		c-0.5,0.1-0.9,0.2-1.2,0.5c-0.4,0.2-0.9,0.9-1.2,1.4c0,0.1-0.1,0.2-0.2,0.3l-0.7-0.1l1-3.7h12.4L7.7,31c0.6-0.1,0.9-0.1,1.4-0.1
		c0.4,0,1,0,1.8,0.1l1.8,0.1c0.6,0,1.2,0.1,1.6,0.1c0.9,0,1.5-0.1,2.1-0.2c0.5-0.2,0.9-0.3,1.3-0.6c0.7-0.5,1.4-1.3,1.8-2
		c0-0.1,0.1-0.2,0.2-0.3l0.6,0.2c-0.2,0.6-0.2,0.9-0.6,1.5c-0.6,1.2-1.1,2-2,2.6c-0.9,0.6-1.8,1-2.9,1h-0.2c-0.8,0-1.4-0.1-3.4-0.4
		c-2-0.3-3-0.4-4.1-0.4c-0.6,0-1.3,0.1-1.9,0.2c-0.9,0.2-1.2,0.2-2,0.6c2.2,2.4,5.3,3.9,8.8,3.9c6.6,0,12-5.3,12-12
		C24,18.4,18.6,13.1,12,13.1"/>
        <path id="logoText" class="st0" d="M64.3,24.3c-0.4,0.2-0.9,0.4-1.4,0.5c-0.2,0-0.5,0.1-0.6,0.1c-0.1,0-0.1,0-0.2,0v-4.3
		c0.2,0,0.2,0,0.3,0c0.6,0,1.1,0.1,1.6,0.2c0.3,0.1,0.6,0.2,0.8,0.4c0.4,0.3,0.6,0.8,0.6,1.4c0,0.6-0.2,1-0.5,1.3
		C64.7,24.1,64.5,24.2,64.3,24.3 M68.7,30.1c-0.4-0.4-0.8-0.8-1.4-1.4c-0.3-0.4-0.6-0.7-0.9-1l-1.8-2.2c0.2-0.1,0.3-0.1,0.5-0.2
		c0.6-0.2,1-0.5,1.4-0.8c0.5-0.4,0.7-0.8,1-1.4c0.1-0.3,0.2-0.6,0.2-0.9c0-0.7-0.2-1.4-0.8-1.9c-0.5-0.5-1.1-0.9-1.9-1
		c-0.6-0.2-1-0.2-2-0.2c-0.3,0-0.7,0-1.1,0h-3c0.2,0.2,0.2,0.2,0.4,0.5c0.1,0.2,0.2,0.3,0.2,0.4c0.1,0.2,0.1,0.6,0.1,1.3V29
		c0,0.6,0,0.9-0.2,1.1c-0.1,0.2-0.1,0.2-0.2,0.4s-0.2,0.2-0.4,0.4h3.7c-0.2-0.2-0.2-0.2-0.3-0.4c-0.1-0.1-0.2-0.2-0.2-0.3
		c-0.1-0.2-0.2-0.6-0.2-1.1c0-0.2,0-0.4,0-0.6v-2.6l2.2,2.6c0.1,0.2,0.2,0.3,0.5,0.6c0.2,0.3,0.5,0.5,0.6,0.6c0.4,0.4,0.8,0.7,1.2,1
		c0.3,0.2,0.6,0.2,1.1,0.2c0.2,0,0.4,0,0.6,0h1.4c-0.2-0.2-0.2-0.2-0.4-0.3C69.1,30.4,68.9,30.2,68.7,30.1 M73.6,21.4
		c0-0.8,0-1,0.2-1.3c0-0.2,0-0.2,0.1-0.4c0.2-0.2,0.2-0.3,0.4-0.5h-3.7c0.2,0.2,0.3,0.3,0.4,0.5c0.1,0.2,0.2,0.2,0.2,0.4
		c0.1,0.3,0.1,0.6,0.2,1.3c0,0.3,0,0.6,0,0.7V29c0,0.4-0.1,0.9-0.2,1.1c-0.1,0.1-0.1,0.2-0.2,0.3c-0.1,0.2-0.2,0.2-0.3,0.4h3.7
		c-0.2-0.2-0.2-0.2-0.3-0.4c-0.1-0.1-0.2-0.2-0.2-0.3c-0.1-0.2-0.2-0.6-0.2-1v-7L73.6,21.4z M84.8,29.2c-0.7,0.3-1.4,0.4-2.1,0.4
		c-1.2,0-2.2-0.4-3-1.3c-0.7-0.8-1.2-1.9-1.2-3.2c0-1.2,0.4-2.4,1-3.1c0.3-0.3,0.6-0.6,1-0.9c0.6-0.4,1.4-0.6,2.2-0.6
		c0.7,0,1.4,0.2,2.1,0.4c0.4,0.2,0.6,0.2,1,0.6v-2.2c-0.3-0.1-0.4-0.2-0.7-0.2c-0.6-0.2-1.4-0.2-2.1-0.2c-1.3,0-2.3,0.2-3.3,0.6
		c-0.6,0.2-1.1,0.6-1.6,1c-1.4,1.1-2.2,2.8-2.2,4.8c0,1.8,0.7,3.5,2.2,4.5c1.1,0.9,2.6,1.4,4.4,1.4c1.1,0,2.2-0.2,3.3-0.6
		c0.1,0,0.1,0,0.2-0.1v-2.1c-0.3,0.2-0.4,0.2-0.6,0.3C85.3,28.9,85,29.1,84.8,29.2 M98.5,21.4c0-0.5,0.1-0.9,0.2-1.2
		c0.1-0.2,0.1-0.3,0.2-0.4c0.2-0.2,0.2-0.3,0.5-0.5h-3.8c0.2,0.2,0.3,0.2,0.4,0.5c0.1,0.2,0.2,0.2,0.2,0.4c0.1,0.2,0.2,0.6,0.2,1.2
		v2.8h-5.3V22c0-0.6,0-1,0-1.4c0-0.2,0.1-0.3,0.1-0.5c0.1-0.2,0.3-0.6,0.5-0.8c0,0,0.1-0.1,0.2-0.2h-3.7c0.2,0.2,0.3,0.3,0.4,0.5
		c0.1,0.1,0.2,0.2,0.2,0.4c0.1,0.3,0.1,0.5,0.2,1.2V22v6.4c0,0.6,0,1-0.1,1.2c0,0.2-0.1,0.3-0.1,0.5c-0.1,0.2-0.2,0.5-0.5,0.6
		c0,0-0.1,0.1-0.2,0.1h3.7c-0.2-0.2-0.2-0.2-0.3-0.4c-0.1-0.1-0.2-0.2-0.2-0.4c-0.1-0.3-0.2-0.6-0.2-1c0-0.2,0-0.5,0-0.7v-2.8h5.3
		v2.9c0,0.6,0,0.9-0.1,1.2c0,0.2-0.1,0.3-0.2,0.5c-0.1,0.2-0.2,0.4-0.4,0.6c0,0-0.1,0.1-0.2,0.2h3.7c-0.2-0.2-0.2-0.2-0.3-0.4
		c-0.1-0.2-0.2-0.2-0.2-0.4c-0.1-0.2-0.2-0.5-0.2-1c0-0.3,0-0.6,0-0.6v-6.4L98.5,21.4L98.5,21.4L98.5,21.4z M41,29.3
		c-0.5,0.1-1.1,0.2-1.8,0.2c-0.2,0-0.6,0-1,0h-1.8l7.1-10.2h-9.2l-1.1,2.5c0.4-0.2,0.6-0.2,0.9-0.4c0.6-0.2,1.1-0.4,1.7-0.5
		c0.5-0.1,1-0.2,1.7-0.2c0.3,0,0.6,0,0.9,0h1.4l-7.3,10.2h10l1.2-2.6c-0.4,0.2-0.6,0.3-0.9,0.5C42.3,28.9,41.7,29.1,41,29.3
		 M53.8,19.7c0.1,0.2,0.2,0.2,0.2,0.4c0.1,0.3,0.1,0.6,0.1,1.2v4.5c0,1,0,1.5-0.1,2c-0.1,0.3-0.2,0.6-0.3,0.9
		c-0.3,0.5-0.8,0.8-1.4,1c-0.2,0.1-0.6,0.1-0.8,0.1c-1,0-1.8-0.4-2.3-1c-0.3-0.5-0.4-1-0.4-2.2v-1v-3.5c0-0.7,0-1,0-1.4
		c0-0.2,0.1-0.4,0.1-0.6c0.1-0.2,0.2-0.6,0.5-0.9l0.1-0.1h-3.7c0.2,0.2,0.3,0.3,0.5,0.5c0.1,0.2,0.2,0.2,0.2,0.4
		c0.1,0.2,0.1,0.3,0.1,0.6c0,0.1,0,0.3,0,0.7V22v3.3c0,1.3,0,1.5,0.1,2.1c0.1,0.9,0.3,1.5,0.8,2.2c0.9,1.1,2.3,1.7,4.1,1.7
		c0.9,0,1.7-0.2,2.3-0.4c0.6-0.2,1.3-0.6,1.8-1.2c0.6-0.6,0.9-1.4,1-2.2c0.1-0.6,0.1-1.2,0.1-2.1V22v-0.6v-0.2c0-0.5,0-0.8,0.1-1
		c0.1-0.2,0.1-0.3,0.2-0.5s0.2-0.3,0.5-0.5h-3.7C53.6,19.4,53.7,19.5,53.8,19.7"/>
</g>
</svg>
