<?xml version="1.0" encoding="utf-8"?>
<!-- Generator: Adobe Illustrator 26.1.0, SVG Export Plug-In . SVG Version: 6.00 Build 0)  -->
<svg version="1.1" id="Capa_1" xmlns="http://www.w3.org/2000/svg" x="0px" y="0px"
     viewBox="0 0 550.3 725.67" style="enable-background:new 0 0 550.3 725.67;" xml:space="preserve">
<style type="text/css">
	.st0{fill:#EC1C24;}
</style>
    <path d="M87.45,436.5c0-63.2,0.51-126.41-0.19-189.6c-0.41-36.79-6.32-42.58-42.78-48.59c-7.55-1.24-15.23-1.91-22.88-2.37
	c-10.43-0.64-12.35-6.96-11.63-15.72c0.7-8.47,2.62-13.99,13.55-13.56c75.99,2.95,152.01,2.9,228.01,0.18
	c7.41-0.26,12.47,1.35,11.78,10.04c-0.56,7.14,2.69,16.24-8.49,18.3c-8.9,1.64-17.97,2.35-26.84,4.11
	c-30.66,6.07-34.94,10.64-35.66,40.85c-2.57,107.64-4.79,215.29-1.97,322.97c0.66,25,0.84,50.01,1.85,75
	c0.87,21.4,10.4,31.81,31.87,33.67c40.33,3.5,80.76,4.36,121.24,2.37c18.92-0.93,33.33-10.06,44.01-24.57
	c11.5-15.62,21.62-32.24,32.24-48.5c2.27-3.47,3.41-7.93,6.26-10.73c11.48-11.26,27.73-19.44,41.18-14.29
	c11.14,4.26,0.83,20.08-1.48,29.92c-7.91,33.73-18.21,66.82-33.13,98.34c-5.56,11.74-13.61,18.91-26.95,19.6
	c-9.03,0.47-18.05,1.82-27.06,1.77C259.73,725,139.08,724.2,18.42,723.2c-7.93-0.07-19.58,4.45-18.78-11.36
	c0.59-11.7-2.15-24.96,16.79-23.9c4.06,0.23,8.21-1.44,12.35-2.03c52.96-7.6,57.51-12.04,58.14-66.05
	c0.71-61.11,0.16-122.24,0.16-183.36C87.21,436.5,87.33,436.5,87.45,436.5z"/>
    <path class="st0" d="M208.42,0.32c52.97,0,105.97,1.11,158.9-0.23c115.81-2.92,166.53,64.67,179.53,133.21
	c17.12,90.27-30.62,177.08-116.7,212.21c-37.4,15.26-76.6,19.55-116.78,17.4c-16.43-0.88-27.71-7.92-32.75-23.66
	c-3.15-9.82-2.08-16.42,11.29-14.75c10.32,1.28,20.88,1.46,31.29,1.03c54.35-2.23,93.16-35.43,103.58-88.47
	c5.8-29.55,6.51-59.23,0.97-88.94C413.98,74.2,367,34.69,291.06,34.34c-89.91-0.42-179.82-0.13-269.73-0.16
	c-8.93,0-18.88,1.98-20.78-11.2C-1.64,7.77,2.19,0.15,20.24,0.42c62.71,0.95,125.45,0.37,188.17,0.37
	C208.42,0.63,208.42,0.48,208.42,0.32z"/>
</svg>
