<?xml version="1.0" encoding="utf-8"?>
<!-- Generator: Adobe Illustrator 26.0.0, SVG Export Plug-In . SVG Version: 6.00 Build 0)  -->
<svg version="1.1" id="Capa_1" xmlns="http://www.w3.org/2000/svg" x="0px" y="0px"
     viewBox="0 0 1870.9 1984.2" style="enable-background:new 0 0 1870.9 1984.2;" xml:space="preserve">
<style type="text/css">
	.st0{fill:#EC1C24;}
</style>
    <path class="st0" d="M1869.2,530.3c-51.3,28.2-101.6,58.2-154.1,84.3c-70.8,35.2-145.1,47.2-221.8,16.4
	c-51.8-20.7-91.5-56.1-127-95.9c-51.4-57.5-91.7-122.1-133.9-185.4c-31.1-46.6-62.4-93-100.9-134.7c-36.1-39.1-78.1-68.9-132.7-82.2
	c-48.5-11.8-96-27.8-147.2-26c-60.2,2.1-114,23.3-165.9,49.5c-67.3,33.9-130,75.2-197.4,109c-61.4,30.9-125.2,55.6-195,64.6
	c-82.7,10.6-162.6-1.8-241.1-25.5c-17.8-5.4-35.5-11.2-52.1-19.5c0-57.2,0-114.5,0-171.7C6,59.6,38.9,25.8,90,5.1
	c10.1-4.1,21.2-2.4,31.4-5.5c543.2,0,1086.4,0,1629.6,0c57.2,5.5,93.3,36.3,115.4,84.2c4.4,9.5,2.5,19.8,5.8,29.4
	c0,6.2,0,12.3,0,18.5c-2.7,4.5-1.4,9.5-1.4,14.2c-0.1,123.4-0.1,246.8-0.2,370.3C1870.8,520.9,1872.4,525.9,1869.2,530.3z"/>
    <path class="st0" d="M0.2,1127.7c44-21,75.1-13.9,102.9,24.2c23,31.4,36,67.3,49.4,102.8c21.3,56.2,40.7,113,67.2,167.4
	c43.7,89.9,114.3,157.8,198.9,214.1c118.9,79.1,251.5,131.4,389.5,172.8c37,11.1,73.9,23.1,112.3,29.1c51.5,8,100.5-4.8,148.9-19.4
	c68.6-20.6,134.7-48,204.2-66.2c79.8-20.8,159.9-29.3,241.2-6.8c75.5,21,136.2,63.3,189.8,115.8c0,0,32.5,27.9,82.6,96.7
	c0.8,1.1,3,4.9,5.2,9.5c2.8,5.6,3.2,7.5,3.3,8.7c0.5,3.4,0.3,7.9,0.3,7.9c0,0-42-0.1-46.3-0.7c0,0,0,0,0,0
	c-542.8,0-1085.5,0-1628.2,0c-57.2-5.5-93.3-36.3-115.3-84.2c-4.4-9.5-2.5-19.8-5.8-29.4C0.2,1622.5,0.2,1375.1,0.2,1127.7z"/>
</svg>
