<?xml version="1.0" encoding="utf-8"?>
<!-- Generator: Adobe Illustrator 26.1.0, SVG Export Plug-In . SVG Version: 6.00 Build 0)  -->
<svg xmlns:xlink="http://www.w3.org/1999/xlink" version="1.1" id="Capa_1" xmlns="http://www.w3.org/2000/svg" x="0px"
     y="0px"
     viewBox="0 0 379.91 350.3" style="enable-background:new 0 0 379.91 350.3;" xml:space="preserve" width="350px"
     height="350px">
<style type="text/css">
	.st0{clip-path:url(#SVGID_00000161613119709044071000000018415567336038816950_);fill:#E30613;}
	.st1{clip-path:url(#SVGID_00000161613119709044071000000018415567336038816950_);}
	.st2{clip-path:url(#SVGID_00000161613119709044071000000018415567336038816950_);fill:#D80F16;}
</style>
    <g>
	<defs>
		<rect id="SVGID_1_" x="-110.6" y="-176.09" width="612" height="792"/>
	</defs>
        <clipPath id="SVGID_00000016793629306424844220000017483303791828587956_">
		<use xlink:href="#SVGID_1_" style="overflow:visible;"/>
	</clipPath>
        <path style="clip-path:url(#SVGID_00000016793629306424844220000017483303791828587956_);fill:#E30613;" d="M104.49,119
		c0.03-0.45,0.15-0.89,0.31-1.29c0.31-0.78,1.12-1.22,1.95-1.08c2.2,0.39,5.45,0.52,8.84,0.52c7.66,0,12.83-1.53,18-4.4
		c11.49-6.7,16.09-18.57,16.09-36.38c0-27-13.62-45.62-42.15-45.62c-3.83,0.17-46.95,0.04-56.72-0.08
		c-0.5-0.04-21.76,0.09-25.59,0.1c-1.43,0-2.59-1.16-2.59-2.59l-0.17-4.68c0-1.42,1.15-2.58,2.57-2.59
		c6.27-0.05,37.16-0.29,48.87-0.29c19.72-0.38,32.96,0.01,52.68,0.01c9.77,0,27.12,0.02,38.61,9.21
		c10.34,7.66,19.34,20.68,19.34,40.21c0,25.66-14.17,41.94-28.53,49.79c-10.72,5.94-22.79,8.43-34.28,8.43
		c-5.18,0-9.11-0.18-12.3-1.05c-0.25-0.07-0.48-0.19-0.68-0.36c-1.74-1.53-3.67-5.49-4.18-7.29
		C104.5,119.37,104.48,119.19,104.49,119"/>
        <path style="clip-path:url(#SVGID_00000016793629306424844220000017483303791828587956_);" d="M26.33,69.98
		c9.34,0,17.46,0.87,37,0.87c18.33,0,28.35-0.87,35.96-0.87c1.04,0.87,1.04,6.91,0,8.3c-7.09,0.69-10.2,1.56-13.49,2.08
		c-6.05,1.9-6.57,4.67-6.74,11.23c-0.52,7.09-0.52,27.14-0.87,53.07c0,30.08,0.34,57.05,0.87,66.38c0.17,4.5,3.46,7.09,5.01,7.95
		c6.57,1.9,27.66,1.9,39.24,1.55c5.53,0,10.07-1.95,15.38-8.99c1.69-2.24,7.89-11.85,10.02-16.34c1.28-1.76,12.49-6.09,13.45-3.63
		c-1.21,8.65-7.63,31.63-13.16,40.45c-1.04,2.08-3.8,3.63-13.14,3.63c-19.36,0-57.04-0.5-73.81-0.5c-16.42,0-31.82-0.01-39.25-0.01
		c-1.04-1.39-0.64-9.25,0.4-10.12c8.12-1.04,11.75-1.38,16.77-2.59c5.36-1.55,7.09-4.67,7.61-10.72c0.52-6.91,1.21-34.22,1.21-65
		c0-29.56,0-44.6-0.69-52.9c-0.17-8.47-1.21-11.93-7.95-13.48c-3.46-0.86-9.51-1.56-14.35-2.08C24.78,76.72,25.3,70.5,26.33,69.98"
        />
        <path style="clip-path:url(#SVGID_00000016793629306424844220000017483303791828587956_);fill:#D80F16;" d="M174.51,130.88v17.03
		h9.47c1.38,0,2.49-0.12,3.35-0.37c0.86-0.24,1.53-0.62,2.02-1.14c0.49-0.52,0.83-1.17,1.02-1.95c0.19-0.78,0.32-1.71,0.38-2.8h1.18
		v14.99h-1.18c-0.15-1.06-0.3-1.92-0.44-2.59c-0.15-0.67-0.3-1.15-0.45-1.45c-0.19-0.38-0.43-0.72-0.73-1
		c-0.3-0.29-0.68-0.53-1.14-0.75c-0.47-0.21-1.03-0.37-1.68-0.48c-0.66-0.11-1.43-0.16-2.32-0.16h-9.47v14.2
		c0,1.89,0.09,3.05,0.26,3.49c0.08,0.19,0.19,0.37,0.32,0.54c0.13,0.17,0.31,0.31,0.56,0.43c0.24,0.12,0.56,0.21,0.95,0.27
		c0.39,0.06,0.88,0.1,1.48,0.1h7.31c1.25,0,2.29-0.04,3.13-0.11c0.84-0.07,1.57-0.2,2.19-0.38c0.62-0.18,1.17-0.43,1.65-0.76
		c0.48-0.33,0.98-0.75,1.51-1.26c0.66-0.64,1.32-1.45,2-2.45c0.68-1,1.36-2.16,2.03-3.49h1.27l-3.72,10.8h-33.2v-1.18h1.52
		c0.4,0,0.83-0.04,1.27-0.13c0.45-0.08,0.86-0.22,1.26-0.41c0.39-0.19,0.75-0.43,1.06-0.71c0.32-0.29,0.54-0.62,0.67-1
		c0.25-0.66,0.38-2.04,0.38-4.16v-27.99c0-2.71-0.27-4.39-0.82-5.05c-0.76-0.85-2.03-1.27-3.81-1.27h-1.52v-1.17h33.2v9.43h-0.76
		c-0.23-1.14-0.47-2.09-0.7-2.83c-0.23-0.74-0.5-1.36-0.79-1.84c-0.3-0.49-0.64-0.87-1.02-1.16c-0.38-0.29-0.84-0.54-1.37-0.78
		c-0.87-0.32-2.36-0.48-4.48-0.48H174.51z M185.47,116.81l-9.34,8.74h-1.11l3.37-8.74H185.47z"/>
        <path style="clip-path:url(#SVGID_00000016793629306424844220000017483303791828587956_);fill:#D80F16;" d="M244.62,171.61h-11.5
		l-14.58-20.14c-0.55,0.02-1.04,0.04-1.48,0.05c-0.43,0.01-0.82,0.02-1.16,0.02c-0.27,0-0.57,0-0.89-0.02
		c-0.32-0.01-0.65-0.03-0.98-0.05v12.52c0,2.71,0.3,4.39,0.89,5.05c0.8,0.93,2.01,1.4,3.62,1.4h1.68v1.18h-18.46v-1.18h1.62
		c1.8,0,3.1-0.59,3.91-1.78c0.45-0.66,0.67-2.21,0.67-4.67v-27.83c0-2.71-0.3-4.39-0.89-5.05c-0.83-0.93-2.05-1.4-3.69-1.4h-1.62
		v-1.18h15.69c4.53,0,7.9,0.34,10.1,1.02c1.08,0.32,2.09,0.79,3.03,1.43c0.94,0.63,1.77,1.39,2.48,2.26
		c0.71,0.87,1.27,1.84,1.68,2.92c0.41,1.08,0.62,2.23,0.62,3.46c0,1.33-0.21,2.58-0.64,3.73c-0.42,1.15-1.07,2.21-1.95,3.16
		c-0.88,0.95-1.99,1.78-3.32,2.48c-1.33,0.7-2.9,1.25-4.7,1.65l8.89,12.36c2.05,2.86,3.8,4.74,5.24,5.65
		c1.48,0.93,3.39,1.52,5.72,1.78V171.61z M214.03,149.47c0.4,0,0.75,0.01,1.05,0.02c0.3,0.01,0.54,0.02,0.73,0.02
		c2.05,0,3.86-0.24,5.42-0.71c1.56-0.48,2.85-1.14,3.89-1.99c1.04-0.85,1.82-1.85,2.34-3c0.52-1.15,0.78-2.41,0.78-3.77
		c0-1.33-0.22-2.56-0.67-3.67c-0.45-1.11-1.08-2.07-1.89-2.88c-0.82-0.8-1.79-1.43-2.92-1.87c-1.13-0.44-2.38-0.67-3.73-0.67
		c-0.61,0-1.33,0.05-2.16,0.14c-0.83,0.1-1.77,0.25-2.83,0.46V149.47z"/>
        <path style="clip-path:url(#SVGID_00000016793629306424844220000017483303791828587956_);fill:#D80F16;" d="M257.64,130.88v17.03
		h9.47c1.38,0,2.49-0.12,3.35-0.36c0.86-0.24,1.53-0.62,2.02-1.14c0.49-0.52,0.83-1.17,1.02-1.95c0.19-0.78,0.32-1.71,0.38-2.8h1.18
		v14.99h-1.18c-0.15-1.06-0.3-1.92-0.44-2.59c-0.15-0.67-0.3-1.15-0.45-1.45c-0.19-0.38-0.43-0.71-0.73-1
		c-0.3-0.29-0.68-0.54-1.14-0.75c-0.47-0.21-1.03-0.37-1.68-0.48c-0.66-0.11-1.43-0.16-2.32-0.16h-9.47v14.2
		c0,1.88,0.08,3.05,0.25,3.49c0.08,0.19,0.19,0.37,0.32,0.54c0.13,0.17,0.31,0.31,0.56,0.43c0.24,0.12,0.56,0.21,0.95,0.27
		c0.39,0.06,0.88,0.1,1.48,0.1h7.31c1.25,0,2.29-0.04,3.13-0.11c0.84-0.07,1.57-0.2,2.19-0.38s1.18-0.43,1.65-0.76
		c0.48-0.33,0.98-0.75,1.51-1.25c0.66-0.64,1.32-1.45,2-2.45c0.68-1,1.36-2.16,2.03-3.49h1.27l-3.72,10.8h-33.2v-1.18h1.52
		c0.4,0,0.83-0.04,1.27-0.13c0.44-0.08,0.86-0.22,1.25-0.41c0.39-0.19,0.75-0.43,1.07-0.71c0.32-0.29,0.54-0.62,0.67-1
		c0.25-0.66,0.38-2.04,0.38-4.16v-27.99c0-2.71-0.28-4.39-0.83-5.05c-0.76-0.85-2.03-1.27-3.81-1.27h-1.52v-1.18h33.2v9.43h-0.76
		c-0.23-1.14-0.47-2.09-0.7-2.83s-0.5-1.36-0.79-1.84c-0.3-0.49-0.64-0.87-1.02-1.16c-0.38-0.29-0.84-0.54-1.37-0.78
		c-0.87-0.32-2.36-0.48-4.48-0.48H257.64z"/>
        <path style="clip-path:url(#SVGID_00000016793629306424844220000017483303791828587956_);fill:#D80F16;" d="M321.21,128.53
		L292.9,169h17.66c2.71,0,4.79-0.59,6.23-1.78c1.46-1.19,2.75-3.59,3.88-7.21l1.05,0.19l-2.03,11.4h-35.07v-1.18l27.64-39.33h-13.79
		c-1.14,0-2.11,0.06-2.91,0.19c-0.79,0.13-1.48,0.31-2.05,0.56c-0.57,0.24-1.04,0.55-1.41,0.9c-0.37,0.36-0.69,0.78-0.97,1.27
		c-0.53,0.89-1.02,2.65-1.46,5.27h-1.21l0.89-10.77H321.21z"/>
        <path style="clip-path:url(#SVGID_00000016793629306424844220000017483303791828587956_);" d="M191.51,218.89h-16.68l-2.92,6.8
		c-0.72,1.65-1.08,2.9-1.08,3.75c0,0.34,0.06,0.65,0.17,0.94c0.12,0.29,0.35,0.55,0.72,0.79c0.36,0.24,0.87,0.45,1.52,0.6
		c0.66,0.16,1.51,0.28,2.57,0.36v1.18h-13.57v-1.18c1.78-0.32,2.94-0.73,3.49-1.24c0.55-0.51,1.12-1.28,1.7-2.3
		c0.58-1.03,1.21-2.32,1.89-3.89l15.15-35.45h1.11l14.99,35.83c0.61,1.48,1.18,2.67,1.7,3.57c0.52,0.9,1.05,1.6,1.6,2.1
		c0.55,0.5,1.15,0.84,1.8,1.03c0.65,0.19,1.41,0.31,2.3,0.35v1.18H191v-1.18c0.85-0.04,1.56-0.14,2.13-0.29
		c0.57-0.15,1.02-0.34,1.35-0.57c0.33-0.23,0.56-0.5,0.7-0.8c0.14-0.3,0.21-0.62,0.21-0.98c0.02-0.46-0.08-1.06-0.3-1.79
		c-0.22-0.73-0.54-1.6-0.97-2.62L191.51,218.89z M190.62,216.54l-7.31-17.41l-7.5,17.41H190.62z"/>
        <path style="clip-path:url(#SVGID_00000016793629306424844220000017483303791828587956_);" d="M252.69,233.31h-11.5l-14.58-20.14
		c-0.55,0.02-1.04,0.04-1.48,0.05c-0.43,0.01-0.82,0.02-1.16,0.02c-0.27,0-0.57,0-0.89-0.02c-0.32-0.01-0.65-0.03-0.98-0.05v12.52
		c0,2.71,0.3,4.39,0.89,5.05c0.8,0.93,2.01,1.4,3.62,1.4h1.68v1.18h-18.46v-1.18h1.62c1.8,0,3.1-0.59,3.91-1.78
		c0.44-0.66,0.67-2.21,0.67-4.67v-27.83c0-2.71-0.3-4.39-0.89-5.05c-0.83-0.93-2.05-1.4-3.69-1.4h-1.62v-1.18h15.69
		c4.53,0,7.9,0.34,10.1,1.02c1.08,0.32,2.09,0.79,3.03,1.43c0.94,0.63,1.77,1.39,2.48,2.26c0.71,0.87,1.27,1.84,1.68,2.92
		c0.41,1.08,0.62,2.23,0.62,3.46c0,1.33-0.21,2.58-0.64,3.73c-0.42,1.15-1.07,2.21-1.95,3.16s-1.99,1.78-3.32,2.48
		c-1.33,0.7-2.9,1.25-4.7,1.65l8.89,12.36c2.05,2.86,3.8,4.74,5.24,5.65c1.48,0.93,3.39,1.52,5.72,1.78V233.31z M222.1,211.17
		c0.4,0,0.75,0.01,1.05,0.02c0.3,0.01,0.54,0.02,0.73,0.02c2.05,0,3.86-0.24,5.42-0.71c1.56-0.48,2.85-1.14,3.89-1.99
		c1.04-0.85,1.82-1.85,2.34-3c0.52-1.15,0.78-2.41,0.78-3.76c0-1.33-0.22-2.56-0.67-3.67c-0.45-1.11-1.08-2.07-1.89-2.88
		c-0.82-0.8-1.79-1.43-2.92-1.87c-1.13-0.44-2.38-0.67-3.73-0.67c-0.61,0-1.33,0.05-2.16,0.14c-0.83,0.1-1.77,0.25-2.83,0.46V211.17
		z"/>
        <path style="clip-path:url(#SVGID_00000016793629306424844220000017483303791828587956_);" d="M281.88,218.89H265.2l-2.92,6.8
		c-0.72,1.65-1.08,2.9-1.08,3.75c0,0.34,0.06,0.65,0.17,0.94c0.12,0.29,0.35,0.55,0.72,0.79c0.36,0.24,0.87,0.45,1.52,0.6
		c0.66,0.16,1.51,0.28,2.57,0.36v1.18h-13.57v-1.18c1.78-0.32,2.94-0.73,3.5-1.24c0.55-0.51,1.12-1.28,1.7-2.3
		c0.58-1.03,1.21-2.32,1.89-3.89l15.15-35.45h1.11l14.99,35.83c0.61,1.48,1.18,2.67,1.7,3.57c0.52,0.9,1.05,1.6,1.61,2.1
		c0.55,0.5,1.15,0.84,1.79,1.03c0.65,0.19,1.41,0.31,2.3,0.35v1.18h-16.99v-1.18c0.85-0.04,1.56-0.14,2.13-0.29
		c0.57-0.15,1.02-0.34,1.35-0.57c0.33-0.23,0.56-0.5,0.7-0.8c0.14-0.3,0.21-0.62,0.21-0.98c0.02-0.46-0.08-1.06-0.3-1.79
		c-0.22-0.73-0.55-1.6-0.97-2.62L281.88,218.89z M280.99,216.54l-7.31-17.41l-7.5,17.41H280.99z"/>
        <path style="clip-path:url(#SVGID_00000016793629306424844220000017483303791828587956_);" d="M328.79,211.11l0.49,7.36h-0.49
		c-0.33-1.1-0.73-2.04-1.21-2.82c-0.47-0.79-1.01-1.43-1.62-1.93c-0.61-0.5-1.28-0.87-2.01-1.1c-0.73-0.23-1.53-0.35-2.39-0.35
		c-1.45,0-2.73,0.35-3.85,1.06c-1.12,0.71-2,1.79-2.66,3.26c-0.36,0.81-0.64,1.73-0.83,2.75c-0.19,1.03-0.29,2.18-0.29,3.45
		c0,1.95,0.31,3.64,0.94,5.09c0.32,0.73,0.72,1.38,1.2,1.93c0.48,0.55,1.03,1.02,1.65,1.39c0.62,0.37,1.29,0.65,2.02,0.85
		c0.73,0.19,1.49,0.29,2.27,0.29c0.89,0,1.67-0.09,2.31-0.27c0.65-0.18,1.24-0.46,1.77-0.83c0.53-0.37,1.05-0.84,1.54-1.4
		c0.49-0.56,1.04-1.22,1.64-1.98l0.49,0.32c-0.54,0.96-1.13,1.79-1.76,2.49c-0.63,0.7-1.31,1.28-2.04,1.74
		c-0.73,0.46-1.53,0.8-2.39,1.01c-0.86,0.22-1.78,0.33-2.77,0.33c-3.6,0-6.37-1.33-8.33-3.99c-1.47-1.98-2.2-4.31-2.2-6.99
		c0-1.29,0.18-2.53,0.53-3.74c0.35-1.21,0.89-2.32,1.63-3.34c0.51-0.72,1.09-1.37,1.75-1.94c0.65-0.57,1.36-1.05,2.12-1.44
		c0.76-0.39,1.56-0.68,2.4-0.89c0.84-0.2,1.7-0.3,2.58-0.3c1.56,0,3.11,0.38,4.63,1.15c0.47,0.24,0.79,0.36,0.96,0.35
		c0.34,0,0.62-0.14,0.85-0.42c0.23-0.28,0.39-0.64,0.49-1.08H328.79z"/>
        <path style="clip-path:url(#SVGID_00000016793629306424844220000017483303791828587956_);" d="M340.99,232.65v0.59h-9.27v-0.59
		h0.77c0.9,0,1.55-0.26,1.95-0.78c0.26-0.33,0.38-1.15,0.38-2.46v-13.98c0-0.51-0.01-0.93-0.03-1.24c-0.02-0.32-0.06-0.58-0.12-0.79
		c-0.06-0.21-0.14-0.37-0.26-0.49c-0.11-0.12-0.26-0.23-0.45-0.33c-0.47-0.26-0.96-0.38-1.47-0.38h-0.77v-0.59h9.27v0.59h-0.78
		c-0.89,0-1.54,0.26-1.93,0.78c-0.27,0.33-0.4,1.15-0.4,2.46v13.98c0,0.51,0.01,0.93,0.03,1.24c0.02,0.32,0.06,0.58,0.12,0.78
		c0.06,0.2,0.15,0.36,0.26,0.49s0.27,0.24,0.46,0.34c0.46,0.26,0.94,0.38,1.45,0.38H340.99z"/>
        <path style="clip-path:url(#SVGID_00000016793629306424844220000017483303791828587956_);" d="M356.74,226h-8.38l-1.47,3.41
		c-0.36,0.83-0.54,1.46-0.54,1.88c0,0.17,0.03,0.33,0.09,0.47c0.06,0.14,0.18,0.28,0.36,0.4c0.18,0.12,0.44,0.22,0.77,0.3
		c0.33,0.08,0.76,0.14,1.29,0.18v0.59h-6.81v-0.59c0.89-0.16,1.48-0.37,1.76-0.62c0.28-0.26,0.56-0.64,0.85-1.16
		c0.29-0.52,0.61-1.17,0.95-1.96l7.61-17.8h0.56l7.53,18c0.31,0.74,0.59,1.34,0.85,1.79c0.26,0.45,0.53,0.8,0.81,1.05
		c0.28,0.25,0.58,0.42,0.9,0.52c0.33,0.1,0.71,0.15,1.16,0.18v0.59h-8.54v-0.59c0.43-0.02,0.78-0.07,1.07-0.14
		c0.29-0.07,0.51-0.17,0.68-0.29s0.28-0.25,0.35-0.4c0.07-0.15,0.1-0.31,0.1-0.49c0.01-0.23-0.04-0.54-0.15-0.9
		c-0.11-0.37-0.27-0.81-0.49-1.32L356.74,226z M356.29,224.82l-3.67-8.74l-3.77,8.74H356.29z"/>
        <path style="clip-path:url(#SVGID_00000016793629306424844220000017483303791828587956_);" d="M369.63,230.15
		c0.24,0,0.47,0.05,0.69,0.14c0.21,0.09,0.4,0.22,0.56,0.38c0.16,0.16,0.29,0.35,0.38,0.57c0.1,0.22,0.14,0.45,0.14,0.69
		c0,0.24-0.05,0.47-0.14,0.69c-0.1,0.21-0.22,0.4-0.38,0.56c-0.16,0.16-0.35,0.29-0.56,0.38c-0.21,0.1-0.44,0.14-0.69,0.14
		c-0.25,0-0.47-0.05-0.69-0.14c-0.21-0.1-0.4-0.22-0.56-0.38c-0.16-0.16-0.29-0.35-0.38-0.56c-0.1-0.21-0.14-0.44-0.14-0.69
		c0-0.26,0.05-0.49,0.14-0.7c0.1-0.21,0.22-0.4,0.38-0.56c0.16-0.16,0.35-0.28,0.56-0.38C369.15,230.19,369.38,230.15,369.63,230.15
		"/>
        <path style="clip-path:url(#SVGID_00000016793629306424844220000017483303791828587956_);" d="M76.21,270.57h-1.38l-2.38-6H65.8
		l-2.38,6h-1.25l6.14-15.3h1.78L76.21,270.57z M72.07,263.66l-2.96-7.48l-2.96,7.48H72.07z"/>
        <path style="clip-path:url(#SVGID_00000016793629306424844220000017483303791828587956_);" d="M89.64,267.81
		c0,1.12-0.45,1.95-1.33,2.49c-0.73,0.42-1.68,0.64-2.87,0.64c-1.13,0-2.21-0.21-3.25-0.64v-1.14c1.04,0.55,2.14,0.82,3.29,0.82
		c1.99,0,2.98-0.65,2.98-1.96c0-0.55-0.24-1-0.73-1.37c-0.34-0.24-1.04-0.56-2.11-0.95c-1.07-0.39-1.82-0.75-2.25-1.08
		c-0.7-0.52-1.05-1.17-1.05-1.96c0-0.97,0.44-1.7,1.33-2.17c0.7-0.36,1.56-0.55,2.6-0.55c0.96,0,1.85,0.16,2.65,0.48v1
		c-0.9-0.35-1.8-0.52-2.69-0.52c-1.76,0-2.65,0.53-2.65,1.6c0,0.67,0.53,1.23,1.58,1.69c0.98,0.41,1.96,0.82,2.93,1.23
		C89.13,266.03,89.64,266.82,89.64,267.81"/>
        <path style="clip-path:url(#SVGID_00000016793629306424844220000017483303791828587956_);" d="M105.88,265.1h-8.7
		c0.03,1.58,0.51,2.78,1.45,3.6c0.87,0.81,2.09,1.21,3.65,1.21c1.16,0,2.25-0.21,3.27-0.64l-0.6,1.28
		c-0.93,0.27-1.96,0.41-3.07,0.41c-1.74,0-3.15-0.49-4.25-1.48c-1.16-1.03-1.74-2.42-1.74-4.17c0-1.57,0.48-2.85,1.45-3.85
		c0.96-1,2.21-1.5,3.74-1.5c1.51,0,2.7,0.48,3.56,1.44C105.45,262.29,105.86,263.53,105.88,265.1 M104.54,264.19
		c-0.06-1.03-0.41-1.84-1.05-2.42c-0.64-0.58-1.46-0.87-2.47-0.87s-1.85,0.29-2.51,0.88c-0.67,0.59-1.08,1.39-1.24,2.4H104.54z"/>
        <path style="clip-path:url(#SVGID_00000016793629306424844220000017483303791828587956_);" d="M119.63,267.81
		c0,1.12-0.45,1.95-1.33,2.49c-0.73,0.42-1.68,0.64-2.87,0.64c-1.13,0-2.21-0.21-3.25-0.64v-1.14c1.04,0.55,2.14,0.82,3.29,0.82
		c1.99,0,2.98-0.65,2.98-1.96c0-0.55-0.24-1-0.73-1.37c-0.34-0.24-1.04-0.56-2.11-0.95c-1.07-0.39-1.82-0.75-2.25-1.08
		c-0.7-0.52-1.05-1.17-1.05-1.96c0-0.97,0.44-1.7,1.33-2.17c0.7-0.36,1.56-0.55,2.6-0.55c0.96,0,1.85,0.16,2.65,0.48v1
		c-0.9-0.35-1.8-0.52-2.69-0.52c-1.76,0-2.65,0.53-2.65,1.6c0,0.67,0.53,1.23,1.58,1.69c0.98,0.41,1.96,0.82,2.93,1.23
		C119.11,266.03,119.63,266.82,119.63,267.81"/>
        <path style="clip-path:url(#SVGID_00000016793629306424844220000017483303791828587956_);" d="M137.19,265.44
		c0,1.63-0.54,2.95-1.62,3.97c-1.08,1.02-2.42,1.53-4.03,1.53s-2.95-0.51-4.04-1.53c-1.09-1.02-1.63-2.34-1.63-3.97
		c0-1.63,0.54-2.95,1.63-3.97c1.09-1.02,2.44-1.53,4.04-1.53s2.94,0.51,4.03,1.53S137.19,263.81,137.19,265.44 M135.93,265.44
		c0-1.31-0.41-2.39-1.24-3.25c-0.82-0.86-1.87-1.29-3.15-1.29c-1.27,0-2.33,0.43-3.16,1.29c-0.83,0.86-1.25,1.94-1.25,3.25
		c0,1.31,0.42,2.39,1.25,3.25c0.83,0.86,1.88,1.29,3.16,1.29c1.28,0,2.32-0.43,3.15-1.29C135.51,267.83,135.93,266.75,135.93,265.44
		"/>
        <path style="clip-path:url(#SVGID_00000016793629306424844220000017483303791828587956_);" d="M149.4,261.11
		c-0.22-0.03-0.43-0.05-0.62-0.05c-2.24,0-3.36,1.48-3.36,4.45v5.06h-1.2v-10.28h1.2v1.76c0.62-1.28,1.69-1.92,3.2-1.92
		c0.27,0,0.53,0.02,0.78,0.07V261.11z"/>
        <path style="clip-path:url(#SVGID_00000016793629306424844220000017483303791828587956_);" d="M164.75,265.1h-8.7
		c0.03,1.58,0.51,2.78,1.45,3.6c0.88,0.81,2.09,1.21,3.65,1.21c1.16,0,2.25-0.21,3.27-0.64l-0.6,1.28
		c-0.93,0.27-1.96,0.41-3.07,0.41c-1.74,0-3.15-0.49-4.25-1.48c-1.16-1.03-1.73-2.42-1.73-4.17c0-1.57,0.48-2.85,1.44-3.85
		c0.96-1,2.21-1.5,3.74-1.5c1.51,0,2.7,0.48,3.56,1.44C164.32,262.29,164.74,263.53,164.75,265.1 M163.42,264.19
		c-0.06-1.03-0.41-1.84-1.05-2.42c-0.64-0.58-1.46-0.87-2.47-0.87s-1.85,0.29-2.51,0.88c-0.67,0.59-1.08,1.39-1.24,2.4H163.42z"/>
        <path style="clip-path:url(#SVGID_00000016793629306424844220000017483303791828587956_);" d="M178.49,267.81
		c0,1.12-0.45,1.95-1.34,2.49c-0.73,0.42-1.68,0.64-2.87,0.64c-1.13,0-2.21-0.21-3.25-0.64v-1.14c1.04,0.55,2.14,0.82,3.29,0.82
		c1.99,0,2.98-0.65,2.98-1.96c0-0.55-0.24-1-0.73-1.37c-0.34-0.24-1.05-0.56-2.11-0.95c-1.07-0.39-1.82-0.75-2.25-1.08
		c-0.7-0.52-1.05-1.17-1.05-1.96c0-0.97,0.45-1.7,1.33-2.17c0.7-0.36,1.56-0.55,2.6-0.55c0.96,0,1.85,0.16,2.65,0.48v1
		c-0.9-0.35-1.8-0.52-2.69-0.52c-1.76,0-2.65,0.53-2.65,1.6c0,0.67,0.53,1.23,1.58,1.69c0.98,0.41,1.96,0.82,2.93,1.23
		C177.97,266.03,178.49,266.82,178.49,267.81"/>
        <path style="clip-path:url(#SVGID_00000016793629306424844220000017483303791828587956_);" d="M208.53,270.57h-1.18v-4.97
		c0-1.51-0.26-2.61-0.78-3.33c-0.68-0.93-1.68-1.39-2.98-1.39c-1.23,0-2.24,0.44-3.02,1.32c-0.79,0.88-1.18,1.96-1.18,3.24
		c0,1.41,0.4,2.52,1.2,3.32c0.8,0.8,1.9,1.2,3.29,1.2c0.74,0,1.52-0.14,2.33-0.41l-0.42,1.05c-0.61,0.2-1.36,0.3-2.27,0.3
		c-1.62,0-2.92-0.48-3.91-1.45c-0.99-0.96-1.49-2.27-1.49-3.93c0-1.6,0.5-2.92,1.51-3.98c1.01-1.06,2.3-1.59,3.87-1.59
		c1.93,0,3.21,0.67,3.85,2.01v-6.66h1.18V270.57z"/>
        <path style="clip-path:url(#SVGID_00000016793629306424844220000017483303791828587956_);" d="M225.36,265.1h-8.7
		c0.03,1.58,0.51,2.78,1.45,3.6c0.88,0.81,2.09,1.21,3.65,1.21c1.16,0,2.25-0.21,3.27-0.64l-0.6,1.28
		c-0.93,0.27-1.96,0.41-3.07,0.41c-1.73,0-3.15-0.49-4.25-1.48c-1.16-1.03-1.73-2.42-1.73-4.17c0-1.57,0.48-2.85,1.44-3.85
		c0.96-1,2.21-1.5,3.74-1.5c1.51,0,2.7,0.48,3.56,1.44C224.93,262.3,225.34,263.54,225.36,265.1 M224.02,264.19
		c-0.06-1.03-0.41-1.84-1.05-2.42c-0.64-0.58-1.46-0.87-2.47-0.87s-1.85,0.29-2.51,0.88c-0.67,0.59-1.08,1.39-1.24,2.4H224.02z"/>
        <path style="clip-path:url(#SVGID_00000016793629306424844220000017483303791828587956_);" d="M252.13,266.51
		c0,1.52-0.57,2.67-1.71,3.44c-0.98,0.67-2.25,1-3.83,1c-1.51,0-2.82-0.25-3.91-0.75l-0.2-1.34c1.35,0.73,2.75,1.09,4.2,1.09
		c1.07,0,1.99-0.24,2.76-0.71c0.92-0.56,1.38-1.36,1.38-2.39c0-1.06-0.72-2.01-2.16-2.83c-1.33-0.7-2.68-1.39-4.03-2.08
		c-1.44-0.91-2.16-2-2.16-3.26c0-1.31,0.59-2.3,1.78-2.99c0.96-0.56,2.14-0.84,3.51-0.84c1.2,0,2.27,0.21,3.2,0.62v1.18
		c-1.08-0.52-2.16-0.77-3.22-0.77c-1.02,0-1.89,0.19-2.6,0.57c-0.89,0.49-1.33,1.2-1.33,2.14c0,0.56,0.22,1.07,0.67,1.53
		c0.28,0.26,0.76,0.58,1.42,0.96c0.4,0.23,1.07,0.58,2,1.05c1.29,0.65,2.21,1.2,2.76,1.64C251.64,264.6,252.13,265.51,252.13,266.51
		"/>
        <path style="clip-path:url(#SVGID_00000016793629306424844220000017483303791828587956_);" d="M268.44,265.1h-8.7
		c0.03,1.58,0.51,2.78,1.45,3.6c0.88,0.81,2.09,1.21,3.65,1.21c1.16,0,2.25-0.21,3.27-0.64l-0.6,1.28
		c-0.93,0.27-1.96,0.41-3.07,0.41c-1.74,0-3.15-0.49-4.25-1.48c-1.16-1.03-1.73-2.42-1.73-4.17c0-1.57,0.48-2.85,1.44-3.85
		c0.96-1,2.21-1.5,3.74-1.5c1.51,0,2.7,0.48,3.56,1.44C268.01,262.29,268.43,263.53,268.44,265.1 M267.11,264.19
		c-0.06-1.03-0.41-1.84-1.05-2.42c-0.64-0.58-1.46-0.87-2.47-0.87s-1.85,0.29-2.51,0.88c-0.67,0.59-1.08,1.39-1.24,2.4H267.11z"/>
        <path style="clip-path:url(#SVGID_00000016793629306424844220000017483303791828587956_);" d="M285.44,261.25l-2.91-0.11
		c0.79,0.65,1.18,1.52,1.18,2.6c0,1.16-0.44,2.08-1.31,2.78c-0.8,0.65-1.78,0.98-2.94,0.98h-0.42c-1.2-0.02-1.8,0.27-1.8,0.87
		c0,0.46,0.65,0.74,1.96,0.84c0.48,0.03,1.19,0.09,2.14,0.18c2.52,0.3,3.78,1.38,3.78,3.21c0,0.94-0.43,1.78-1.29,2.51
		c-1.02,0.88-2.59,1.32-4.69,1.32c-1.28,0-2.4-0.2-3.36-0.62c-1.32-0.53-1.98-1.35-1.98-2.46c0-0.55,0.19-0.99,0.57-1.32
		c0.38-0.33,0.84-0.5,1.39-0.5c0.27,0,0.51,0.04,0.73,0.11c-0.96,0.2-1.45,0.71-1.45,1.55c0,1.46,1.47,2.19,4.4,2.19
		c1.08,0,2.03-0.18,2.85-0.55c1.08-0.47,1.62-1.19,1.62-2.17c0-1.25-0.98-1.98-2.94-2.21c-0.62-0.05-1.55-0.12-2.78-0.23
		c-1.56-0.17-2.33-0.71-2.33-1.64c0-0.74,0.54-1.22,1.62-1.41c-0.76-0.29-1.36-0.73-1.8-1.33c-0.44-0.6-0.67-1.3-0.67-2.11
		c0-1.18,0.45-2.13,1.34-2.83c0.82-0.62,1.82-0.93,3-0.93c0.7,0,1.33,0.11,1.89,0.32h4.2V261.25z M282.5,263.73
		c0-0.91-0.3-1.64-0.9-2.18c-0.6-0.54-1.35-0.81-2.26-0.81c-0.89,0-1.64,0.27-2.23,0.81c-0.6,0.54-0.9,1.26-0.9,2.18
		c0,0.9,0.3,1.62,0.9,2.16c0.6,0.54,1.35,0.81,2.23,0.81c0.9,0,1.66-0.27,2.26-0.81C282.2,265.35,282.5,264.63,282.5,263.73"/>
        <path style="clip-path:url(#SVGID_00000016793629306424844220000017483303791828587956_);" d="M299.56,266.47
		c0,1.46-0.4,2.57-1.21,3.32c-0.81,0.75-1.92,1.13-3.35,1.13c-1.44,0-2.56-0.38-3.36-1.13c-0.8-0.75-1.2-1.86-1.2-3.32v-6.18h1.2
		v6.38c0,1.03,0.3,1.84,0.91,2.42c0.61,0.58,1.42,0.87,2.45,0.87c1.02,0,1.84-0.29,2.45-0.87c0.61-0.58,0.91-1.38,0.91-2.42v-6.38
		h1.2V266.47z"/>
        <path style="clip-path:url(#SVGID_00000016793629306424844220000017483303791828587956_);" d="M312.09,261.11
		c-0.22-0.03-0.43-0.05-0.62-0.05c-2.24,0-3.36,1.48-3.36,4.45v5.06h-1.2v-10.28h1.2v1.76c0.62-1.28,1.69-1.92,3.2-1.92
		c0.27,0,0.53,0.02,0.78,0.07V261.11z"/>
        <path style="clip-path:url(#SVGID_00000016793629306424844220000017483303791828587956_);" d="M328.19,265.44
		c0,1.63-0.54,2.95-1.62,3.97c-1.08,1.02-2.42,1.53-4.02,1.53c-1.6,0-2.95-0.51-4.04-1.53c-1.09-1.02-1.63-2.34-1.63-3.97
		c0-1.63,0.54-2.95,1.63-3.97c1.09-1.02,2.43-1.53,4.04-1.53c1.6,0,2.94,0.51,4.02,1.53S328.19,263.81,328.19,265.44 M326.93,265.44
		c0-1.31-0.41-2.39-1.23-3.25c-0.82-0.86-1.87-1.29-3.15-1.29s-2.33,0.43-3.16,1.29c-0.83,0.86-1.25,1.94-1.25,3.25
		c0,1.31,0.42,2.39,1.25,3.25c0.83,0.86,1.88,1.29,3.16,1.29s2.32-0.43,3.15-1.29C326.51,267.83,326.93,266.75,326.93,265.44"/>
        <path style="clip-path:url(#SVGID_00000016793629306424844220000017483303791828587956_);" d="M342.05,267.81
		c0,1.12-0.45,1.95-1.34,2.49c-0.73,0.42-1.68,0.64-2.87,0.64c-1.13,0-2.21-0.21-3.25-0.64v-1.14c1.04,0.55,2.14,0.82,3.29,0.82
		c1.99,0,2.98-0.65,2.98-1.96c0-0.55-0.24-1-0.73-1.37c-0.34-0.24-1.05-0.56-2.11-0.95c-1.07-0.39-1.82-0.75-2.25-1.08
		c-0.7-0.52-1.05-1.17-1.05-1.96c0-0.97,0.45-1.7,1.33-2.17c0.7-0.36,1.56-0.55,2.6-0.55c0.96,0,1.85,0.16,2.65,0.48v1
		c-0.9-0.35-1.8-0.52-2.69-0.52c-1.76,0-2.65,0.53-2.65,1.6c0,0.67,0.53,1.23,1.58,1.69c0.98,0.41,1.96,0.82,2.93,1.23
		C341.53,266.03,342.05,266.82,342.05,267.81"/>
        <path style="clip-path:url(#SVGID_00000016793629306424844220000017483303791828587956_);fill:#E30613;" d="M69.94,331.31
		c-0.21-0.32-0.32-0.75-0.32-1.3c0-0.34,0.03-0.67,0.1-1c0.06-0.33,0.13-0.64,0.19-0.94c0.32-1.42,0.63-2.84,0.94-4.25
		c0.31-1.41,0.61-2.82,0.91-4.22c0.17-0.83,0.34-1.65,0.51-2.48c0.17-0.83,0.34-1.66,0.51-2.48c0.04-0.3,0.12-0.57,0.24-0.81
		c0.12-0.24,0.35-0.37,0.72-0.37c0.23,0,0.37,0.12,0.41,0.35c0.04,0.23,0.06,0.44,0.06,0.61c0,0.06,0,0.13-0.01,0.21
		c-0.01,0.07-0.02,0.15-0.02,0.24c-0.04,0.55-0.08,1.1-0.11,1.64c-0.03,0.54-0.07,1.09-0.11,1.64c-0.08,1.21-0.16,2.4-0.22,3.58
		c-0.06,1.18-0.15,2.37-0.26,3.58c-0.04,0.64-0.09,1.36-0.14,2.17c-0.05,0.81-0.14,1.52-0.27,2.13c-0.06,0.26-0.13,0.52-0.21,0.78
		c-0.07,0.27-0.18,0.5-0.32,0.72c-0.14,0.21-0.32,0.38-0.54,0.51c-0.22,0.13-0.49,0.19-0.81,0.19
		C70.56,331.78,70.15,331.63,69.94,331.31 M75.09,307.4c0.25,0.23,0.38,0.54,0.38,0.92c0,0.34-0.08,0.7-0.24,1.07
		c-0.16,0.37-0.45,0.56-0.88,0.56c-0.34,0-0.65-0.12-0.94-0.37c-0.29-0.24-0.43-0.55-0.43-0.91c0-0.42,0.07-0.8,0.21-1.13
		c0.14-0.33,0.46-0.49,0.97-0.49C74.53,307.05,74.84,307.16,75.09,307.4"/>
        <path style="clip-path:url(#SVGID_00000016793629306424844220000017483303791828587956_);fill:#E30613;" d="M92.53,306.6
		c0.22-0.25,0.46-0.5,0.72-0.75c0.26-0.24,0.49-0.48,0.72-0.72c0.22-0.23,0.33-0.48,0.33-0.73c0-0.17-0.06-0.3-0.19-0.38
		s-0.28-0.14-0.45-0.18c-0.17-0.03-0.34-0.05-0.51-0.06c-0.17-0.01-0.31-0.02-0.41-0.02c-0.36,0-0.72,0.01-1.08,0.03
		c-0.36,0.02-0.72,0.06-1.08,0.13c-0.51,0.08-1.07,0.25-1.69,0.49c-0.61,0.24-1.2,0.56-1.75,0.94c-0.55,0.38-1.01,0.82-1.39,1.32
		c-0.37,0.5-0.56,1.04-0.56,1.64c0,0.66,0.22,1.29,0.65,1.91c0.43,0.62,0.98,1.23,1.64,1.85c0.66,0.62,1.37,1.23,2.15,1.85
		c0.77,0.62,1.49,1.26,2.15,1.94c0.66,0.68,1.2,1.39,1.64,2.12c0.43,0.73,0.65,1.51,0.65,2.34c0,0.81-0.2,1.52-0.59,2.13
		c-0.39,0.62-0.91,1.14-1.54,1.56c-0.64,0.42-1.36,0.77-2.17,1.05c-0.81,0.28-1.63,0.49-2.48,0.65s-1.67,0.27-2.45,0.33
		c-0.79,0.06-1.49,0.1-2.1,0.1c-0.55,0-1.12-0.03-1.69-0.1c-0.13-0.02-0.32-0.04-0.59-0.06s-0.53-0.06-0.8-0.11s-0.5-0.14-0.7-0.26
		c-0.2-0.12-0.3-0.28-0.3-0.49c0-0.36,0.1-0.57,0.29-0.62c0.19-0.05,0.43-0.08,0.73-0.08c0.53,0,1.05,0.07,1.56,0.21
		c0.51,0.14,1.03,0.21,1.56,0.21c0.38,0,0.87-0.02,1.46-0.06c0.59-0.04,1.22-0.12,1.88-0.24c0.66-0.12,1.33-0.26,2.01-0.45
		c0.68-0.18,1.28-0.41,1.82-0.7c0.53-0.29,0.97-0.63,1.3-1.02c0.34-0.39,0.51-0.85,0.51-1.38c0-0.59-0.24-1.18-0.72-1.75
		c-0.48-0.57-1.07-1.16-1.77-1.75c-0.7-0.59-1.47-1.2-2.31-1.83c-0.84-0.63-1.61-1.29-2.31-2.01c-0.7-0.71-1.29-1.47-1.77-2.29
		c-0.48-0.82-0.72-1.7-0.72-2.66c0-0.83,0.19-1.55,0.57-2.18c0.38-0.62,0.89-1.16,1.51-1.61c0.63-0.45,1.34-0.81,2.13-1.1
		c0.8-0.29,1.61-0.51,2.44-0.67c0.83-0.16,1.64-0.27,2.45-0.33c0.81-0.06,1.52-0.1,2.13-0.1c0.3,0,0.64,0.02,1.03,0.06
		c0.39,0.04,0.77,0.13,1.13,0.26c0.36,0.13,0.66,0.31,0.91,0.56c0.24,0.24,0.37,0.57,0.37,0.97c0,0.4-0.09,0.79-0.26,1.16
		c-0.17,0.37-0.4,0.7-0.7,0.97c-0.15,0.15-0.35,0.31-0.59,0.48c-0.24,0.17-0.5,0.33-0.76,0.48c-0.27,0.15-0.54,0.27-0.81,0.37
		c-0.28,0.1-0.52,0.14-0.73,0.14c-0.23,0-0.43-0.07-0.59-0.22c-0.16-0.15-0.24-0.34-0.24-0.57C92.19,307.11,92.3,306.86,92.53,306.6
		"/>
        <path style="clip-path:url(#SVGID_00000016793629306424844220000017483303791828587956_);fill:#E30613;" d="M111.28,320.93
		c-0.18,0.26-0.32,0.47-0.43,0.64c-0.3,0.4-0.66,0.87-1.08,1.4c-0.43,0.53-0.89,1.03-1.38,1.5c-0.5,0.47-1.03,0.86-1.59,1.18
		c-0.56,0.32-1.12,0.48-1.67,0.48c-0.53,0-0.96-0.19-1.27-0.56c-0.32-0.37-0.56-0.82-0.73-1.34c-0.17-0.52-0.28-1.06-0.32-1.62
		c-0.04-0.56-0.05-1.03-0.03-1.42c-0.21,0.32-0.48,0.72-0.81,1.19c-0.33,0.48-0.69,0.94-1.1,1.39c-0.4,0.45-0.82,0.83-1.26,1.15
		c-0.43,0.32-0.86,0.48-1.29,0.48c-0.38,0-0.7-0.12-0.95-0.35c-0.26-0.23-0.45-0.52-0.59-0.86c-0.14-0.34-0.23-0.7-0.29-1.08
		c-0.05-0.38-0.08-0.72-0.08-1.02c0-0.83,0.2-1.77,0.6-2.83c0.4-1.06,0.94-2.06,1.61-3.01c0.67-0.95,1.43-1.74,2.29-2.37
		c0.86-0.64,1.76-0.95,2.69-0.95c0.23,0,0.47,0.11,0.7,0.32c0.23,0.21,0.35,0.43,0.35,0.67c0,0.11-0.03,0.19-0.1,0.24
		c-0.06,0.05-0.14,0.1-0.22,0.14c-0.57,0.34-1.12,0.7-1.64,1.07c-0.52,0.37-1.01,0.8-1.48,1.29c-0.83,0.85-1.49,1.8-1.97,2.85
		c-0.49,1.05-0.73,2.18-0.73,3.39c0,0.13,0.02,0.29,0.06,0.48c0.04,0.19,0.16,0.29,0.35,0.29c0.23,0,0.5-0.14,0.8-0.43
		c0.3-0.29,0.61-0.65,0.92-1.08c0.32-0.43,0.63-0.92,0.94-1.46c0.31-0.54,0.6-1.07,0.88-1.58c0.27-0.51,0.51-0.98,0.72-1.42
		c0.2-0.44,0.35-0.76,0.46-0.97c0.11-0.23,0.24-0.45,0.4-0.65c0.16-0.2,0.39-0.3,0.68-0.3c0.17,0,0.34,0.03,0.49,0.1
		s0.24,0.2,0.24,0.41c0,0.23-0.07,0.54-0.22,0.92c-0.15,0.38-0.27,0.69-0.35,0.92c-0.17,0.55-0.29,1.14-0.37,1.77
		c-0.07,0.63-0.11,1.22-0.11,1.77c0,0.17,0.01,0.42,0.02,0.76c0.01,0.34,0.05,0.68,0.11,1.03c0.06,0.35,0.16,0.66,0.3,0.92
		c0.14,0.27,0.33,0.4,0.59,0.4c0.38,0,0.81-0.17,1.27-0.51c0.47-0.34,0.92-0.74,1.37-1.19c0.45-0.46,0.86-0.93,1.24-1.42
		s0.67-0.88,0.86-1.18c0.11-0.17,0.22-0.34,0.35-0.52c0.13-0.18,0.31-0.27,0.54-0.27c0.34,0,0.51,0.2,0.51,0.61
		C111.55,320.45,111.46,320.67,111.28,320.93"/>
        <path style="clip-path:url(#SVGID_00000016793629306424844220000017483303791828587956_);fill:#E30613;" d="M120.34,317.62
		c0,1.23-0.26,2.44-0.78,3.63c-0.52,1.19-1.23,2.22-2.12,3.09c-0.47,0.47-1.02,0.89-1.66,1.26c-0.64,0.37-1.29,0.56-1.97,0.56
		c-0.74,0-1.34-0.22-1.78-0.67c-0.44-0.45-0.78-0.99-1.02-1.62c-0.23-0.64-0.39-1.32-0.46-2.04c-0.07-0.72-0.11-1.35-0.11-1.88
		c0-2.55,0.27-5.07,0.81-7.58c0.54-2.5,1.16-4.98,1.86-7.42c0.23-0.78,0.47-1.57,0.7-2.35c0.23-0.79,0.5-1.56,0.8-2.33
		c0.11-0.25,0.21-0.48,0.3-0.67c0.1-0.19,0.21-0.36,0.33-0.49c0.13-0.14,0.28-0.26,0.46-0.37c0.18-0.11,0.4-0.22,0.65-0.35
		c0.17-0.08,0.35-0.16,0.54-0.22c0.19-0.06,0.38-0.1,0.57-0.1c0.23,0,0.4,0.07,0.51,0.21c0.11,0.14,0.16,0.32,0.16,0.56
		c0,0.21-0.03,0.46-0.1,0.75c-0.06,0.29-0.14,0.57-0.24,0.86c-0.1,0.29-0.2,0.56-0.3,0.83c-0.11,0.27-0.2,0.5-0.29,0.72
		c-0.74,1.91-1.42,3.86-2.04,5.84c-0.62,1.98-1.08,4-1.4,6.03c-0.17,1.02-0.34,2.04-0.51,3.06c-0.17,1.02-0.26,2.04-0.26,3.06
		c0,0.23,0.01,0.62,0.03,1.16c0.02,0.54,0.08,1.08,0.19,1.62c0.11,0.54,0.26,1.02,0.48,1.43c0.21,0.41,0.52,0.62,0.92,0.62
		c0.28,0,0.53-0.08,0.76-0.24c0.23-0.16,0.44-0.32,0.61-0.49c0.32-0.3,0.62-0.67,0.91-1.13c0.29-0.46,0.55-0.94,0.78-1.45
		c0.23-0.51,0.42-1.03,0.56-1.56c0.14-0.53,0.21-1.01,0.21-1.43c0-1.04-0.3-1.77-0.89-2.18c-0.59-0.41-1.37-0.62-2.32-0.62
		c-0.19,0-0.36-0.11-0.51-0.32c-0.15-0.21-0.22-0.4-0.22-0.57c0-0.32,0.13-0.55,0.4-0.68c0.26-0.14,0.54-0.22,0.81-0.24
		c0.32-0.02,0.63-0.03,0.92-0.03c0.32,0,0.64-0.01,0.96-0.03c0.64-0.04,1.27-0.11,1.89-0.19c0.63-0.08,1.26-0.15,1.9-0.19h0.1
		c0.19-0.02,0.37,0.04,0.52,0.18c0.16,0.14,0.24,0.3,0.24,0.49s-0.11,0.36-0.32,0.49c-0.21,0.14-0.46,0.25-0.75,0.33
		c-0.29,0.08-0.58,0.15-0.88,0.19c-0.3,0.04-0.52,0.07-0.67,0.1C120.1,315.91,120.34,316.7,120.34,317.62"/>
        <path style="clip-path:url(#SVGID_00000016793629306424844220000017483303791828587956_);fill:#E30613;" d="M125.08,325.46
		c-0.45-0.24-0.81-0.56-1.1-0.96c-0.29-0.39-0.49-0.85-0.62-1.37c-0.13-0.52-0.19-1.07-0.19-1.64c0-0.72,0.14-1.59,0.41-2.61
		c0.27-1.02,0.67-2,1.18-2.95c0.51-0.94,1.12-1.75,1.83-2.4s1.49-0.99,2.34-0.99c0.57,0,1.01,0.18,1.32,0.54
		c0.31,0.36,0.46,0.82,0.46,1.37c0,0.53-0.16,1.12-0.49,1.77c-0.33,0.65-0.74,1.28-1.24,1.88c-0.5,0.61-1.03,1.14-1.61,1.61
		c-0.57,0.47-1.1,0.79-1.59,0.96c-0.11,0.49-0.16,0.94-0.16,1.34c0,0.72,0.16,1.29,0.48,1.71c0.32,0.42,0.85,0.62,1.59,0.62
		c0.68,0,1.32-0.13,1.91-0.4c0.59-0.27,1.15-0.61,1.65-1.02c0.51-0.41,0.98-0.89,1.4-1.42c0.43-0.53,0.8-1.06,1.12-1.59
		c0.11-0.17,0.23-0.35,0.38-0.54c0.15-0.19,0.34-0.29,0.57-0.29c0.11,0,0.21,0.03,0.3,0.1c0.1,0.06,0.14,0.15,0.14,0.26
		c0,0.21-0.02,0.38-0.06,0.51c-0.04,0.13-0.12,0.28-0.22,0.45c-0.4,0.72-0.9,1.41-1.48,2.07c-0.58,0.66-1.23,1.23-1.93,1.73
		c-0.7,0.5-1.45,0.89-2.26,1.18c-0.81,0.29-1.64,0.44-2.51,0.44C126.07,325.83,125.53,325.71,125.08,325.46 M127.82,314.71
		c-0.32,0.46-0.62,0.99-0.89,1.6c-0.28,0.61-0.51,1.22-0.7,1.83c-0.19,0.61-0.31,1.05-0.35,1.33c0.34-0.21,0.71-0.5,1.11-0.85
		s0.77-0.75,1.11-1.18c0.34-0.44,0.62-0.89,0.86-1.35c0.23-0.46,0.35-0.9,0.35-1.33c0-0.17-0.04-0.34-0.11-0.5
		c-0.07-0.16-0.22-0.24-0.43-0.24C128.46,314.02,128.14,314.25,127.82,314.71"/>
        <path style="clip-path:url(#SVGID_00000016793629306424844220000017483303791828587956_);fill:#E30613;" d="M142.24,324.65
		c-0.15-0.4-0.27-0.92-0.35-1.54c-0.09-0.63-0.15-1.31-0.19-2.05c-0.04-0.74-0.06-1.46-0.06-2.16v-1.85v-1.15
		c0-0.11-0.01-0.24-0.03-0.41c-0.02-0.17-0.12-0.25-0.29-0.25c-0.21,0-0.51,0.2-0.88,0.59s-0.77,0.9-1.21,1.51
		c-0.43,0.62-0.88,1.3-1.34,2.04c-0.46,0.74-0.89,1.46-1.29,2.16c-0.4,0.7-0.75,1.33-1.05,1.88c-0.3,0.55-0.5,0.96-0.6,1.21
		c-0.11,0.23-0.25,0.45-0.43,0.65c-0.18,0.2-0.42,0.3-0.72,0.3c-0.21,0-0.37-0.07-0.48-0.21s-0.16-0.3-0.16-0.49
		c0-0.32,0.05-0.82,0.14-1.5c0.1-0.68,0.21-1.45,0.35-2.31c0.14-0.86,0.3-1.76,0.49-2.69c0.19-0.93,0.38-1.82,0.57-2.66
		c0.19-0.84,0.38-1.58,0.57-2.21c0.19-0.64,0.35-1.08,0.48-1.34c0.23-0.42,0.59-0.74,1.08-0.95c0.49-0.21,0.96-0.32,1.4-0.32
		c0.23,0,0.4,0.07,0.51,0.21c0.11,0.14,0.16,0.32,0.16,0.56c0,0.21-0.04,0.47-0.13,0.76c-0.08,0.3-0.19,0.6-0.32,0.91
		c-0.13,0.31-0.26,0.61-0.38,0.91s-0.23,0.55-0.32,0.76c-0.23,0.57-0.43,1.17-0.57,1.78c-0.15,0.62-0.28,1.23-0.38,1.85
		c0.23-0.34,0.55-0.82,0.96-1.43c0.4-0.62,0.84-1.22,1.32-1.82c0.48-0.59,0.97-1.11,1.48-1.54c0.51-0.43,0.98-0.65,1.4-0.65
		c0.3,0,0.53,0.1,0.7,0.29c0.17,0.19,0.3,0.42,0.4,0.7c0.1,0.28,0.16,0.56,0.19,0.86s0.05,0.55,0.05,0.76
		c0,0.62-0.01,1.23-0.03,1.85c-0.02,0.62-0.03,1.23-0.03,1.85v1.02c0,0.34,0.04,0.67,0.13,0.99c0,0.02,0.01,0.06,0.03,0.13
		c0.02,0.06,0.05,0.1,0.1,0.1c0.06,0,0.14-0.08,0.24-0.24c0.1-0.16,0.16-0.27,0.21-0.33c0.38-0.64,0.79-1.26,1.23-1.86
		c0.43-0.6,0.86-1.21,1.29-1.83c0.25-0.36,0.55-0.79,0.89-1.27c0.34-0.49,0.7-0.95,1.1-1.4c0.39-0.45,0.82-0.83,1.27-1.15
		c0.46-0.32,0.93-0.48,1.42-0.48c0.34,0,0.64,0.08,0.89,0.25c0.26,0.17,0.46,0.38,0.62,0.64s0.28,0.54,0.35,0.84
		c0.07,0.31,0.11,0.61,0.11,0.91c0,1.23-0.08,2.46-0.22,3.68c-0.15,1.22-0.22,2.45-0.22,3.68c0,0.15,0.01,0.32,0.02,0.53
		c0.01,0.2,0.04,0.39,0.09,0.56c0.05,0.17,0.14,0.32,0.26,0.45c0.12,0.13,0.28,0.19,0.49,0.19c0.36,0,0.77-0.14,1.23-0.43
		c0.46-0.29,0.91-0.63,1.35-1.04c0.45-0.4,0.86-0.82,1.24-1.26c0.38-0.43,0.68-0.79,0.89-1.07c0.11-0.15,0.24-0.32,0.41-0.52
		c0.17-0.2,0.36-0.3,0.57-0.3c0.19,0,0.31,0.08,0.37,0.22c0.05,0.15,0.08,0.3,0.08,0.45c0,0.11-0.04,0.22-0.11,0.33
		c-0.08,0.12-0.14,0.22-0.21,0.3c-0.32,0.42-0.74,0.92-1.26,1.5s-1.09,1.12-1.72,1.64c-0.63,0.52-1.26,0.96-1.91,1.32
		c-0.65,0.36-1.25,0.54-1.8,0.54c-0.53,0-0.94-0.15-1.23-0.44c-0.29-0.3-0.5-0.67-0.65-1.12c-0.15-0.44-0.24-0.91-0.27-1.4
		c-0.03-0.49-0.05-0.92-0.05-1.3c0-0.95,0.05-1.91,0.14-2.87c0.09-0.95,0.14-1.92,0.14-2.9c0-0.08-0.01-0.2-0.02-0.35
		c-0.01-0.15-0.03-0.29-0.06-0.43c-0.03-0.14-0.08-0.26-0.16-0.37c-0.08-0.11-0.18-0.16-0.3-0.16c-0.26,0-0.57,0.2-0.96,0.59
		c-0.38,0.39-0.79,0.9-1.23,1.51c-0.44,0.62-0.88,1.3-1.34,2.05c-0.46,0.75-0.89,1.48-1.29,2.18c-0.4,0.7-0.76,1.33-1.07,1.89
		c-0.31,0.56-0.55,0.97-0.72,1.23c-0.11,0.17-0.22,0.31-0.35,0.41c-0.13,0.11-0.3,0.16-0.51,0.16
		C142.57,325.26,142.39,325.06,142.24,324.65"/>
        <path style="clip-path:url(#SVGID_00000016793629306424844220000017483303791828587956_);fill:#E30613;" d="M159.54,319.11
		c0.26-0.98,0.65-1.89,1.16-2.74c0.51-0.85,1.13-1.57,1.86-2.15c0.73-0.58,1.58-0.88,2.53-0.88c0.59,0,1.08,0.14,1.46,0.41
		c0.38,0.28,0.68,0.63,0.91,1.05c0.22,0.43,0.38,0.89,0.48,1.4c0.1,0.51,0.14,1.01,0.14,1.5c0,0.7-0.06,1.41-0.19,2.12
		c-0.13,0.71-0.33,1.4-0.61,2.05c-0.28,0.66-0.63,1.27-1.05,1.85c-0.42,0.57-0.95,1.06-1.56,1.46c-0.36,0.23-0.75,0.43-1.18,0.59
		c-0.42,0.16-0.86,0.24-1.3,0.24c-0.57,0-1.06-0.13-1.45-0.4c-0.39-0.26-0.71-0.6-0.94-1c-0.23-0.4-0.4-0.86-0.51-1.37
		c-0.11-0.51-0.16-1-0.16-1.46C159.15,320.98,159.28,320.09,159.54,319.11 M163.52,316.18c-0.46,0.49-0.84,1.07-1.15,1.75
		c-0.31,0.68-0.54,1.38-0.7,2.1c-0.16,0.72-0.24,1.33-0.24,1.81c0,0.26,0.02,0.54,0.06,0.84c0.04,0.31,0.12,0.59,0.24,0.84
		c0.12,0.25,0.28,0.47,0.49,0.65c0.21,0.18,0.48,0.27,0.8,0.27c0.28,0,0.54-0.06,0.78-0.17c0.24-0.12,0.47-0.26,0.68-0.43
		c0.4-0.32,0.75-0.69,1.04-1.13c0.29-0.44,0.52-0.9,0.7-1.39c0.18-0.49,0.31-0.99,0.4-1.51c0.09-0.52,0.13-1.02,0.13-1.51
		c0-0.26-0.02-0.55-0.06-0.89c-0.04-0.34-0.13-0.65-0.26-0.94c-0.13-0.29-0.3-0.53-0.51-0.73c-0.21-0.2-0.49-0.3-0.83-0.3
		C164.51,315.45,163.98,315.7,163.52,316.18"/>
        <path style="clip-path:url(#SVGID_00000016793629306424844220000017483303791828587956_);fill:#E30613;" d="M175.16,314.97
		c0.25,0.62,0.55,1.23,0.89,1.85c0.34,0.62,0.67,1.24,0.99,1.86c0.32,0.63,0.58,1.27,0.8,1.93s0.32,1.33,0.32,2.01
		c0,0.42-0.06,0.85-0.17,1.27c-0.12,0.43-0.3,0.82-0.56,1.18c0.38,0.02,0.83-0.14,1.34-0.49c0.51-0.35,1.02-0.76,1.53-1.24
		c0.51-0.48,0.98-0.97,1.4-1.46c0.42-0.5,0.73-0.9,0.92-1.19c0.11-0.15,0.23-0.32,0.38-0.52c0.15-0.2,0.33-0.3,0.54-0.3
		c0.19,0,0.32,0.06,0.38,0.19c0.06,0.13,0.1,0.28,0.1,0.45c0,0.11-0.04,0.22-0.11,0.33c-0.08,0.12-0.13,0.23-0.18,0.33
		c-0.59,0.93-1.22,1.77-1.88,2.52c-0.66,0.74-1.37,1.37-2.15,1.88c-0.77,0.51-1.64,0.9-2.58,1.16c-0.95,0.27-1.99,0.4-3.14,0.4
		c-0.62,0-1.28-0.06-1.99-0.19c-0.71-0.13-1.3-0.41-1.77-0.86c-0.11-0.11-0.19-0.21-0.25-0.32c-0.06-0.11-0.1-0.23-0.1-0.38
		c0-0.32,0.17-0.48,0.51-0.48c0.13,0,0.23,0.02,0.3,0.06c0.07,0.04,0.16,0.1,0.27,0.16c0.36,0.23,0.72,0.39,1.08,0.48
		c0.36,0.08,0.75,0.13,1.18,0.13c0.85,0,1.49-0.26,1.93-0.78s0.65-1.18,0.65-1.99c0-0.49-0.07-1.01-0.21-1.56
		c-0.14-0.55-0.31-1.1-0.53-1.66s-0.45-1.09-0.72-1.61c-0.27-0.52-0.52-0.97-0.78-1.35c-0.15,0.42-0.33,0.9-0.56,1.42
		s-0.47,1.03-0.75,1.54c-0.28,0.51-0.57,1-0.88,1.46c-0.31,0.47-0.62,0.86-0.94,1.18c-0.11,0.11-0.23,0.22-0.37,0.33
		s-0.29,0.18-0.46,0.18c-0.3,0-0.45-0.15-0.45-0.45c0-0.17,0.04-0.32,0.11-0.45c0.07-0.13,0.16-0.26,0.27-0.38
		c1.44-1.8,2.53-3.83,3.25-6.08c-0.19-0.55-0.29-1.11-0.29-1.69c0-0.32,0.05-0.69,0.16-1.11c0.11-0.43,0.25-0.83,0.44-1.21
		c0.19-0.38,0.43-0.71,0.73-0.99c0.3-0.28,0.64-0.41,1.02-0.41c0.19,0,0.36,0.06,0.49,0.17c0.14,0.12,0.24,0.27,0.32,0.45
		c0.07,0.18,0.13,0.37,0.16,0.56c0.03,0.19,0.05,0.37,0.05,0.54c0,0.53-0.07,1.07-0.22,1.61
		C175.52,313.97,175.35,314.49,175.16,314.97"/>
        <path style="clip-path:url(#SVGID_00000016793629306424844220000017483303791828587956_);fill:#E30613;" d="M192.9,338.3
		c-0.34-0.2-0.62-0.46-0.83-0.78c-0.21-0.32-0.37-0.68-0.46-1.1c-0.1-0.41-0.14-0.83-0.14-1.26c0-1.06,0.28-2.11,0.84-3.15
		c0.56-1.04,1.26-2.02,2.1-2.95c0.84-0.92,1.74-1.78,2.71-2.56c0.96-0.79,1.86-1.44,2.69-1.97c0.02-0.3,0.03-0.59,0.03-0.89v-0.92
		c0-1.63-0.03-3.28-0.1-4.93c-0.25,0.45-0.68,1.03-1.29,1.77c-0.61,0.73-1.27,1.45-1.99,2.17c-0.72,0.71-1.45,1.33-2.18,1.85
		c-0.73,0.52-1.36,0.78-1.89,0.78c-0.36,0-0.65-0.08-0.88-0.24c-0.22-0.16-0.4-0.36-0.52-0.61c-0.13-0.24-0.21-0.52-0.26-0.83
		c-0.04-0.31-0.06-0.6-0.06-0.88c0-0.96,0.11-1.92,0.33-2.9c0.22-0.98,0.48-1.92,0.78-2.83c0.06-0.21,0.12-0.42,0.18-0.62
		c0.05-0.2,0.13-0.4,0.24-0.59c0.13-0.25,0.29-0.47,0.48-0.64c0.19-0.17,0.43-0.26,0.73-0.26c0.36,0,0.68,0.13,0.96,0.38
		c0.27,0.26,0.41,0.56,0.41,0.92c0,0.28-0.08,0.6-0.26,0.97c-0.17,0.37-0.31,0.68-0.41,0.94c-0.11,0.28-0.24,0.64-0.4,1.08
		c-0.16,0.45-0.31,0.91-0.45,1.4c-0.14,0.49-0.25,0.95-0.35,1.4c-0.1,0.45-0.14,0.82-0.14,1.11c0,0.11,0.01,0.24,0.03,0.41
		c0.02,0.17,0.12,0.26,0.29,0.26c0.13,0,0.3-0.07,0.51-0.22c0.21-0.15,0.43-0.32,0.65-0.51c0.22-0.19,0.43-0.38,0.64-0.57
		c0.2-0.19,0.35-0.33,0.43-0.41c0.87-0.89,1.67-1.83,2.4-2.82c0.73-0.99,1.48-1.97,2.24-2.95c0.15-0.17,0.31-0.36,0.49-0.57
		c0.18-0.21,0.4-0.32,0.65-0.32c0.21,0,0.43,0.07,0.64,0.22c0.13,0.08,0.23,0.3,0.3,0.64c0.08,0.34,0.13,0.7,0.16,1.08
		c0.03,0.38,0.05,0.75,0.05,1.12v0.8c0,1.4-0.03,2.85-0.08,4.35c-0.05,1.5-0.19,2.98-0.41,4.46c-0.22,1.47-0.55,2.91-0.99,4.31
		s-1.05,2.71-1.83,3.92c-0.25,0.4-0.56,0.8-0.91,1.19s-0.73,0.74-1.13,1.04c-0.4,0.3-0.84,0.54-1.31,0.73
		c-0.47,0.19-0.95,0.29-1.46,0.29C193.65,338.6,193.23,338.5,192.9,338.3 M197.45,327.74c-0.79,0.68-1.52,1.42-2.2,2.21
		c-0.68,0.8-1.25,1.64-1.7,2.53c-0.46,0.89-0.68,1.8-0.68,2.74c0,0.19,0.02,0.41,0.05,0.65c0.03,0.24,0.1,0.47,0.19,0.67
		s0.22,0.37,0.38,0.51c0.16,0.14,0.37,0.21,0.62,0.21s0.5-0.06,0.75-0.19c0.24-0.13,0.48-0.29,0.7-0.48s0.43-0.4,0.62-0.62
		s0.36-0.43,0.51-0.62c0.42-0.55,0.8-1.23,1.13-2.02c0.33-0.8,0.62-1.63,0.86-2.5s0.45-1.73,0.62-2.6c0.17-0.86,0.29-1.64,0.35-2.34
		C198.97,326.45,198.23,327.06,197.45,327.74"/>
        <path style="clip-path:url(#SVGID_00000016793629306424844220000017483303791828587956_);fill:#E30613;" d="M219.88,325.9
		c-0.48-0.04-0.96-0.13-1.43-0.26c-0.48-0.13-0.92-0.3-1.32-0.51c-0.4-0.21-0.72-0.49-0.96-0.83c-0.09,0.98-0.19,2.13-0.32,3.45
		c-0.13,1.33-0.28,2.68-0.46,4.04c-0.18,1.37-0.39,2.69-0.64,3.96c-0.24,1.27-0.55,2.33-0.91,3.18c-0.09,0.21-0.2,0.44-0.33,0.68
		s-0.3,0.47-0.49,0.68c-0.19,0.21-0.4,0.39-0.62,0.53c-0.22,0.14-0.47,0.21-0.75,0.21c-0.36,0-0.66-0.12-0.89-0.37
		c-0.23-0.24-0.41-0.54-0.54-0.88c-0.13-0.34-0.21-0.7-0.26-1.08c-0.04-0.38-0.06-0.7-0.06-0.96c0-1.19,0.11-2.47,0.33-3.84
		c0.22-1.37,0.51-2.75,0.86-4.15c0.35-1.4,0.74-2.78,1.16-4.12c0.42-1.35,0.83-2.6,1.21-3.74c0.06-0.19,0.11-0.47,0.13-0.83
		c0.02-0.36,0.04-0.65,0.06-0.86c0.08-0.74,0.16-1.48,0.22-2.23c0.06-0.74,0.14-1.49,0.22-2.23c0.02-0.19,0.04-0.43,0.05-0.72
		c0.01-0.29,0.05-0.56,0.11-0.81c0.06-0.26,0.16-0.48,0.3-0.67c0.14-0.19,0.34-0.29,0.62-0.29c0.21,0,0.42,0.06,0.62,0.19
		c0.2,0.13,0.38,0.29,0.53,0.49c0.15,0.2,0.27,0.41,0.35,0.64s0.13,0.43,0.13,0.62c0,0.36-0.03,0.73-0.08,1.1
		c-0.05,0.37-0.1,0.74-0.14,1.1c0.28-0.38,0.63-0.82,1.05-1.32c0.42-0.5,0.89-0.98,1.38-1.45c0.5-0.47,1.02-0.86,1.56-1.18
		c0.54-0.32,1.07-0.48,1.58-0.48c0.51,0,0.93,0.1,1.27,0.3c0.34,0.2,0.61,0.47,0.8,0.8c0.19,0.33,0.33,0.71,0.41,1.13
		c0.08,0.42,0.13,0.85,0.13,1.27c0,0.57-0.07,1.2-0.21,1.88c-0.14,0.68-0.33,1.35-0.57,2.02c-0.24,0.67-0.54,1.31-0.88,1.91
		c-0.34,0.61-0.72,1.11-1.15,1.51c-0.21,0.21-0.44,0.4-0.68,0.56c-0.24,0.16-0.52,0.26-0.81,0.3c0.32,0.06,0.64,0.1,0.96,0.1
		c0.74,0,1.46-0.14,2.15-0.41c0.69-0.27,1.34-0.64,1.94-1.08c0.61-0.45,1.15-0.96,1.64-1.54c0.49-0.58,0.9-1.18,1.24-1.8
		c0.08-0.13,0.18-0.29,0.29-0.49c0.11-0.2,0.25-0.3,0.45-0.3c0.36,0,0.54,0.19,0.54,0.57c0,0.21-0.03,0.38-0.08,0.49
		c-0.05,0.12-0.13,0.26-0.24,0.43c-0.47,0.76-0.98,1.47-1.54,2.12c-0.56,0.65-1.18,1.21-1.85,1.69c-0.67,0.48-1.4,0.85-2.2,1.11
		c-0.8,0.27-1.66,0.4-2.6,0.4C220.79,325.96,220.36,325.94,219.88,325.9 M212.94,327.82c-0.31,1.14-0.59,2.31-0.84,3.53
		c-0.25,1.22-0.46,2.41-0.61,3.58c-0.15,1.17-0.22,2.16-0.22,2.99v0.32c0,0.17,0.01,0.33,0.05,0.49c0.03,0.16,0.07,0.3,0.11,0.43
		c0.04,0.13,0.12,0.19,0.22,0.19c0.13,0,0.26-0.17,0.38-0.49c0.13-0.33,0.24-0.7,0.33-1.11c0.1-0.41,0.17-0.81,0.24-1.18
		c0.06-0.37,0.11-0.61,0.13-0.72c0.3-1.8,0.54-3.61,0.72-5.43c0.18-1.82,0.32-3.64,0.43-5.46
		C213.56,325.74,213.25,326.69,212.94,327.82 M216.49,323.25c0.19,0,0.39,0.08,0.59,0.22c0.2,0.15,0.52,0.22,0.97,0.22
		c0.64,0,1.24-0.31,1.82-0.92c0.57-0.61,1.07-1.34,1.5-2.18c0.43-0.84,0.76-1.7,1-2.58c0.24-0.88,0.37-1.59,0.37-2.12
		c0-0.32-0.06-0.66-0.18-1.02c-0.12-0.36-0.38-0.54-0.78-0.54c-0.36,0-0.79,0.2-1.29,0.59c-0.5,0.39-0.99,0.85-1.46,1.37
		c-0.48,0.52-0.92,1.06-1.32,1.61c-0.4,0.55-0.69,0.99-0.86,1.31c-0.06,0.11-0.13,0.35-0.19,0.73c-0.06,0.38-0.12,0.8-0.18,1.24
		c-0.05,0.44-0.1,0.88-0.13,1.29c-0.03,0.41-0.06,0.71-0.08,0.88C216.33,323.28,216.4,323.25,216.49,323.25"/>
        <path style="clip-path:url(#SVGID_00000016793629306424844220000017483303791828587956_);fill:#E30613;" d="M228.98,319.11
		c0.26-0.98,0.65-1.89,1.16-2.74c0.51-0.85,1.13-1.57,1.86-2.15c0.73-0.58,1.58-0.88,2.53-0.88c0.59,0,1.08,0.14,1.46,0.41
		c0.38,0.28,0.68,0.63,0.91,1.05c0.22,0.43,0.38,0.89,0.48,1.4c0.1,0.51,0.14,1.01,0.14,1.5c0,0.7-0.06,1.41-0.19,2.12
		c-0.13,0.71-0.33,1.4-0.61,2.05c-0.28,0.66-0.63,1.27-1.05,1.85s-0.95,1.06-1.56,1.46c-0.36,0.23-0.75,0.43-1.18,0.59
		c-0.42,0.16-0.86,0.24-1.3,0.24c-0.57,0-1.06-0.13-1.45-0.4c-0.39-0.26-0.71-0.6-0.94-1c-0.23-0.4-0.4-0.86-0.51-1.37
		c-0.11-0.51-0.16-1-0.16-1.46C228.59,320.98,228.72,320.09,228.98,319.11 M232.96,316.18c-0.46,0.49-0.84,1.07-1.15,1.75
		c-0.31,0.68-0.54,1.38-0.7,2.1c-0.16,0.72-0.24,1.33-0.24,1.81c0,0.26,0.02,0.54,0.06,0.84c0.04,0.31,0.12,0.59,0.24,0.84
		c0.12,0.25,0.28,0.47,0.49,0.65c0.21,0.18,0.48,0.27,0.79,0.27c0.28,0,0.54-0.06,0.78-0.17c0.24-0.12,0.47-0.26,0.68-0.43
		c0.4-0.32,0.75-0.69,1.04-1.13c0.29-0.44,0.52-0.9,0.7-1.39c0.18-0.49,0.31-0.99,0.4-1.51c0.09-0.52,0.13-1.02,0.13-1.51
		c0-0.26-0.02-0.55-0.06-0.89c-0.04-0.34-0.13-0.65-0.26-0.94c-0.13-0.29-0.3-0.53-0.51-0.73c-0.21-0.2-0.49-0.3-0.83-0.3
		C233.94,315.45,233.42,315.7,232.96,316.18"/>
        <path style="clip-path:url(#SVGID_00000016793629306424844220000017483303791828587956_);fill:#E30613;" d="M246.48,322.3
		c-0.47,0.47-0.97,0.91-1.5,1.32c-0.53,0.41-1.07,0.77-1.62,1.07c-0.55,0.3-1.06,0.45-1.53,0.45c-0.34,0-0.63-0.11-0.88-0.32
		c-0.24-0.21-0.44-0.47-0.59-0.78c-0.15-0.31-0.26-0.63-0.33-0.97c-0.07-0.34-0.11-0.65-0.11-0.92c0-1.23,0.27-2.45,0.81-3.65
		c0.54-1.2,1.28-2.2,2.21-3.01c0.36-0.3,0.81-0.58,1.35-0.84c0.54-0.26,1.05-0.4,1.54-0.4c0.66,0,1.2,0.24,1.62,0.73
		c0-0.59,0.04-1.31,0.13-2.13c0.08-0.83,0.22-1.69,0.4-2.6c0.18-0.9,0.39-1.83,0.64-2.77c0.24-0.94,0.53-1.84,0.86-2.67
		c0.33-0.84,0.68-1.61,1.07-2.31c0.38-0.7,0.8-1.25,1.24-1.65c0.23-0.21,0.5-0.42,0.81-0.64c0.31-0.21,0.62-0.32,0.94-0.32
		c0.38,0,0.69,0.13,0.92,0.38c0.23,0.25,0.41,0.56,0.54,0.92c0.13,0.36,0.21,0.74,0.26,1.13c0.04,0.39,0.06,0.73,0.06,1
		c0,1.1-0.18,2.38-0.54,3.82c-0.36,1.44-0.81,2.9-1.35,4.38c-0.54,1.48-1.12,2.9-1.75,4.28c-0.63,1.38-1.19,2.57-1.7,3.57
		c0,0.23,0.01,0.62,0.03,1.16c0.02,0.54,0.07,1.09,0.16,1.65c0.08,0.56,0.22,1.06,0.41,1.48c0.19,0.43,0.45,0.64,0.76,0.64
		c0.47,0,0.94-0.16,1.43-0.48c0.49-0.32,0.95-0.7,1.39-1.16c0.43-0.46,0.84-0.94,1.21-1.45c0.37-0.51,0.66-0.94,0.88-1.3
		c0.11-0.17,0.24-0.38,0.41-0.64c0.17-0.26,0.36-0.38,0.57-0.38c0.19,0,0.31,0.08,0.37,0.22c0.05,0.15,0.08,0.3,0.08,0.45
		c0,0.23-0.07,0.47-0.21,0.7c-0.14,0.23-0.27,0.45-0.4,0.64c-0.34,0.51-0.73,1.06-1.16,1.65c-0.44,0.6-0.92,1.14-1.45,1.64
		c-0.53,0.5-1.1,0.92-1.7,1.26c-0.61,0.34-1.25,0.51-1.93,0.51c-0.55,0-1.01-0.17-1.39-0.52c-0.37-0.35-0.68-0.77-0.94-1.27
		c-0.25-0.5-0.45-1.02-0.59-1.58c-0.14-0.55-0.24-1.04-0.3-1.46C247.33,321.44,246.94,321.83,246.48,322.3 M245.27,317.06
		c-0.68,0.46-1.29,1.02-1.82,1.69c-0.53,0.67-0.95,1.4-1.27,2.18c-0.32,0.79-0.48,1.51-0.48,2.17c0,0.11,0.01,0.24,0.03,0.4
		c0.02,0.16,0.12,0.24,0.29,0.24c0.34,0,0.79-0.19,1.34-0.57c0.55-0.38,1.1-0.83,1.66-1.34c0.55-0.51,1.06-1.02,1.51-1.53
		c0.46-0.51,0.76-0.9,0.91-1.18c-0.04-0.47-0.06-0.92-0.06-1.37v-1.37C246.65,316.38,245.95,316.6,245.27,317.06 M249.79,316.73
		c0.42-0.89,0.88-1.93,1.37-3.12c0.49-1.19,0.94-2.41,1.35-3.66c0.41-1.25,0.76-2.49,1.04-3.73c0.27-1.23,0.41-2.33,0.41-3.31v-0.19
		c0-0.11-0.01-0.21-0.03-0.32c-0.02-0.11-0.05-0.2-0.1-0.27c-0.04-0.07-0.11-0.11-0.19-0.11c-0.11,0-0.2,0.04-0.29,0.13
		c-0.08,0.08-0.16,0.16-0.22,0.22c-0.28,0.32-0.55,0.82-0.83,1.51c-0.28,0.69-0.54,1.48-0.78,2.37c-0.24,0.89-0.47,1.84-0.68,2.83
		c-0.21,1-0.4,1.96-0.56,2.9s-0.28,1.79-0.37,2.56c-0.08,0.78-0.13,1.4-0.13,1.86V316.73z"/>
        <path style="clip-path:url(#SVGID_00000016793629306424844220000017483303791828587956_);fill:#E30613;" d="M257.81,325.46
		c-0.45-0.24-0.81-0.56-1.1-0.96c-0.29-0.39-0.49-0.85-0.62-1.37c-0.13-0.52-0.19-1.07-0.19-1.64c0-0.72,0.14-1.59,0.41-2.61
		c0.27-1.02,0.67-2,1.18-2.95c0.51-0.94,1.12-1.75,1.83-2.4s1.49-0.99,2.34-0.99c0.57,0,1.01,0.18,1.32,0.54
		c0.31,0.36,0.46,0.82,0.46,1.37c0,0.53-0.16,1.12-0.49,1.77c-0.33,0.65-0.74,1.28-1.24,1.88c-0.5,0.61-1.04,1.14-1.61,1.61
		c-0.57,0.47-1.1,0.79-1.59,0.96c-0.11,0.49-0.16,0.94-0.16,1.34c0,0.72,0.16,1.29,0.48,1.71c0.32,0.42,0.85,0.62,1.59,0.62
		c0.68,0,1.32-0.13,1.91-0.4c0.59-0.27,1.15-0.61,1.66-1.02c0.51-0.41,0.98-0.89,1.4-1.42c0.42-0.53,0.8-1.06,1.11-1.59
		c0.11-0.17,0.23-0.35,0.38-0.54c0.15-0.19,0.34-0.29,0.57-0.29c0.11,0,0.21,0.03,0.3,0.1c0.1,0.06,0.14,0.15,0.14,0.26
		c0,0.21-0.02,0.38-0.06,0.51c-0.04,0.13-0.12,0.28-0.22,0.45c-0.4,0.72-0.9,1.41-1.48,2.07c-0.58,0.66-1.23,1.23-1.93,1.73
		c-0.7,0.5-1.45,0.89-2.26,1.18c-0.81,0.29-1.64,0.44-2.52,0.44C258.8,325.83,258.26,325.71,257.81,325.46 M260.55,314.71
		c-0.32,0.46-0.62,0.99-0.89,1.6c-0.28,0.61-0.51,1.22-0.7,1.83c-0.19,0.61-0.31,1.05-0.35,1.33c0.34-0.21,0.71-0.5,1.11-0.85
		c0.4-0.35,0.77-0.75,1.11-1.18c0.34-0.44,0.63-0.89,0.86-1.35c0.23-0.46,0.35-0.9,0.35-1.33c0-0.17-0.04-0.34-0.11-0.5
		c-0.07-0.16-0.22-0.24-0.43-0.24C261.19,314.02,260.87,314.25,260.55,314.71"/>
        <path style="clip-path:url(#SVGID_00000016793629306424844220000017483303791828587956_);fill:#E30613;" d="M274.97,324.65
		c-0.15-0.4-0.27-0.92-0.35-1.54c-0.09-0.63-0.15-1.31-0.19-2.05c-0.04-0.74-0.06-1.46-0.06-2.16v-1.85v-1.15
		c0-0.11-0.01-0.24-0.03-0.41c-0.02-0.17-0.12-0.25-0.29-0.25c-0.21,0-0.51,0.2-0.88,0.59c-0.37,0.39-0.77,0.9-1.21,1.51
		c-0.43,0.62-0.88,1.3-1.34,2.04c-0.46,0.74-0.89,1.46-1.29,2.16c-0.4,0.7-0.75,1.33-1.05,1.88c-0.3,0.55-0.5,0.96-0.61,1.21
		c-0.11,0.23-0.25,0.45-0.43,0.65c-0.18,0.2-0.42,0.3-0.72,0.3c-0.21,0-0.37-0.07-0.48-0.21c-0.11-0.14-0.16-0.3-0.16-0.49
		c0-0.32,0.05-0.82,0.14-1.5c0.1-0.68,0.21-1.45,0.35-2.31c0.14-0.86,0.3-1.76,0.49-2.69c0.19-0.93,0.38-1.82,0.57-2.66
		c0.19-0.84,0.38-1.58,0.57-2.21c0.19-0.64,0.35-1.08,0.48-1.34c0.23-0.42,0.59-0.74,1.08-0.95c0.49-0.21,0.95-0.32,1.4-0.32
		c0.23,0,0.4,0.07,0.51,0.21c0.11,0.14,0.16,0.32,0.16,0.56c0,0.21-0.04,0.47-0.13,0.76c-0.08,0.3-0.19,0.6-0.32,0.91
		c-0.13,0.31-0.26,0.61-0.38,0.91c-0.13,0.3-0.23,0.55-0.32,0.76c-0.23,0.57-0.43,1.17-0.57,1.78c-0.15,0.62-0.28,1.23-0.38,1.85
		c0.23-0.34,0.55-0.82,0.96-1.43c0.4-0.62,0.84-1.22,1.32-1.82c0.48-0.59,0.97-1.11,1.48-1.54c0.51-0.43,0.98-0.65,1.4-0.65
		c0.3,0,0.53,0.1,0.7,0.29c0.17,0.19,0.3,0.42,0.4,0.7c0.1,0.28,0.16,0.56,0.19,0.86c0.03,0.3,0.05,0.55,0.05,0.76
		c0,0.62-0.01,1.23-0.03,1.85c-0.02,0.62-0.03,1.23-0.03,1.85v1.02c0,0.34,0.04,0.67,0.13,0.99c0,0.02,0.01,0.06,0.03,0.13
		c0.02,0.06,0.05,0.1,0.1,0.1c0.06,0,0.14-0.08,0.24-0.24c0.1-0.16,0.16-0.27,0.21-0.33c0.38-0.64,0.79-1.26,1.23-1.86
		c0.43-0.6,0.87-1.21,1.29-1.83c0.26-0.36,0.55-0.79,0.89-1.27c0.34-0.49,0.71-0.95,1.1-1.4c0.39-0.45,0.82-0.83,1.27-1.15
		c0.46-0.32,0.93-0.48,1.42-0.48c0.34,0,0.64,0.08,0.89,0.25c0.25,0.17,0.46,0.38,0.62,0.64c0.16,0.26,0.28,0.54,0.35,0.84
		c0.07,0.31,0.11,0.61,0.11,0.91c0,1.23-0.07,2.46-0.22,3.68c-0.15,1.22-0.22,2.45-0.22,3.68c0,0.15,0.01,0.32,0.02,0.53
		c0.01,0.2,0.04,0.39,0.1,0.56c0.05,0.17,0.14,0.32,0.26,0.45c0.12,0.13,0.28,0.19,0.49,0.19c0.36,0,0.77-0.14,1.23-0.43
		c0.46-0.29,0.91-0.63,1.35-1.04c0.45-0.4,0.86-0.82,1.24-1.26s0.68-0.79,0.89-1.07c0.11-0.15,0.24-0.32,0.42-0.52
		c0.17-0.2,0.36-0.3,0.57-0.3c0.19,0,0.31,0.08,0.37,0.22c0.05,0.15,0.08,0.3,0.08,0.45c0,0.11-0.04,0.22-0.11,0.33
		c-0.08,0.12-0.14,0.22-0.21,0.3c-0.32,0.42-0.74,0.92-1.26,1.5c-0.52,0.57-1.09,1.12-1.72,1.64c-0.63,0.52-1.26,0.96-1.91,1.32
		c-0.65,0.36-1.25,0.54-1.8,0.54c-0.53,0-0.94-0.15-1.23-0.44c-0.29-0.3-0.5-0.67-0.65-1.12c-0.15-0.44-0.24-0.91-0.27-1.4
		c-0.03-0.49-0.05-0.92-0.05-1.3c0-0.95,0.05-1.91,0.14-2.87c0.1-0.95,0.14-1.92,0.14-2.9c0-0.08-0.01-0.2-0.02-0.35
		c-0.01-0.15-0.03-0.29-0.06-0.43c-0.03-0.14-0.08-0.26-0.16-0.37c-0.07-0.11-0.17-0.16-0.3-0.16c-0.25,0-0.57,0.2-0.96,0.59
		c-0.38,0.39-0.79,0.9-1.23,1.51c-0.43,0.62-0.88,1.3-1.34,2.05s-0.89,1.48-1.29,2.18c-0.4,0.7-0.76,1.33-1.07,1.89
		c-0.31,0.56-0.55,0.97-0.72,1.23c-0.11,0.17-0.22,0.31-0.35,0.41c-0.13,0.11-0.3,0.16-0.51,0.16S275.12,325.06,274.97,324.65"/>
        <path style="clip-path:url(#SVGID_00000016793629306424844220000017483303791828587956_);fill:#E30613;" d="M292.28,319.11
		c0.26-0.98,0.65-1.89,1.16-2.74c0.51-0.85,1.13-1.57,1.86-2.15c0.73-0.58,1.58-0.88,2.53-0.88c0.59,0,1.08,0.14,1.46,0.41
		c0.38,0.28,0.68,0.63,0.91,1.05c0.22,0.43,0.38,0.89,0.48,1.4c0.1,0.51,0.14,1.01,0.14,1.5c0,0.7-0.06,1.41-0.19,2.12
		c-0.13,0.71-0.33,1.4-0.61,2.05c-0.28,0.66-0.63,1.27-1.05,1.85s-0.95,1.06-1.56,1.46c-0.36,0.23-0.75,0.43-1.18,0.59
		c-0.42,0.16-0.86,0.24-1.3,0.24c-0.57,0-1.06-0.13-1.45-0.4c-0.39-0.26-0.71-0.6-0.94-1c-0.23-0.4-0.4-0.86-0.51-1.37
		c-0.11-0.51-0.16-1-0.16-1.46C291.88,320.98,292.01,320.09,292.28,319.11 M296.26,316.18c-0.46,0.49-0.84,1.07-1.15,1.75
		c-0.31,0.68-0.54,1.38-0.7,2.1c-0.16,0.72-0.24,1.33-0.24,1.81c0,0.26,0.02,0.54,0.06,0.84c0.04,0.31,0.12,0.59,0.24,0.84
		c0.12,0.25,0.28,0.47,0.49,0.65c0.21,0.18,0.48,0.27,0.8,0.27c0.27,0,0.54-0.06,0.78-0.17c0.24-0.12,0.47-0.26,0.68-0.43
		c0.4-0.32,0.75-0.69,1.04-1.13c0.29-0.44,0.52-0.9,0.7-1.39c0.18-0.49,0.31-0.99,0.4-1.51c0.09-0.52,0.13-1.02,0.13-1.51
		c0-0.26-0.02-0.55-0.06-0.89c-0.04-0.34-0.13-0.65-0.26-0.94c-0.13-0.29-0.3-0.53-0.51-0.73c-0.21-0.2-0.49-0.3-0.83-0.3
		C297.24,315.45,296.71,315.7,296.26,316.18"/>
        <path style="clip-path:url(#SVGID_00000016793629306424844220000017483303791828587956_);fill:#E30613;" d="M307.89,314.97
		c0.25,0.62,0.55,1.23,0.89,1.85c0.34,0.62,0.67,1.24,0.99,1.86c0.32,0.63,0.58,1.27,0.8,1.93s0.32,1.33,0.32,2.01
		c0,0.42-0.06,0.85-0.17,1.27c-0.12,0.43-0.3,0.82-0.56,1.18c0.38,0.02,0.83-0.14,1.34-0.49c0.51-0.35,1.02-0.76,1.53-1.24
		c0.51-0.48,0.98-0.97,1.4-1.46c0.42-0.5,0.73-0.9,0.92-1.19c0.11-0.15,0.23-0.32,0.38-0.52c0.15-0.2,0.33-0.3,0.54-0.3
		c0.19,0,0.32,0.06,0.38,0.19c0.06,0.13,0.1,0.28,0.1,0.45c0,0.11-0.04,0.22-0.11,0.33c-0.08,0.12-0.13,0.23-0.18,0.33
		c-0.6,0.93-1.22,1.77-1.88,2.52c-0.66,0.74-1.37,1.37-2.15,1.88c-0.77,0.51-1.64,0.9-2.58,1.16c-0.95,0.27-1.99,0.4-3.14,0.4
		c-0.62,0-1.28-0.06-1.99-0.19c-0.71-0.13-1.3-0.41-1.77-0.86c-0.11-0.11-0.19-0.21-0.25-0.32c-0.06-0.11-0.1-0.23-0.1-0.38
		c0-0.32,0.17-0.48,0.51-0.48c0.13,0,0.23,0.02,0.3,0.06c0.07,0.04,0.16,0.1,0.27,0.16c0.36,0.23,0.72,0.39,1.08,0.48
		c0.36,0.08,0.75,0.13,1.18,0.13c0.85,0,1.49-0.26,1.93-0.78s0.65-1.18,0.65-1.99c0-0.49-0.07-1.01-0.21-1.56s-0.31-1.1-0.52-1.66
		c-0.21-0.55-0.45-1.09-0.72-1.61c-0.27-0.52-0.52-0.97-0.78-1.35c-0.15,0.42-0.33,0.9-0.56,1.42s-0.47,1.03-0.75,1.54
		c-0.28,0.51-0.57,1-0.88,1.46c-0.31,0.47-0.62,0.86-0.94,1.18c-0.11,0.11-0.23,0.22-0.37,0.33s-0.29,0.18-0.46,0.18
		c-0.3,0-0.45-0.15-0.45-0.45c0-0.17,0.04-0.32,0.11-0.45c0.08-0.13,0.17-0.26,0.27-0.38c1.44-1.8,2.53-3.83,3.25-6.08
		c-0.19-0.55-0.29-1.11-0.29-1.69c0-0.32,0.05-0.69,0.16-1.11c0.11-0.43,0.25-0.83,0.45-1.21c0.19-0.38,0.43-0.71,0.73-0.99
		c0.3-0.28,0.64-0.41,1.02-0.41c0.19,0,0.35,0.06,0.49,0.17c0.14,0.12,0.24,0.27,0.32,0.45c0.07,0.18,0.13,0.37,0.16,0.56
		c0.03,0.19,0.05,0.37,0.05,0.54c0,0.53-0.07,1.07-0.22,1.61C308.26,313.97,308.09,314.49,307.89,314.97"/>
        <path style="clip-path:url(#SVGID_00000016793629306424844220000017483303791828587956_);fill:#E30613;" d="M318.75,325.07
		c-0.25-0.23-0.38-0.54-0.38-0.92c0-0.36,0.08-0.72,0.24-1.08s0.45-0.54,0.88-0.54c0.34,0,0.65,0.12,0.94,0.37
		c0.29,0.24,0.43,0.55,0.43,0.91c0,0.42-0.07,0.8-0.21,1.13c-0.14,0.33-0.46,0.49-0.97,0.49
		C319.31,325.42,319.01,325.3,318.75,325.07 M323.91,301.14c0.21,0.31,0.32,0.75,0.32,1.32c0,0.34-0.03,0.67-0.1,0.99
		c-0.06,0.32-0.13,0.64-0.19,0.95c-0.32,1.42-0.63,2.83-0.94,4.24c-0.31,1.4-0.61,2.81-0.91,4.23c-0.17,0.83-0.34,1.66-0.51,2.48
		c-0.17,0.83-0.34,1.65-0.51,2.48c-0.04,0.3-0.12,0.57-0.24,0.81c-0.12,0.24-0.35,0.37-0.72,0.37c-0.23,0-0.37-0.12-0.41-0.37
		c-0.04-0.24-0.06-0.44-0.06-0.59c0-0.08,0.01-0.16,0.02-0.22c0.01-0.06,0.01-0.14,0.01-0.22c0.04-0.55,0.08-1.1,0.11-1.64
		c0.03-0.54,0.07-1.09,0.11-1.64c0.09-1.21,0.16-2.4,0.22-3.58c0.06-1.18,0.15-2.37,0.25-3.58c0.04-0.64,0.09-1.36,0.14-2.17
		c0.05-0.81,0.14-1.52,0.27-2.13c0.06-0.27,0.13-0.55,0.21-0.81c0.07-0.26,0.18-0.5,0.32-0.7s0.32-0.37,0.54-0.49
		c0.22-0.13,0.49-0.19,0.81-0.19C323.28,300.68,323.7,300.83,323.91,301.14"/>
</g>
</svg>
