<?xml version="1.0" encoding="utf-8"?>
<!-- Generator: Adobe Illustrator 26.1.0, SVG Export Plug-In . SVG Version: 6.00 Build 0)  -->
<svg version="1.1" id="Capa_1" xmlns="http://www.w3.org/2000/svg" x="0px" y="0px"
     viewBox="0 0 99.21 99.21" style="enable-background:new 0 0 99.21 99.21;" xml:space="preserve">
<style type="text/css">
	.st0{fill:#1D1D1B;}
	.st1{fill:#FBFBFB;}
	.st2{fill:#FCFCFC;}
</style>
    <path class="st0" d="M83.54,98c-22.01,0-44.02,0-66.03,0c-7.46-2.52-9.18-4.76-9.23-12.62C8.2,73.94,8.17,62.49,8.29,51.04
	c0.09-8.49,3.82-12.68,12.19-14.17c3.21-0.57,6.44-0.4,9.66-0.42c15.02-0.11,30.03-0.07,45.05-0.01c2.94,0.01,5.8,0.36,8.58,1.28
	c5.52,1.82,8.75,5.58,8.89,11.38c0.31,12.89,0.26,25.8,0.02,38.69C92.58,93.71,89.01,96.76,83.54,98z"/>
    <path class="st0" d="M57.6,1.88c14.78,1.73,25.14,15.63,22.93,30.6c-0.25,1.67-0.86,2.25-2.42,2.19c-1.13-0.05-2.28-0.13-3.39,0.02
	c-4.12,0.57-6.04-0.53-5.78-5.29c0.37-6.64-1.49-12.99-8.44-15.37c-8.14-2.8-16.64-3.4-23.89,2.57c-4.17,3.44-4.96,8.63-4.6,13.73
	c0.49,7.08-4.7,3.65-7.59,4.3c-3.91,0.89-3.95-1.63-3.88-4.53c0.37-15.96,8.89-26.51,22.93-28.2C45.08,0.99,55.66,0.95,57.6,1.88z"
    />
    <path class="st1" d="M50.5,60.82c4.07-0.01,7.44,3.22,7.52,7.22c0.08,4.09-3.61,7.72-7.71,7.59c-3.93-0.13-7.32-3.64-7.28-7.55
	C43.08,64.09,46.44,60.83,50.5,60.82z"/>
    <path class="st1" d="M35.59,68.12c0.03,3.93-3.36,7.41-7.3,7.51c-4.12,0.1-7.78-3.53-7.67-7.63c0.1-3.97,3.51-7.21,7.55-7.18
	C32.28,60.85,35.56,64.09,35.59,68.12z"/>
    <path class="st2" d="M80.44,68.19c-0.02,3.89-3.47,7.37-7.39,7.44c-4.12,0.07-7.72-3.59-7.57-7.7c0.14-4.05,3.48-7.18,7.59-7.11
	C77.1,60.89,80.46,64.25,80.44,68.19z"/>
    <path d="M43.1,1.94C44,1.7,44,1.7,44,1.7l0.29-0.07l-0.82,0.26l-0.69,0.09l1.5-0.34"/>
    <path d="M-37.54-14.82"/>
</svg>
