<?xml version="1.0" encoding="utf-8"?>
<!-- Generator: Adobe Illustrator 26.0.0, SVG Export Plug-In . SVG Version: 6.00 Build 0)  -->
<svg version="1.1" id="Capa_1" xmlns="http://www.w3.org/2000/svg" xmlns:xlink="http://www.w3.org/1999/xlink" x="0px" y="0px"
	 viewBox="0 0 67 67" style="enable-background:new 0 0 67 67;" xml:space="preserve">
<style type="text/css">
	.st0{fill:#FFFFFF;}
</style>
<path class="st0" d="M65.5,56.4c-0.4,4-2.4,6.7-5.8,8.3c-3.6,1.7-6.9,0.7-9.6-1.9c-4.9-4.7-9.7-9.5-14.4-14.5
	c-1.6-1.7-2.6-1.9-4.3-0.1c-4.2,4.5-8.6,8.7-13,13.1c-5.3,5.2-9.9,5.6-14.2,1.2C0,58.2,0.4,53.8,5.5,48.7c4.2-4.2,8.4-8.6,12.7-12.6
	c2-1.9,2.2-3.1,0.1-5.1c-4.6-4.3-9-8.8-13.4-13.3C0.3,12.9,0.2,8.1,4.4,4.1c3.9-3.7,8.9-3.5,13.2,0.7c4.4,4.3,8.9,8.5,13,13.1
	c2.5,2.8,3.8,2.2,6-0.2c4-4.4,8.4-8.6,12.6-12.7c4.5-4.4,9.7-4.7,13.5-0.7c3.9,4,3.7,8.9-0.9,13.6c-4.1,4.2-8.1,8.4-12.4,12.3
	c-2.6,2.4-3.2,3.9-0.2,6.5c4.5,3.9,8.5,8.4,12.8,12.6C64.2,51.3,65.5,53.6,65.5,56.4z"/>
</svg>
