<?xml version="1.0" encoding="utf-8"?>
<!-- Generator: Adobe Illustrator 26.0.0, SVG Export Plug-In . SVG Version: 6.00 Build 0)  -->
<svg version="1.1" id="Capa_1" xmlns="http://www.w3.org/2000/svg" width="20" height="20" x="0px" y="0px"
     viewBox="0 0 74.66 74.86" style="fill: #231F20;" xml:space="preserve">
<path class="st0" d="M37.31,58.23c9.13,0,18.27-0.04,27.4,0.01c6.21,0.04,9.8,2.98,9.94,7.99c0.15,5.22-3.5,8.59-9.91,8.62
	c-18.27,0.09-36.54,0.09-54.8,0C3.54,74.83-0.13,71.48,0,66.27c0.13-5.01,3.72-7.99,9.91-8.03C19.04,58.19,28.18,58.23,37.31,58.23z
	"/>
    <path d="M37.06,16.55c-9.13,0-18.27,0.05-27.4-0.02C3.6,16.49-0.01,13.31,0,8.26c0.02-5.08,3.56-8.19,9.7-8.21
	c18.43-0.06,36.86-0.06,55.29,0c6.11,0.02,9.66,3.18,9.66,8.26c-0.01,5.06-3.6,8.19-9.7,8.23C55.65,16.6,46.36,16.55,37.06,16.55z"
    />
    <path d="M37.66,29.16c9.13,0,18.26-0.05,27.4,0.02c6.08,0.04,9.65,3.21,9.6,8.29c-0.05,5.06-3.62,8.12-9.77,8.13
	c-18.43,0.05-36.86,0.05-55.29,0c-6.06-0.02-9.65-3.23-9.6-8.3c0.05-5.04,3.63-8.09,9.77-8.13C19.07,29.12,28.36,29.16,37.66,29.16z
	"/>
</svg>
