<?xml version="1.0" encoding="utf-8"?>
<!-- Generator: Adobe Illustrator 26.0.0, SVG Export Plug-In . SVG Version: 6.00 Build 0)  -->
<svg version="1.1" id="Capa_1" xmlns="http://www.w3.org/2000/svg" width="24" height="24" x="0px" y="0px"
     viewBox="0 0 85.04 85.04" style="enable-background:new 0 0 85.04 85.04;" xml:space="preserve">
<style type="text/css">
	.st0{fill:#FFFFFF;}
</style>
    <path class="st0" d="M21.65,49.21c-3.49,0-6.99,0.06-10.48-0.02c-5.24-0.12-8.19-2.55-8.24-6.64c-0.05-4.12,2.9-6.72,8.08-6.79
	c6.82-0.1,13.65-0.32,20.45,0.08c4.15,0.24,4.91-1.3,4.76-5c-0.28-6.64-0.13-13.3-0.06-19.95c0.05-5.29,2.4-8.23,6.49-8.36
	c4.33-0.14,6.9,2.88,6.95,8.41c0.07,6.98,0.16,13.97-0.05,20.95c-0.09,2.98,0.59,4.06,3.79,3.93c6.64-0.27,13.3-0.1,19.95-0.07
	c6.46,0.02,9.62,2.32,9.52,6.87c-0.09,4.38-3.14,6.57-9.29,6.6c-6.65,0.03-13.31,0.21-19.95-0.08c-3.42-0.15-4.12,1.08-4.02,4.2
	c0.22,6.81,0.11,13.64,0.05,20.45c-0.05,5.63-2.48,8.65-6.75,8.63c-4.24-0.02-6.65-3.06-6.7-8.69c-0.06-6.98-0.14-13.97,0.04-20.95
	c0.07-2.79-0.7-3.8-3.57-3.62C28.98,49.39,25.31,49.21,21.65,49.21z"/>
</svg>
