<?xml version="1.0" encoding="utf-8"?>
<!-- Generator: Adobe Illustrator 26.0.0, SVG Export Plug-In . SVG Version: 6.00 Build 0)  -->
<svg version="1.1" id="Layer_1" width="42" height="42" xmlns="http://www.w3.org/2000/svg" x="0px" y="0px"
     viewBox="0 0 119.1 119.1" style="enable-background:new 0 0 119.1 119.1;" xml:space="preserve">
<style type="text/css">
	.st0{fill:none;}
	.st1{fill:#161313;}
	.st2{fill:#18191C;}
	.st3{fill:#FEFDFE;}
	.st4{fill:#E52528;}
	.st5{fill:#E52D29;}
	.st6{fill:#231F20;}
	.st7{fill:#24201F;}
	.st8{fill:#F29090;}
	.st9{fill:#252120;}
	.st10{fill:#272322;}
	.st11{fill:#575753;}
	.st12{fill:#6F6A68;}
	.st13{fill:#1A1D2A;}
	.st14{fill:#1F1D28;}
	.st15{fill:#F08D8E;}
</style>
    <rect x="0" y="0" class="st0" width="119.1" height="119.1"/>
    <g>
	<path class="st1" d="M29.1,75.6c-0.6-1.5-0.7-3-1-4.6c-0.1-0.5-0.2-0.8-0.6-1.1c-1.8-1.4-2.9-3.2-3.6-5.3c-0.2-0.7-0.1-1.1,0.4-1.5
		c1-0.8,1.7-1.8,2.5-2.8c0.4-0.5,0.3-0.6-0.3-0.8c-1.5-0.6-3-1.3-4.1-2.6c-1-1.2-1-1.5,0.4-2.2c1.2-0.6,2.2-1.4,3.3-2.1
		c0.5-0.4,0.6-0.5,0.1-1c-1.3-1.4-2-3.1-2.4-4.9c-0.1-0.6,0-0.9,0.5-1.2c1-0.6,2.3-1.1,2.7-2c0.3-0.9-1.1-1.7-1.5-2.7
		c0-0.1-0.1-0.1-0.1-0.2c-1.2-2.2-1.2-2.2,1.2-3c3.1-1,5.6-2.9,7.9-5.1c0.5-0.4,0.4-0.9,0.4-1.4c0-3.3,0-6.6,0.7-9.8
		c0.6-3,2-5.6,4.1-7.7c0.6-0.6,1-0.6,1.7-0.2c3.4,2.1,5.9,5,7.6,8.6c0.5,1,0.8,1,1.5,0.3c0.5-0.5,0.8-1,0.8-1.7
		c0-1.2,0.6-1.4,1.6-1.3c1.7,0.2,3.1,1.2,4.4,2.3c0.9-1.9,2.5-3.2,4.3-4.1c0.7-0.4,1.2-0.3,1.5,0.5c0.6,1.2,1.4,2.1,2.6,2.8
		c0.9-2,1.8-3.9,3.1-5.7c1.1-1.6,2.4-2.9,4-4c0.8-0.6,1.5-0.6,2.3,0c2,1.4,3.1,3.4,4,5.6c1.1,2.8,1.6,5.7,2,8.6c0.1,0.7,0.3,0.9,1,1
		c1.7,0.1,3.3,0.8,4.7,1.8c0.6,0.4,0.8,0.8,0.3,1.4c-0.7,1-1.3,2.1-1.5,3.4c1.6,0.4,3.2,0.8,4.6,1.7c1.3,0.9,2.4,2,3.2,3.4
		c0.4,0.7,0.3,1.1-0.4,1.5c-1,0.5-1.8,1.4-2.4,2.4c-0.3,0.5-0.2,0.8,0.2,1.1c1.7,1.3,3.4,2.6,5.2,3.7c1.3,0.8,1.4,0.9,0.4,2.1
		c-1.6,2.1-3.5,3.9-5.7,5.5c2.4,1.6,3.9,3.8,4.9,6.4c0.3,0.8,0.2,1.3-0.6,1.6c-2,0.8-3.6,2.1-5,3.7c-0.5,0.5-0.6,0.9-0.2,1.5
		c0.7,1.3,1.1,2.7,1,4.2c-0.2,2.1-0.4,2.2-2.5,2c-0.7-0.1-1.4-0.4-2.1-0.4c-0.3,0-0.5-0.1-0.5-0.5c0.4-0.4,0.9-0.5,1.4-0.5
		c0.5,0,0.9,0,1.4,0c0.4,0,0.7-0.1,0.7-0.6c0-1.3-0.3-2.5-1-3.6c-0.5-0.9-0.4-1.8,0.2-2.6c1.3-1.7,2.9-2.9,4.7-3.9
		c0.7-0.4,0.8-0.8,0.4-1.5c-0.9-1.8-2.2-3.2-3.8-4.4c-1.1-0.8-1.2-1.5-0.1-2.3c1.7-1.3,3.2-2.8,4.7-4.3c0.7-0.6,0.6-1.1-0.2-1.6
		c-1.5-0.9-3-2-4.3-3.1c-1.2-1-1.3-1.5-0.6-2.8c0.5-0.9,1-1.8,1.8-2.5c0.6-0.5,0.5-0.9,0-1.5c-1.4-1.5-3.2-2.4-5.3-2.8
		C84,34.3,83.7,34,84,32.3c0.1-0.8,0.4-1.6,0.8-2.2c0.6-0.9,0.2-1.3-0.6-1.6c-1-0.4-2.1-0.6-3.2-0.8c-1-0.1-1.4-0.6-1.5-1.6
		c-0.4-3.7-1-7.3-2.7-10.6c-0.5-0.9-1.1-1.7-1.8-2.5c-0.6-0.6-1.2-0.6-1.8,0c-2.3,2.1-4.1,4.6-5.3,7.5c-1.1,2.5-1.6,2.6-3.8,1
		c-0.6-0.4-1.1-0.9-1.5-1.5c-0.4-0.7-0.9-0.7-1.5-0.2c-1,0.8-1.8,1.8-2.3,3c-0.6,1.3-1.1,1.5-2.2,0.5c-0.8-0.7-1.5-1.4-2.5-1.8
		c-0.6-0.3-1-0.3-1.3,0.4c-0.5,1.2-1.4,2-2.5,2.5c-1.2,0.5-1.8,0.3-2.4-0.9c-0.9-1.9-2.1-3.6-3.4-5.3c-0.8-1-1.8-1.8-2.8-2.6
		c-0.7-0.6-1.3-0.5-1.9,0.3c-1.8,2.3-2.7,4.9-3,7.8c-0.3,2.5-0.3,5.1-0.2,7.6c0,1-0.3,1.7-1,2.4c-2.3,2.2-4.9,4.2-7.9,5.3
		c-0.9,0.3-0.9,0.7-0.4,1.4c0.5,0.7,1,1.4,1.5,2c0.6,0.8,0.5,1.5-0.2,2.1c-0.6,0.6-1.3,1.2-2,1.6c-0.9,0.5-1,1.1-0.5,2
		c0.5,1,1,1.9,1.8,2.6c1.2,1.2,1.1,1.9-0.2,2.9c-0.9,0.7-1.8,1.4-2.8,2c-0.7,0.4-0.6,0.7,0,1.1c0.9,0.5,1.8,1,2.8,1.3
		c1.8,0.6,2,1.1,0.9,2.8c-0.7,1-1.4,2-2.2,2.9c-0.6,0.6-0.6,1.2-0.3,1.9c0.3,0.6,0.8,1.2,1,1.9c-0.1,0.5-0.3,1.1,0.7,0.8
		c1.5,1.1,3.3,1.7,5,2.5c-0.7,0.8-1.4,0.3-2.1,0.1C29,70.4,29,70.4,29.2,72c0.1,0.8,0.2,1.6,0.3,2.4C29.6,74.9,29.7,75.4,29.1,75.6z
		"/>
        <path class="st2" d="M85.6,72.8c0.8,0.4,2-0.1,2.6,0.9c-0.5,1-0.2,2.2-0.5,3.3c-1.3,4.7-3.6,8.8-6.3,12.8
		c-3.6,5.5-7.8,10.5-12.8,14.8c-1.6,1.3-3.2,2.6-5,3.5c-1.2,0.6-2.3,0.4-2.9-0.7c-3.7-6.9-9.4-11.8-15.9-15.9
		c-3.2-2-6.4-3.9-9.2-6.4c-3-2.6-5.3-5.6-6.3-9.5c0.6-0.9-0.1-1.7-0.1-2.6c0-0.7-0.2-1.5-0.2-2.2c0-0.3-0.4-0.6,0.1-0.8
		c0.3-0.2,0.6,0.1,0.9,0.2c0.9,0.3,1.8,1,2.9,0.5c0.7-0.1,0.8,0.4,0.9,0.8c0.2,0.6,0.3,1.3,0.3,2c0,0.9,0.5,1.3,1.3,1.3
		c1.3,0.1,2.4-0.3,3.5-1c1.5-0.9,2-0.8,2.6,0.9c0.6,1.6,0.7,3.2,0.7,4.9c0,0.8,0.3,1.1,1.1,1c1-0.2,1.9-0.4,2.9-0.8
		c1.3-0.5,2.3-0.2,3.2,0.8c1.2,1.3,2.3,2.8,3.3,4.3c0.4,0.7,0.9,0.8,1.7,0.5c2.3-1,4.4-2.2,6.2-3.9c0.7-0.7,1.4-0.7,2.2-0.2
		c1.8,1.3,3.7,2.3,5.7,3.3c0.8,0.4,1.2,0.4,1.6-0.5c0.8-1.7,1.7-3.2,2.8-4.6c1.1-1.5,1.4-1.6,3.1-0.8c1.8,0.9,3.7,1.4,5.7,1.3
		c1.2-0.1,1.3,0,1-1.2c-0.3-1.2-0.3-2.4-0.3-3.7C82.3,73.7,84,72.5,85.6,72.8z"/>
        <path class="st3" d="M85.6,72.8c0,0-0.1,0-0.1,0c-3.5,1.3-3.1,1.3-2.9,4.4c0.1,1.1,0.3,2.1,0.6,3.2c-2.9,0.4-5.6-0.2-8.1-1.5
		c-0.7-0.4-1.2-0.3-1.7,0.4c-1.3,1.8-2.6,3.7-3.5,5.8c-0.3,0.6-0.5,0.7-1.1,0.4c-2.2-1-4.4-2.2-6.3-3.6c-0.7-0.6-1.2-0.5-1.9,0.1
		c-1.9,1.8-4.2,3-6.6,4.1c-0.8,0.4-1.2,0.3-1.6-0.5c-1-1.9-2.3-3.5-3.8-5c-0.6-0.6-1.3-0.8-2.1-0.4c-1.2,0.5-2.4,0.8-3.7,1
		c-0.7,0.1-1,0.2-1-0.8c0-1.9-0.2-3.9-0.8-5.7c-0.4-1.2-0.7-1.3-1.7-0.6c-1.4,1-2.9,1.4-4.6,1.1c-0.8-0.1-1.1-0.4-1-1.2
		c0-0.7-0.1-1.4-0.2-2.1c-0.1-0.4-0.1-0.9-0.7-1c-1.9-0.3-3.6-1.2-5-2.4c-0.4-0.1-0.6-0.4-0.7-0.8c-0.2-0.3-0.5-0.6-0.7-1
		c-1.2-1.9-1.1-2,0.3-3.6c0.8-0.9,1.5-1.9,2.2-3c0.5-0.8,0.3-1.2-0.6-1.5c-1.7-0.5-3.3-1.1-4.6-2.5c1.5-0.9,2.9-1.8,4.3-2.9
		c0.8-0.6,0.9-1.2,0.1-1.9c-1.2-1-1.9-2.4-2.4-3.9c-0.2-0.5-0.1-0.8,0.4-1.1c0.9-0.5,1.6-1.2,2.5-1.8c0.9-0.6,0.8-1.2,0.1-2
		c-0.8-0.8-1.3-1.7-1.8-2.6c-0.3-0.5-0.3-0.7,0.3-0.9c3.2-1,5.9-3.1,8.4-5.2c0.8-0.7,1.1-1.4,1-2.4c-0.1-3.3-0.1-6.6,0.7-9.9
		c0.5-2.2,1.5-4.2,2.9-6c0.6-0.8,1-0.7,1.7-0.2c2.9,2.1,5,4.9,6.5,8.1c0.6,1.3,0.9,1.4,2.2,0.8c1.2-0.6,2.1-1.4,2.4-2.8
		c0.1-0.7,0.5-0.5,0.9-0.4c1.3,0.4,2.3,1.2,3.2,2.2c1,1,1.2,0.9,1.7-0.3c0.5-1.4,1.4-2.4,2.6-3.3c0.7-0.5,1.2-0.6,1.6,0.3
		c0.6,1.1,1.7,1.8,2.7,2.4c0.8,0.5,1.3,0.3,1.6-0.6c0.8-2.1,1.8-4,3.1-5.8c0.9-1.2,1.9-2.2,3-3.2c0.6-0.5,1-0.5,1.6,0
		c1.9,1.7,2.9,3.9,3.6,6.3c0.8,2.4,1.2,4.9,1.4,7.4c0.1,0.8,0.3,1.1,1.1,1.2c1.4,0.2,2.8,0.5,4.1,1.1c0.6,0.3,0.8,0.5,0.3,1.1
		c-0.6,0.9-0.9,2-1.1,3.1c-0.2,1,0.1,1.4,1.2,1.6c2.5,0.3,4.6,1.3,6.2,3.4c0.4,0.5,0.4,0.7-0.1,1.1c-1.1,0.8-1.9,1.9-2.4,3.2
		c-0.3,0.7-0.2,1.1,0.4,1.6c1.6,1.4,3.3,2.7,5.2,3.8c0.8,0.5,0.8,0.8,0.2,1.5c-1.6,1.6-3.1,3.2-5,4.6c-1.3,0.9-1.3,1.1,0,2
		c1.9,1.3,3.3,2.9,4.2,5c0.3,0.6,0.3,0.8-0.4,1.1c-2.1,1-3.8,2.6-5.3,4.3c-0.5,0.6-0.6,1.1-0.2,1.7c0.7,1.2,1.1,2.6,1.2,4.1
		c0,0.7-0.4,1-1.1,0.9c-0.5,0-0.9-0.1-1.4,0.1C86.4,72.4,86,72.7,85.6,72.8z"/>
        <path class="st2" d="M26.9,67.5c0.3,0.2,0.6,0.4,0.7,0.8c-0.3,0.1-0.1,1-0.7,0.5C26.4,68.3,26.4,67.9,26.9,67.5z"/>
        <path class="st2" d="M86.8,72.5c0.5-0.3,1-0.2,1.5-0.2c0.7,0.1,0.9-0.3,1-0.8c0.1,0.8-0.2,1.1-0.9,1C87.9,72.5,87.4,72.5,86.8,72.5
		z"/>
        <path class="st4" d="M29.8,71.3c0.6,0.2,1.1,0.3,1.7,0.5c0.4,0.1,0.6,0.4,0.6,0.8c0,0.3,0,0.6,0,0.9c-0.1,2.9-0.2,2.3,2.4,2.7
		c1.4,0.2,2.9,0.2,4.3-0.5c0.7-0.4,1-0.1,1.1,0.6c0.3,1.6,0.4,3.3,0.3,5c-0.1,1,0.3,1.3,1.3,1.2c1.6-0.2,3.2-0.4,4.7-1
		c0.8-0.3,1.2-0.1,1.8,0.4c1.5,1.6,2.6,3.4,3.7,5.2c0.4,0.7,0.7,0.8,1.5,0.5c2.7-1.2,5.3-2.4,7.6-4.4c0.6-0.5,0.9-0.4,1.4,0
		c2,1.4,4.2,2.6,6.5,3.6c1.1,0.5,1.7,0.3,2.1-0.9c0.7-1.9,1.9-3.6,3-5.3c0.3-0.4,0.5-0.5,1-0.3c3,1.4,6.1,1.7,9.4,1.2
		c-0.2,0.9-0.6,1.6-1,2.3c-4.2,7.5-9.4,14.3-16.1,19.9c-1.3,1.1-2.7,2-4.1,3c-0.6,0.4-1,0.4-1.4-0.3c-3.9-7.2-9.9-12.2-16.7-16.5
		c-2.8-1.7-5.6-3.5-8.1-5.6c-3.7-3-6.2-6.8-7-11.6C29.8,72.4,29.6,71.9,29.8,71.3z"/>
        <path class="st5" d="M84.9,80.5c-1-1.8-1-3.4-1-5.1c0-0.6,1.9-1.5,2.4-1.2c0.3,0.1,0.2,0.4,0.2,0.6C86.4,76.7,85.9,78.6,84.9,80.5z
		"/>
        <path class="st6" d="M48.3,56.6c3.4,2.3,6.7,2.3,10-0.3c1.3-1,2.2-1.1,3.7-0.2c2.7,1.7,5.5,1.6,8.1-0.4c0.2-0.1,0.3,0,0.3,0.3
		c-0.7,0.8-1.6,1.4-2.6,1.7c-0.6,0.2-0.8,0.5-0.8,1.1c0.1,1.8-0.1,3.6-0.8,5.3c-0.9,2.3-2.5,3.9-5,4.1c-2.5,0.2-4.3-1-5.7-3
		c-1.1-1.6-1.7-3.4-2-5.2c-0.1-0.7-0.3-1-1.1-1.1c-1.7-0.2-3.1-1-4.3-2.1C48,56.6,48,56.5,48.3,56.6z"/>
        <path class="st7" d="M59.3,53.3c-1.8-0.3-3.6-1.2-4.7-3.2c-0.7-1.3-0.5-2.5,0.7-3.4c2.3-1.6,4.8-2,7.4-1c1.6,0.7,2.2,2.3,1.6,3.9
		C63.6,51.6,61.4,53.3,59.3,53.3z"/>
        <path class="st8" d="M45.9,23.8c-0.8-0.6-1.4-1-2-1.4c-0.4-0.3-0.9-0.4-0.7,0.4c0.1,0.3,0,0.6,0,0.9c-0.2,0.6-0.2,1.4-0.9,1.5
		c-0.7,0.1-1-0.5-1.2-1.1c-0.3-0.6-0.6-0.3-0.8,0.1c-0.4,0.8-0.8,1.6-1.2,2.5c-0.2-2.6,0.4-6.3,1.3-7.9c0.9-1.6,1.3-1.7,2.5-0.3
		C44.1,20.1,44.9,21.9,45.9,23.8z"/>
        <path class="st8" d="M70.1,21.2c0.8-2.1,1.8-4.1,3.4-5.7c0.5-0.6,0.9-0.5,1.3,0.1c1,1.3,1.4,2.9,1.7,4.5c0.2,1.4,0.2,2.7,0.2,4.1
		c-0.6-0.9-0.7-2.1-1.7-2.9c-0.1,0.2-0.2,0.3-0.3,0.4c-0.3,0.5-0.6,1.3-1.3,1.1c-0.6-0.2-0.7-1-0.9-1.6c-0.1-0.5,0.3-1.2-0.3-1.4
		c-0.6-0.2-1,0.4-1.5,0.8C70.5,20.8,70.3,21,70.1,21.2z"/>
        <path class="st9" d="M70.5,37.1c-0.4,0.4-0.9,0.8-0.3,1.2c0.5,0.4,0.8,0.2,1-0.3c0.3-0.7,0.5-0.1,0.6,0.1c0.8,0.8,0.7,2.4-0.2,3.3
		c-0.9,1-2.4,1.1-3.4,0.3c-1.1-0.8-1.5-2.3-0.8-3.4C68,37.3,69,36.8,70.5,37.1z"/>
        <path class="st10" d="M47,39.6c0,0.5-0.6,0.9,0,1.3c0.5,0.3,0.8,0.1,1.1-0.4c0.3-0.5,0.5,0.1,0.6,0.3c0.7,0.9,0.7,2.3-0.1,3.2
		c-0.7,0.9-2.1,1.2-3.2,0.7c-1.1-0.5-1.7-1.8-1.4-3c0.2-1.1,1.2-2,2.4-2C46.6,39.6,46.8,39.6,47,39.6z"/>
        <path class="st11" d="M70.3,55.9c-0.1-0.1-0.2-0.2-0.3-0.3c0.5-0.5,1-1.1,1.5-1.6C71.4,54.8,71,55.4,70.3,55.9z"/>
        <path class="st12"
              d="M48.3,56.6c-0.1,0.1-0.1,0.1-0.2,0.2c-0.6-0.3-0.9-0.8-1.3-1.3C47.4,55.7,47.8,56.2,48.3,56.6z"/>
        <path class="st13" d="M59.5,100.6c1.6-0.7,1.6-0.7,1.6-2.7c0-1.7,0-3.4,0-5.1c0-0.9,0-1.8-1.1-2.4c1.2,0.1,2.4,0.1,3.8-0.1
		c-1.1,1-0.9,2.2-0.9,3.3c0,1.8,0,3.6,0,5.5c0,0.7,0.2,1,1,1c1.4,0.1,2.7,0.2,3.5-1.3c0.1-0.2,0.3-0.4,0.6-0.3
		c0.3,0.1,0.2,0.5,0.1,0.7c-0.3,1.5-0.7,1.8-2.3,1.8c-1.7,0-3.4,0-5.1,0C60.3,100.9,59.9,101,59.5,100.6z"/>
        <path class="st14" d="M65,93.8c2.1-0.7,2.5-1.1,2.6-2.6c0.1-2.4-0.9-3.4-3.3-3.4c-1,0-2,0-3.1-0.1c2-0.3,4-0.6,6-0.4
		c1.4,0.1,2.4,1,2.6,2.2c0.3,1.8-0.3,3.3-1.6,4C67.1,94,66.1,94.4,65,93.8z"/>
        <path class="st15" d="M62.1,64c0.5,0.1,1.5,0.2,2.4,0.3c0.5,0.1,0.6,0.3,0.3,0.8c-1.7,2.6-5,3.2-7.4,1.2c-0.6-0.5-0.5-0.8,0.1-1.1
		C58.8,64.4,60.2,64,62.1,64z"/>
        <polyline class="st14" points="60.2,87.4 66.6,87.2 66.6,87.8 60.2,87.8 	"/>
</g>
</svg>
