<svg xmlns="http://www.w3.org/2000/svg" x="0px" y="0px" width="24" height="24" viewBox="0 0 48 48"
     xml:space="preserve" style="fill:#ffffff;">
                             <path d="M23.87,27.99c3.48,0,6.97-0.05,10.45,0.01c4.59,0.09,6.25,2.11,5.57,6.6c-0.26,1.69-0.98,3.15-2.1,4.42
                                     c-5.67,6.47-21.59,6.58-27.38,0.18c-2.29-2.53-3.13-5.55-1.92-8.74c1.12-2.96,3.95-2.48,6.42-2.48
                                     C17.9,27.99,20.88,27.99,23.87,27.99z">
                             </path>
    <path d="M24.15,4.08c5.33,0.08,9.75,4.52,9.8,9.84c0.05,5.53-4.57,10.14-10.09,10.05c-5.52-0.08-10.01-4.83-9.8-10.35
                                C14.27,8.3,18.81,4,24.15,4.08z">
                             </path>
                        </svg>