<?xml version="1.0" encoding="utf-8"?>
<!-- Generator: Adobe Illustrator 26.0.0, SVG Export Plug-In . SVG Version: 6.00 Build 0)  -->
<svg xmlns:xlink="http://www.w3.org/1999/xlink" version="1.1" id="Capa_1" xmlns="http://www.w3.org/2000/svg" width="32"
     height="32" x="0px" y="0px"
     viewBox="0 0 36 46.2" style="enable-background:new 0 0 36 46.2;" xml:space="preserve">
<style type="text/css">
	.st0{clip-path:url(#SVGID_00000127020107299343330750000015466726384663567009_);fill:#F6F6F6;}
	.st1{clip-path:url(#SVGID_00000004525865773096040140000006600942392735768984_);fill:#F6F6F6;}
</style>
    <g>
	<g>
		<defs>
			<rect id="SVGID_1_" x="-30.3" y="-41.6" width="99.2" height="128.4"/>
		</defs>
        <clipPath id="SVGID_00000176743519561450558670000015576502617955385772_">
			<use xlink:href="#SVGID_1_" style="overflow:visible;"/>
		</clipPath>
        <path style="clip-path:url(#SVGID_00000176743519561450558670000015576502617955385772_);fill:#F6F6F6;" d="M18.7,21.3
			c0-0.1,0-0.2,0.1-0.3c0.1-0.2,0.2-0.3,0.4-0.2c0.5,0.1,1.1,0.1,1.9,0.1c1.6,0,2.7-0.3,3.8-0.9c2.4-1.4,3.4-3.9,3.4-7.7
			c0-5.7-2.9-9.7-8.9-9.7c-0.8,0-9.9,0-12,0c-0.1,0-4.6,0-5.4,0C1.6,2.6,1.3,2.3,1.3,2l0-1c0-0.3,0.2-0.6,0.5-0.6
			c1.3,0,7.9-0.1,10.4-0.1c4.2-0.1,7,0,11.2,0c2.1,0,5.8,0,8.2,2c2.2,1.6,4.1,4.4,4.1,8.5c0,5.4-3,8.9-6,10.6
			c-2.3,1.3-4.8,1.8-7.3,1.8c-1.1,0-1.9,0-2.6-0.2c0,0-0.1,0-0.1-0.1c-0.4-0.3-0.8-1.2-0.9-1.5C18.7,21.4,18.7,21.3,18.7,21.3"/>
	</g>
        <g>
		<defs>
			<rect id="SVGID_00000078043882512436892650000003700516822829858227_" x="-30.3" y="-41.6" width="99.2"
                  height="128.4"/>
		</defs>
            <clipPath id="SVGID_00000174588411512257484880000003411726100332692886_">
			<use xlink:href="#SVGID_00000078043882512436892650000003700516822829858227_" style="overflow:visible;"/>
		</clipPath>
            <path style="clip-path:url(#SVGID_00000174588411512257484880000003411726100332692886_);fill:#F6F6F6;" d="M2.1,10.9
			c2,0,3.7,0.2,7.8,0.2c3.9,0,6-0.2,7.6-0.2c0.2,0.2,0.2,1.5,0,1.8c-1.5,0.1-2.2,0.3-2.9,0.4c-1.3,0.4-1.4,1-1.4,2.4
			c-0.1,1.5-0.1,5.8-0.2,11.2c0,6.4,0.1,12.1,0.2,14.1c0,1,0.7,1.5,1.1,1.7c1.4,0.4,5.9,0.4,8.3,0.3c1.2,0,2.1-0.4,3.3-1.9
			c0.4-0.5,1.7-2.5,2.1-3.5c0.3-0.4,2.6-1.3,2.9-0.8c-0.3,1.8-1.6,6.7-2.8,8.6c-0.2,0.4-0.8,0.8-2.8,0.8c-4.1,0-12.1-0.1-15.6-0.1
			c-3.5,0-6.7,0-8.3,0c-0.2-0.3-0.1-2,0.1-2.1C3.2,43.5,4,43.5,5,43.2c1.1-0.3,1.5-1,1.6-2.3c0.1-1.5,0.3-7.2,0.3-13.8
			c0-6.3,0-9.5-0.2-11.2c0-1.8-0.3-2.5-1.7-2.9c-0.7-0.2-2-0.3-3-0.4C1.8,12.3,1.9,11,2.1,10.9"/>
	</g>
</g>
</svg>
