<svg xmlns="http://www.w3.org/2000/svg" x="0px" y="0px" width="24" height="24" viewBox="0 0 48 48"
     xml:space="preserve" style=" fill:#FFFFFF;">
                            <style type="text/css">
                                .pl0{fill:#ED1C24;}
                            </style>
    <path d="M3.63,17.97c0-3.19,0.04-5.33-0.01-7.47C3.57,8.75,4.15,7.86,6.1,7.75c6.01-0.33,11.26-2.75,15.95-6.39
                                c1.5-1.17,2.53-1.14,4.02,0.01c4.76,3.68,10.09,6.1,16.2,6.41c1.35,0.07,2.17,0.61,2.15,1.97c-0.09,5.91,0.69,11.88-0.55,17.7
                                c-2.24,10.51-9.47,16.68-18.87,20.79c-0.58,0.26-1.11,0.36-1.72,0.1c-9.65-4.23-17-10.55-19.22-21.42
                                C3.39,23.65,3.6,20.27,3.63,17.97z">
                            </path>
    <path class="pl0" d="M15.89,22.84c1.14,0.03,1.66,0.9,2.32,1.54c3.16,3.09,3.16,3.1,6.32-0.07c1.93-1.93,3.86-3.87,5.79-5.81
                                c0.85-0.85,1.84-1.53,2.87-0.5c1.08,1.08,0.21,2.01-0.61,2.83c-3.14,3.14-6.32,6.25-9.41,9.44c-1.31,1.35-2.4,1.32-3.66-0.03
                                c-1.46-1.56-3.02-3.02-4.5-4.56c-0.47-0.49-0.84-1.09-0.44-1.85C14.87,23.26,15.28,22.88,15.89,22.84z">
                            </path>
                        </svg>