<svg xmlns="http://www.w3.org/2000/svg" x="0px" y="0px" width="24" height="24" viewBox="0 0 48 48"
     xml:space="preserve" style=" fill:#FFFFFF;">
                            <path d="M0.6,23.51c0-5.63-0.01-11.26,0-16.89c0.01-3.48,0.94-4.39,4.49-4.4c2.42-0.01,4.85,0.01,7.27,0
                                c1.51-0.01,2.93,0.17,4.13-1.35c0.94-1.2,2.77-1.15,3.67,0.09c1.05,1.43,2.3,1.25,3.64,1.26c2.77,0.02,5.54-0.02,8.31,0.01
                                c2.71,0.04,3.79,1.09,3.83,3.75c0.04,2.68-0.06,5.37,0.04,8.05c0.05,1.33-0.31,1.81-1.71,1.74c-2.51-0.12-5.02-0.04-7.53-0.03
                                c-4.58,0.02-6.38,1.84-6.39,6.51c-0.01,6.84-0.06,13.68,0.04,20.52c0.02,1.69-0.41,2.18-2.12,2.13c-4.59-0.12-9.18-0.02-13.77-0.05
                                c-2.84-0.02-3.89-1.08-3.9-3.94C0.58,35.12,0.6,29.31,0.6,23.51z">
                            </path>
    <path d="M47.4,33.12c0,3.63,0.02,7.26-0.01,10.89c-0.02,2.86-1.07,3.95-3.87,3.96c-5.79,0.03-11.59,0.04-17.38,0
                                c-2.54-0.02-3.68-1.11-3.69-3.61c-0.04-7.61-0.04-15.22,0-22.83c0.01-2.55,1.11-3.68,3.6-3.7c5.88-0.05,11.76-0.04,17.64,0
                                c2.63,0.02,3.67,1.14,3.7,3.87C47.43,25.51,47.4,29.31,47.4,33.12z">
                            </path>
    <path style="fill: #ED1C24;" d="M11.05,27.2c3.42,0.03,6.24,2.93,6.18,6.34c-0.06,3.41-3,6.21-6.41,6.11c-3.31-0.1-6.04-2.9-6.04-6.21
                                C4.77,30.02,7.63,27.17,11.05,27.2z">
                            </path>
    <path style="fill: #ED1C24;" d="M18.13,9.5c-1.9,0-3.81,0.02-5.71,0c-2.56-0.03-2.38-1.85-2.5-3.65c-0.15-2.2,1.37-1.49,2.39-1.52
                                c1.49-0.04,2.88-0.22,4.15,1.28c1.25,1.47,2.93,0.88,4.28-0.48c1.64-1.66,3.75-0.88,5.54-0.55c0.74,0.14,0.35,2.03,0.24,3.1
                                c-0.12,1.17-0.96,1.81-2.16,1.82C22.29,9.51,20.21,9.5,18.13,9.5z">
                            </path>
    <path style="fill: #ED1C24;" d="M19.29,3.26c-0.06,0.57-0.37,0.97-0.95,0.99c-0.71,0.03-1.12-0.41-1.06-1.11c0.05-0.55,0.45-0.92,1.04-0.88
                                C18.91,2.3,19.23,2.67,19.29,3.26z">
                            </path>
    <path style="fill: #ED1C24;" d="M34.85,28.22c-3.39,0-5.09-0.04-5.19-0.03c-0.19,0.03-0.85,0.15-1.68,0c-0.53-0.09-0.79-0.14-1.03-0.32
                                c-0.64-0.48-0.27-1.26-0.33-4.29c-0.01-0.35-0.02-0.76,0.24-1.09c0.43-0.55,1.3-0.51,1.63-0.51c4.24,0,8.49,0.05,12.73-0.03
                                c1.65-0.03,2.03,0.67,2.05,2.17c0.06,4.09,0.12,4.09-4,4.09C37.79,28.22,36.32,28.22,34.85,28.22z">
                            </path>
    <path style="fill: #ED1C24;" d="M28.64,33.41c-1.23,0.1-2.09-0.14-2.06-1.62c0.03-1.58,1.09-1.47,2.17-1.5c1.18-0.03,2.06,0.15,2.02,1.64
                                C30.73,33.5,29.7,33.47,28.64,33.41z">
                            </path>
    <path style="fill: #ED1C24;" d="M35.02,33.41c-1.23,0.08-2.19-0.02-2.19-1.55c0-1.54,0.98-1.57,2.1-1.57c1.13,0,2.1,0.04,2.09,1.58
                                C37,33.39,36.06,33.51,35.02,33.41z">
                            </path>
    <path style="fill: #ED1C24;" d="M41.1,33.42c-1.14,0.08-2.05-0.08-2.04-1.59c0.01-1.56,1.03-1.52,2.13-1.54c1.15-0.02,2.08,0.09,2.06,1.61
                                C43.23,33.45,42.23,33.47,41.1,33.42z">
                            </path>
    <path style="fill: #ED1C24;" d="M28.56,38.62c-1.14,0.1-2-0.14-1.97-1.63c0.03-1.58,1.09-1.47,2.17-1.5c1.18-0.03,2.06,0.15,2.02,1.65
                                C30.74,38.71,29.69,38.65,28.56,38.62z">
                            </path>
    <path style="fill: #ED1C24;" d="M34.73,38.62c-1.15,0.11-1.95-0.22-1.9-1.68c0.06-1.59,1.16-1.41,2.21-1.46c1.21-0.05,2.04,0.22,1.98,1.69
                                C36.95,38.76,35.86,38.63,34.73,38.62z">
                            </path>
    <path style="fill: #ED1C24;" d="M41.47,38.62c-1.25,0.01-2.34,0.14-2.4-1.45c-0.06-1.47,0.77-1.73,1.98-1.68c1.05,0.04,2.16-0.13,2.2,1.46
                                C43.29,38.38,42.53,38.77,41.47,38.62z">
                            </path>
    <path style="fill: #ED1C24;" d="M28.87,43.82c-1.13,0.01-2.22,0.14-2.28-1.44c-0.06-1.47,0.77-1.74,1.98-1.69c1.05,0.04,2.15-0.13,2.21,1.45
                                C30.82,43.6,30.02,43.93,28.87,43.82z">
                            </path>
    <path style="fill: #ED1C24;" d="M35.11,40.7c1.14-0.11,1.95,0.21,1.9,1.67c-0.06,1.58-1.15,1.42-2.21,1.46c-1.21,0.05-2.03-0.22-1.98-1.69
                                C32.89,40.56,33.98,40.7,35.11,40.7z">
                            </path>
    <path style="fill: #ED1C24;" d="M41.22,43.82c-1.12,0.05-2.14,0.04-2.16-1.52c-0.02-1.52,0.9-1.63,2.06-1.61c1.09,0.02,2.12-0.03,2.13,1.53
                                C43.27,43.73,42.36,43.91,41.22,43.82z">
                            </path>
    <polygon style="fill: #ED1C24;" points="3.66,21 3.66,23.06 18.31,23.06 18.31,21 16.21,21 16.19,16.83 14.1,16.83 14.12,20.98 11.99,20.98
                                12.02,14.75 9.93,14.75 9.94,21 7.83,21 7.85,17.87 5.75,17.87 5.75,21 ">
                            </polygon>
    <path style="fill: #FFFFFF;" d="M11.03,29.3c0.01,0.71,0.02,1.28,0.02,1.65c0.02,1.22,0.05,2.52,0.05,2.52c2.5-0.03,4.18-0.04,4.22-0.05
                                c0.02,0,0.04,0,0.06,0c0.02,0,0.04,0,0.05,0.01c0,0.01,0,0.02,0,0.02c0,0-0.01,0.05-0.02,0.13c0,0.02,0,0.03-0.01,0.03
                                c0,0,0.03-0.19,0.03-0.19c0,0-0.03,0.24-0.05,0.38c-0.01,0.07-0.01,0.09-0.02,0.12c-0.02,0.11-0.04,0.19-0.05,0.26
                                c-0.04,0.18-0.08,0.37-0.13,0.54c-0.06,0.19-0.18,0.52-0.46,0.93c-0.22,0.32-1,1.38-2.45,1.78c-0.23,0.06-1.15,0.32-2.28,0.01
                                c-2.03-0.55-3.26-2.02-3.11-4.18c0.03-0.43,0.1-1.59,0.97-2.59C9.03,29.31,10.75,29.3,11.03,29.3z">
                            </path>
                        </svg>