<?xml version="1.0" encoding="utf-8"?>
<!-- Generator: Adobe Illustrator 26.0.0, SVG Export Plug-In . SVG Version: 6.00 Build 0)  -->
<svg version="1.1" id="Capa_1" xmlns="http://www.w3.org/2000/svg" width="24" height="24" x="0px" y="0px"
     viewBox="0 0 24 24" style="enable-background:new 0 0 24 24;" xml:space="preserve">
<style type="text/css">
	.st0{fill:#FFFFFF;}
	.st1{fill:#ED1C24;}
</style>
    <path class="st0" d="M13.9,0H6C4.3,0,3,1.3,3,3v18c0,1.7,1.3,3,3,3h12c1.7,0,3-1.3,3-3V7.1c0-0.4-0.2-0.8-0.4-1.1L15,0.4
	C14.7,0.2,14.3,0,13.9,0z"/>
    <path class="st1" d="M14.2,5.2v-3l4.5,4.5h-3C14.9,6.8,14.2,6.1,14.2,5.2z"/>
    <path class="st1" d="M15,20.2v-9c0-0.4,0.3-0.8,0.8-0.8h1.5c0.4,0,0.8,0.3,0.8,0.8v9c0,0.4-0.3,0.8-0.8,0.8h-1.5
	C15.3,21,15,20.7,15,20.2z"/>
    <path class="st1" d="M11.2,21c-0.4,0-0.8-0.3-0.8-0.8v-6c0-0.4,0.3-0.8,0.8-0.8h1.5c0.4,0,0.8,0.3,0.8,0.8v6c0,0.4-0.3,0.8-0.8,0.8
	H11.2z"/>
    <path class="st1" d="M6.8,21C6.3,21,6,20.7,6,20.2v-3c0-0.4,0.3-0.8,0.8-0.8h1.5c0.4,0,0.8,0.3,0.8,0.8v3C9,20.7,8.7,21,8.2,21H6.8z
	"/>
</svg>
