<svg xmlns="http://www.w3.org/2000/svg" x="0px" y="0px" width="24" height="24" viewBox="0 0 48 48"
     xml:space="preserve" style=" fill:#FFFFFF;">
                            <style type="text/css">
                                .s2{fill:#ED1C24;}
                                .s3{fill:#ED1C24;}
                                .s4{fill:#ED1C24;}
                            </style>
    <path d="M25.27,48.7c-5.79,1.2-10.65-1.56-15.66-3.61c-2.12-0.86-2.79-2.43-1.9-4.62c4.79-11.84,9.54-23.7,14.36-35.52
                                c0.97-2.39,2.49-2.68,5.1-2.04c8.71,2.14,14.22,8.72,20.42,14.36c0.75,0.68,0.63,1.42,0.48,2.23c-0.93,5.18-1.86,10.36-2.79,15.54
                                c-0.1,0.54-0.04,1.24-0.35,1.57c-2.05,2.19-3.92,4.46-4.74,7.43c-0.04,0.13-0.3,0.32-0.43,0.3c-3.11-0.55-4.34,2.07-6.3,3.57
                                C31.01,49.78,27.98,48.32,25.27,48.7z">
                            </path>
    <path class="s0" d="M22.19,1.08c-2.23,2.1-2.63,4.81-3.85,7.11c-0.46,0.87-0.08,2.73-1.96,2.24c-1.66-0.44-2.97-1.41-3.08-3.35
                                C12.98,1.61,16.94-1.19,22.19,1.08z">
                            </path>
    <path class="s0" d="M5.05,43.18c-5.41-1.67-6.42-5.81-2.48-9.73c1.5-1.5,3.14-1.12,4.76-0.33c1.13,0.55,0.37,1.36,0.13,2.08
                                C6.57,37.83,4.95,40.23,5.05,43.18z">
                            </path>
    <path class="s1" d="M43.05,10.08c-1.25-1.14-2.37-2.05-3.33-3.09c-0.49-0.53-1.97-0.82-0.94-2.01c0.75-0.87,1.73-1.22,2.9-0.69
                                C43.65,5.16,44.21,7.15,43.05,10.08z">
                            </path>
    <path class="s2" d="M39.34,12.63c2.11,1.96,4.01,3.75,5.95,5.5c0.65,0.59,0.54,1.21,0.4,1.97c-0.88,4.82-1.7,9.65-2.54,14.48
                                c-0.08,0.45-0.08,1.07-0.36,1.29c-2.05,1.61-3.77,3.26-4.04,6.17c-0.09,0.97-1.77,0.14-2.7,0.29c-0.69,0.11-1.9-0.86-2.01,0.47
                                c-0.31,3.99-3.05,3.92-5.9,3.77c-0.6-0.03-1.25,0.23-1.89-0.3c0.76-1.89,2.09-3.58,2.36-6.11c1.96,1.75,3.1,0.69,4.07-0.94
                                c0.71-1.18,1.47-2.22,2.75-0.49c0.56,0.76,1.15,1.04,1.95,0.15c0.84-0.93-0.05-1.24-0.47-1.72c-0.36-0.41-0.81-0.74-1.15-1.16
                                c-1.28-1.63-2.29-1.6-3.59,0.13c-0.67,0.89-0.92,3.25-3.1,1.77c-1.23-0.83-1.54-3.68-0.5-5.15c0.74-1.05,1.68-1.97,2.85-2.48
                                c3.38-1.45,4.47-4.26,4.78-7.61c0.11-1.17,0.17-2.39,0.54-3.49C37.46,17.05,38.38,15.01,39.34,12.63z">
                            </path>
    <path class="s3" d="M25.32,15.86c0.22-1.73,3.36-5.04,5.13-5.23c1.74-0.19,2.74,0.83,2.34,2.44c-0.43,1.73-1.22,3.42-2.15,4.95
                                c-0.77,1.26-2.14,1.68-3.59,0.96C25.78,18.35,25.22,17.28,25.32,15.86z">
                            </path>
    <path class="s4" d="M16.54,37.74c0.04-1.93,0.61-3.51,2.56-4.09c1.47-0.44,2.7,0.13,3.48,1.44c0.31,0.51,0.66,1.52,0.44,1.74
                                c-1.53,1.5-3.02,3.45-4.91,4.04C16.69,41.31,16.77,38.96,16.54,37.74z">
                            </path>
                        </svg>