<?xml version="1.0" encoding="utf-8"?>
<!-- Generator: Adobe Illustrator 26.1.0, SVG Export Plug-In . SVG Version: 6.00 Build 0)  -->
<svg version="1.1" id="Capa_1" xmlns="http://www.w3.org/2000/svg" x="0px" y="0px"
     viewBox="0 0 99.21 99.21" width="24" height="24" style="enable-background:new 0 0 99.21 99.21;"
     xml:space="preserve">
<style type="text/css">
	.st0{fill:#EC1C24;}
	.st1{fill:#FEFEFE;}
	.st2{fill:#FDF7F8;}
</style>
    <path class="st0" d="M99.22,44.96c0,9.62,0,19.25,0,28.87c-0.21,2.35-0.68,4.6-1.88,6.69c-1.59,2.78-3.77,4.96-6.33,6.79
	c-5.13,3.66-10.23,7.37-15.35,11.05c-0.69,0.5-1.45,0.63-2.21,0.85c-19.89,0-39.79,0-59.68,0c-3.03-0.71-4.31-2.32-4.31-5.55
	c-0.02-15.19,0-30.38-0.02-45.57c0-0.49,0.26-1.18-0.25-1.41c-0.42-0.19-0.81,0.4-1.19,0.68c-0.83,0.62-1.61,1.29-2.46,1.87
	c-0.85,0.58-1.77,0.9-2.82,0.7c-1.59-0.3-2.5-1.22-2.7-2.84c0-3.55,0-7.11,0-10.66c0.05-1.86,1.51-2.66,2.75-3.59
	c2.97-2.22,5.82-4.58,8.8-6.79c0.83-0.62,1.23-1.33,1.22-2.44c-0.05-4.97-0.03-9.94-0.02-14.9c0-1.51,0.48-2.77,1.84-3.6
	c0.63-0.39,1.3-0.51,2.03-0.5c3.23,0,6.46,0.08,9.68-0.03c2.2-0.07,3.84,1.78,3.95,3.8c0.04,0.71,0.01,1.42,0.03,2.13
	c0.01,0.59,0.2,0.8,0.75,0.37c3.51-2.73,7-5.48,10.53-8.18c1.32-1.01,2.48-2.28,4.17-2.7c0.39,0,0.78,0,1.16,0
	c1.29,0.27,2.2,1.18,3.17,1.94c6.6,5.16,13.25,10.25,19.84,15.41c6.97,5.46,13.96,10.9,20.98,16.3c1.47,1.13,2.34,2.54,2.16,4.48
	c-0.07,0.74,0.01,1.48-0.02,2.23c-0.03,0.67,0.24,1.09,0.85,1.35c1.24,0.54,2.47,1.1,3.73,1.61C98.43,43.66,99.01,44.1,99.22,44.96z
	"/>
    <path class="st1" d="M69.09,34.52c-3.85,1.69-7.39,3.25-10.93,4.81c-3.48,1.53-6.96,3.08-10.46,4.57c-1.01,0.43-1.4,1.1-1.4,2.17
	c0.03,4.17-0.01,8.33,0.03,12.5c0.01,0.75-0.17,0.98-0.95,0.97c-3.39-0.04-6.78-0.02-10.17-0.02c-3.39,0.01-5.42,2.04-5.43,5.43
	c-0.01,9.95-0.01,19.89,0.01,29.84c0,0.85-0.16,1.16-1.1,1.14c-4.42-0.05-8.85-0.02-13.27-0.03c-1.65,0-2.2-0.55-2.2-2.22
	c0-16.69,0-33.39-0.01-50.08c0-0.64,0.18-1.05,0.7-1.45c10.59-8.21,21.16-16.43,31.73-24.66c0.41-0.32,0.7-0.52,1.23-0.1
	c7.2,5.63,14.41,11.23,21.63,16.84C68.61,34.31,68.74,34.35,69.09,34.52z"/>
    <path class="st1" d="M3.32,46.23c0-3.05,0-5.85,0-8.65c0-0.57,0.47-0.74,0.8-1c6.82-5.31,13.66-10.62,20.49-15.93
	C31.58,15.22,38.57,9.8,45.53,4.34c0.59-0.46,0.95-0.48,1.55-0.01c13.74,10.72,27.51,21.42,41.26,32.12
	c0.81,0.63,1.32,2.41,0.93,3.35c-0.21,0.51-0.55,0.09-0.77,0c-3.08-1.33-6.15-2.68-9.22-4.02c-1.77-0.78-3.49-1.74-5.33-2.27
	c-1.82-0.52-3.15-1.67-4.55-2.76c-7.19-5.58-14.37-11.18-21.55-16.77c-1.31-1.02-1.75-1.02-3.06,0
	C31.31,24.46,17.83,34.95,4.36,45.43C4.08,45.65,3.8,45.86,3.32,46.23z"/>
    <path class="st1" d="M33.07,79.83c0-4.87,0-9.75,0-14.62c0-1.89,0.47-2.37,2.33-2.37c3.26,0,6.52,0.04,9.78-0.02
	c0.97-0.02,1.15,0.3,1.15,1.2c0,3.16-0.23,6.33,0.12,9.48c0.56,5.17,2.96,9.36,7.08,12.53c1.74,1.34,3.54,2.59,5.34,3.85
	c0.47,0.33,0.68,0.68,0.66,1.27c-0.04,1.35-0.04,2.71,0,4.07c0.01,0.56-0.18,0.7-0.72,0.7c-8.33-0.01-16.65-0.02-24.98,0.01
	c-0.81,0-0.76-0.44-0.76-0.98C33.07,89.9,33.07,84.87,33.07,79.83z"/>
    <path class="st1" d="M49.61,60.03c0-4.16,0.02-8.33-0.02-12.49c0-0.66,0.21-0.97,0.8-1.22c7.24-3.15,14.48-6.32,21.71-9.5
	c0.45-0.2,0.82-0.22,1.28-0.02c7.29,3.21,14.58,6.4,21.88,9.58c0.48,0.21,0.66,0.48,0.66,1.02c-0.02,8.14,0.05,16.27-0.04,24.41
	c-0.05,4.69-1.98,8.63-5.73,11.45c-5.55,4.16-11.24,8.15-16.85,12.22c-0.42,0.31-0.71,0.26-1.1-0.03
	c-5.57-4.03-11.19-7.99-16.7-12.1c-3.77-2.81-5.72-6.7-5.84-11.4c-0.1-3.97-0.02-7.94-0.02-11.91
	C49.62,60.03,49.62,60.03,49.61,60.03z"/>
    <path class="st1" d="M16.52,22.55c0-3.56,0-7.04,0-10.52c0-1.03,0.02-2.07-0.01-3.1c-0.02-0.51,0.18-0.67,0.68-0.67
	c2.87,0.01,5.74,0.02,8.62,0c0.59,0,0.69,0.25,0.69,0.76c-0.02,1.77-0.01,3.55,0,5.33c0,0.37-0.06,0.68-0.38,0.93
	c-3.09,2.39-6.17,4.78-9.25,7.18C16.81,22.49,16.74,22.49,16.52,22.55z"/>
    <path class="st2" d="M66.8,95.91c-1.13,0-2.26,0-3.38,0c-0.32,0-0.58-0.05-0.58-0.46c0-0.71-0.01-1.42,0-2.13
	c0.01-0.41,0.23-0.41,0.5-0.22c1.19,0.86,2.38,1.72,3.57,2.58C66.87,95.77,66.84,95.84,66.8,95.91z"/>
    <path class="st0" d="M52.92,61.23c0-3.61,0.02-7.23-0.01-10.84c-0.01-1.08,0.41-1.73,1.4-2.16c5.8-2.51,11.59-5.05,17.37-7.6
	c0.74-0.32,1.39-0.35,2.13-0.02c5.81,2.56,11.63,5.11,17.46,7.64c0.96,0.42,1.35,1.08,1.35,2.1c-0.02,7.04,0.02,14.07-0.02,21.11
	c-0.02,3.93-1.62,7.14-4.8,9.47c-4.55,3.34-9.15,6.62-13.73,9.92c-0.99,0.71-1.58,0.71-2.55,0.01c-4.61-3.32-9.24-6.61-13.81-9.97
	c-3.14-2.31-4.73-5.48-4.76-9.39C52.9,68.07,52.92,64.65,52.92,61.23z"/>
    <path class="st1" d="M56.22,61.92c0-3.36,0.02-6.71-0.02-10.07c-0.01-0.66,0.21-0.95,0.8-1.21c5.04-2.17,10.06-4.38,15.08-6.59
	c0.48-0.21,0.88-0.22,1.37-0.01c5.02,2.21,10.04,4.41,15.08,6.58c0.6,0.26,0.79,0.59,0.79,1.24c-0.02,6.49-0.01,12.97-0.02,19.46
	c0,2.95-1.21,5.3-3.6,7.03c-4.08,2.95-8.17,5.88-12.23,8.85c-0.55,0.4-0.9,0.36-1.42-0.02c-3.99-2.91-7.98-5.81-12-8.67
	c-2.59-1.85-3.87-4.31-3.83-7.5C56.25,67.98,56.22,64.95,56.22,61.92z"/>
    <path class="st0" d="M69.47,76.03c-0.48,0.02-0.88-0.17-1.23-0.49c-2.14-1.92-4.28-3.83-6.4-5.77c-0.79-0.72-0.87-1.72-0.26-2.41
	c0.64-0.73,1.64-0.75,2.49,0c1.48,1.3,2.96,2.6,4.39,3.95c0.58,0.55,0.81,0.42,1.21-0.18c3.74-5.65,7.51-11.28,11.27-16.92
	c0.13-0.19,0.24-0.38,0.38-0.56c0.6-0.76,1.48-0.94,2.23-0.47c0.78,0.49,1.02,1.44,0.51,2.29c-0.55,0.91-1.17,1.78-1.76,2.67
	c-3.72,5.58-7.45,11.16-11.17,16.75C70.73,75.49,70.3,76.04,69.47,76.03z"/>
</svg>
