<?xml version="1.0" encoding="utf-8"?>
<!-- Generator: Adobe Illustrator 26.1.0, SVG Export Plug-In . SVG Version: 6.00 Build 0)  -->
<!--suppress ALL -->
<svg version="1.1" id="Capa_1" xmlns="http://www.w3.org/2000/svg" x="0px" y="0px"
     viewBox="0 0 99.21 99.21" width="32" height="32" style="enable-background:new 0 0 99.21 99.21;"
     xml:space="preserve">
<style type="text/css">
	.st0{fill:#F69B9E;}
	.st1{fill:#EC1C24;}
	.st2{fill:#FEFEFE;}
	.st3{fill:#FEFDFD;}
	.st4{fill:#FEFCFC;}
</style>
    <path class="st0" d="M-2.33,40.32c0.09,0.01,0.18,0.01,0.27,0.02c0.32,0.32,0.35,0.74,0.36,1.15c0.03,1.74,0.04,3.47,0,5.21
	c-0.01,0.41-0.05,0.83-0.4,1.13l-0.12,0.02l-0.11-0.03C-2.33,45.32-2.33,42.82-2.33,40.32z"/>
    <path class="st1" d="M-2.11,47.83c0.02-2.5,0.03-4.99,0.05-7.49c0.4-0.89,1.15-1.11,2.05-1.1c2.41,0.02,4.83-0.01,7.24,0.01
	c1.59,0.01,2.16,0.6,2.17,2.2c0,0.73-0.08,1.36,1,1.39c0.65,0.02,1.04,0.63,1.23,1.27c0.22,0.7,0.42,1.41,0.65,2.14
	c0.49-0.21,0.48-0.63,0.61-0.95c1.92-4.97,3.81-9.94,5.72-14.9c1.59-4.12,4.59-6.16,9.02-6.17c1.71,0,3.41-0.03,5.12,0.01
	c0.89,0.02,1.06-0.18,0.73-1.06c-1.91-5.13-2.65-10.47-2.71-15.91c-0.03-2.28,0.16-2.49,2.31-3.19c5.06-1.66,10.08-3.44,14.99-5.51
	c0.91-0.38,1.72-0.4,2.63-0.02c5.07,2.12,10.23,4,15.47,5.64C67.5,4.62,68,5.39,68,6.76c-0.02,5.58-0.73,11.04-2.66,16.29
	c-0.35,0.94-0.26,1.24,0.8,1.2c1.75-0.07,3.5-0.03,5.25-0.02c4.18,0.03,7.22,2.12,8.74,6.03c1.98,5.12,3.93,10.25,5.9,15.37
	c0.08,0.2,0.04,0.53,0.47,0.59c0.18-0.57,0.4-1.13,0.54-1.72c0.25-0.97,0.69-1.71,1.81-1.75c0.69-0.02,0.5-0.53,0.52-0.9
	c0.09-2.26,0.44-2.61,2.66-2.61c2.25,0,4.5-0.01,6.74,0c1.62,0.01,2.17,0.57,2.19,2.18c0.02,1.87,0.03,3.75,0,5.62
	c-0.02,1.38-0.62,2-1.99,2.01c-2.54,0.03-5.08,0.01-7.62,0.01c-0.21,0-0.47,0.04-0.61-0.07c-1.35-1.03-1.31,0.1-1.68,0.94
	c-0.6,1.37-0.32,2.49,0.4,3.73c1.71,2.95,3.28,5.98,4.94,8.96c0.46,0.83,0.69,1.65,0.68,2.61c-0.03,4.79-0.01,9.58-0.01,14.36
	c0,3.21-1.15,4.78-4.25,5.74c-0.58,0.18-0.66,0.49-0.65,1c0.02,1.58,0.03,3.16,0,4.75c-0.06,3.73-2.67,6.33-6.41,6.36
	c-2.16,0.02-4.33,0.02-6.49,0c-3.72-0.04-6.34-2.67-6.39-6.4c-0.02-1.58-0.02-3.16,0.01-4.75c0.01-0.59-0.18-0.84-0.79-0.79
	c-0.46,0.03-0.92,0.01-1.37,0.01c-13.16,0-26.31,0.01-39.47-0.02c-1.01,0-1.39,0.23-1.32,1.29c0.09,1.49,0.05,3,0.01,4.49
	c-0.1,3.46-2.66,6.07-6.12,6.16c-2.37,0.06-4.75,0.07-7.12,0c-3.39-0.1-5.96-2.7-6.05-6.08c-0.04-1.62-0.04-3.25,0-4.87
	c0.02-0.69-0.15-1.01-0.89-1.19c-2.54-0.63-4.01-2.53-4.02-5.17c-0.03-5.12,0-10.24-0.02-15.36c0-0.7,0.23-1.29,0.56-1.89
	c1.84-3.36,3.67-6.71,5.51-10.07c0.44-0.8,0.11-3.36-0.5-3.99C9.13,48.67,9,48.6,8.75,48.68c-3.06,0.9-6.19,0.24-9.28,0.38
	C-1.31,49.09-1.83,48.57-2.11,47.83z"/>
    <path class="st2" d="M86.87,66.07c1.39,0,2.68,0.01,3.97-0.01c0.53-0.01,0.74,0.19,0.73,0.73c-0.01,4.45,0.01,8.91-0.02,13.36
	c-0.01,1.21-0.67,1.78-1.9,1.86c-0.33,0.02-0.67,0-1,0c-26.18,0-52.37,0-78.55,0c-2.5,0-2.88-0.38-2.88-2.89
	c0-3.95,0.04-7.91-0.03-11.86c-0.02-1.03,0.32-1.28,1.27-1.22c1.12,0.08,2.24,0.02,3.51,0.02c-1.89,4.22-1.31,7.82,2.56,10.46
	c2.57,1.75,6.13,1.53,8.53-0.44c3.3-2.72,3.64-6.13,1.88-10.01c2.27,0,4.43,0.01,6.58-0.01c0.58,0,0.64,0.43,0.77,0.81
	c0.48,1.37,0.96,2.75,1.41,4.13c0.36,1.11,1.08,1.57,2.24,1.56c8.95-0.02,17.9-0.02,26.85,0c1.22,0,1.95-0.48,2.32-1.64
	c0.42-1.35,0.91-2.68,1.36-4.01c0.15-0.43,0.25-0.85,0.89-0.84c2.11,0.03,4.23,0.01,6.37,0.01c-1.43,5.34-0.76,8.19,2.38,10.3
	c2.66,1.79,6.21,1.69,8.77-0.26C87.78,73.93,88.42,70.86,86.87,66.07z"/>
    <path class="st2" d="M8.49,62.47c1.52-2.78,2.98-5.44,4.41-8.1c0.23-0.43,0.54-0.59,1-0.54c0.21,0.02,0.42,0,0.62,0
	c23.24,0,46.47,0.01,69.71-0.03c1.02,0,1.55,0.32,2,1.21c1.27,2.47,2.64,4.89,4.04,7.46C62.99,62.47,35.83,62.47,8.49,62.47z"/>
    <path class="st2" d="M64.43,9.76c-0.44,6.33-1.7,12.52-5.34,18c-2.14,3.22-4.96,5.68-8.41,7.46c-0.96,0.5-1.73,0.43-2.66-0.04
	c-5.92-3.01-9.5-7.94-11.58-14.08c-1.4-4.13-2.02-8.4-2.14-12.75c-0.02-0.76,0.23-1.08,0.95-1.31c4.54-1.49,9.05-3.1,13.46-4.95
	c0.57-0.24,1.02-0.14,1.54,0.08c4.15,1.72,8.35,3.32,12.65,4.63c1.3,0.4,1.81,0.96,1.53,2.26C64.39,9.24,64.43,9.46,64.43,9.76z"/>
    <path class="st2" d="M49.4,44.34c-8.2,0-16.4-0.02-24.59,0.02c-1.12,0.01-1.36-0.22-0.91-1.31c1.13-2.77,2.18-5.58,3.22-8.39
	c0.25-0.69,0.6-0.96,1.35-0.95c3.58,0.04,7.16,0.03,10.74,0.01c0.63,0,1.09,0.19,1.55,0.62c2.18,2.04,4.68,3.58,7.43,4.73
	c0.82,0.35,1.57,0.35,2.4,0.01c2.72-1.12,5.19-2.64,7.34-4.64c0.52-0.48,1.03-0.74,1.76-0.73c3.54,0.03,7.07,0.03,10.61,0
	c0.74-0.01,1.11,0.22,1.37,0.93c1.06,2.89,2.15,5.77,3.3,8.63c0.41,1.01,0,1.09-0.84,1.08C65.88,44.34,57.64,44.34,49.4,44.34z"/>
    <path class="st2" d="M61.75,30.22c0.49-0.82,0.87-1.41,1.2-2.02c0.24-0.44,0.62-0.48,1.06-0.48c2.58,0.01,5.16-0.04,7.74,0.03
	c2.35,0.06,4.07,1.22,4.93,3.41c2.38,6.08,4.68,12.2,7.04,18.29c0.25,0.65,0.18,0.94-0.57,0.89c-0.25-0.02-0.5,0-0.75,0
	c-22.03,0-44.06,0-66.08,0c-1.6,0-1.59,0-1.01-1.52c2.12-5.56,4.25-11.12,6.37-16.68c1.28-3.35,2.81-4.41,6.4-4.41
	c1.83,0,3.66,0,5.5,0c2.23,0,2.32,0.06,3.3,2.49c-2.04,0-4.02,0-6,0c-1.25,0-2.5-0.01-3.75,0.02c-1.35,0.03-2.29,0.69-2.78,1.95
	c-1.68,4.35-3.35,8.7-4.98,13.07c-0.58,1.56,0.2,2.57,1.95,2.58c4.16,0.02,8.33,0.01,12.49,0.01c14.28,0,28.57,0,42.85,0
	c0.37,0,0.75,0.02,1.12-0.01c1.46-0.1,2.18-1.11,1.67-2.5c-1.64-4.41-3.33-8.8-5.02-13.19c-0.53-1.38-1.63-1.92-3.06-1.92
	c-2.71,0.01-5.41,0-8.12,0C62.83,30.22,62.42,30.22,61.75,30.22z"/>
    <path class="st2" d="M18.34,85.52c1.75,0,3.49,0.02,5.24-0.01c0.63-0.01,0.89,0.16,0.87,0.84c-0.04,1.62,0.02,3.24-0.03,4.86
	c-0.06,1.65-1.12,2.71-2.79,2.75c-2.24,0.05-4.49,0.05-6.73,0c-1.66-0.04-2.71-1.13-2.75-2.77c-0.04-1.62,0.02-3.24-0.03-4.86
	c-0.02-0.69,0.24-0.83,0.87-0.82C14.77,85.55,16.55,85.52,18.34,85.52z"/>
    <path class="st2" d="M80.52,85.52c1.75,0,3.49,0.03,5.24-0.02c0.71-0.02,0.93,0.2,0.91,0.91c-0.05,1.54,0,3.08-0.02,4.61
	c-0.03,1.8-1.07,2.9-2.85,2.94c-2.2,0.04-4.41,0.04-6.61,0c-1.67-0.03-2.76-1.08-2.82-2.71c-0.06-1.66,0-3.32-0.03-4.99
	c-0.01-0.64,0.28-0.75,0.83-0.75C76.95,85.54,78.73,85.52,80.52,85.52z"/>
    <path class="st3" d="M49.39,66.06c4.12,0,8.23,0.02,12.35-0.02c0.95-0.01,1.38,0.07,0.94,1.2c-0.69,1.78-0.62,1.81-2.56,1.81
	c-7.32,0-14.63,0.01-21.95-0.01c-0.5,0-1.18,0.3-1.47-0.29c-0.37-0.73-0.66-1.54-0.77-2.35c-0.07-0.54,0.56-0.32,0.87-0.33
	c3.2-0.02,6.4-0.01,9.6-0.01C47.39,66.06,48.39,66.06,49.39,66.06z"/>
    <path class="st2" d="M18.36,74.14c-2.24-0.05-4.02-1.94-3.94-4.16c0.08-2.18,1.91-3.92,4.08-3.91c2.22,0.01,4.04,1.89,3.99,4.11
	C22.45,72.44,20.62,74.19,18.36,74.14z"/>
    <path class="st2" d="M80.33,74.14c-2.25,0.01-4.05-1.79-4.05-4.04c0-2.23,1.85-4.05,4.08-4.03c2.16,0.02,3.98,1.84,4,3.99
	C84.38,72.3,82.57,74.13,80.33,74.14z"/>
    <path class="st4" d="M3.77,42.76c0.12,0,0.25,0,0.37,0c1.7,0,2.25,0.76,1.77,2.39c-0.11,0.37-0.33,0.43-0.64,0.43
	c-1.08,0-2.15-0.01-3.23,0.01c-0.53,0.01-0.75-0.22-0.73-0.74c0.01-0.33,0.04-0.67-0.01-0.99c-0.12-0.87,0.23-1.21,1.1-1.1
	C2.86,42.8,3.32,42.76,3.77,42.76z"/>
    <path class="st4" d="M95.19,42.76c0.17,0,0.33,0,0.5,0c1.82,0,2.14,0.44,1.79,2.27c-0.1,0.52-0.4,0.56-0.79,0.56
	c-0.99,0-1.99-0.03-2.98,0.01c-0.67,0.03-0.9-0.24-0.84-0.87c0.03-0.29,0.04-0.58,0-0.87c-0.13-0.86,0.21-1.22,1.09-1.1
	C94.35,42.8,94.77,42.76,95.19,42.76z"/>
    <path class="st1" d="M43.19,15.76c0.49-0.02,0.94,0.27,1.33,0.67c0.67,0.68,1.37,1.34,1.99,2.07c0.56,0.66,0.94,0.68,1.56,0.02
	c1.99-2.12,4.05-4.19,6.09-6.26c0.91-0.92,2.05-1,2.74-0.22c0.72,0.82,0.67,1.7-0.07,2.46c-2.72,2.81-5.45,5.61-8.21,8.39
	c-0.85,0.86-1.8,0.85-2.65,0.02c-1.4-1.37-2.74-2.79-4.1-4.2c-0.54-0.56-0.69-1.23-0.37-1.95C41.81,16.08,42.36,15.75,43.19,15.76z"
    />
</svg>
