<?xml version="1.0" encoding="utf-8"?>
<!-- Generator: Adobe Illustrator 26.1.0, SVG Export Plug-In . SVG Version: 6.00 Build 0)  -->
<!--suppress ALL -->
<svg version="1.1" id="Capa_1" xmlns="http://www.w3.org/2000/svg" x="0px" y="0px"
     viewBox="0 0 99.21 99.21" width="24" height="24" style="enable-background:new 0 0 99.21 99.21;"
     xml:space="preserve">
<style type="text/css">
	.st0{fill:#EC1C24;}
	.st1{fill:#FEFEFE;}
	.st2{fill:#F8B4B7;}
	.st3{fill:#EE363D;}
	.st4{fill:#F37075;}
	.st5{fill:#FEFDFD;}
	.st6{fill:#FEFBFB;}
</style>
    <path class="st0" d="M0.01,63.57c0.54-0.93,1.35-1.19,2.42-1.18c4.71,0.05,9.43,0.02,14.14,0.02c3.36,0,5.3,1.45,6.27,4.64
	c0.05,0.18,0.03,0.38,0.25,0.48c0.44,0.21,2.48-0.03,2.87-0.38c1.2-1.08,2.38-2.19,3.82-2.95c0.33-0.18,0.44-0.42,0.44-0.78
	c-0.01-7.39,0-14.79,0-22.21c-0.48-0.09-0.72,0.28-1.02,0.46c-1.26,0.75-2.48,0.56-3.32-0.62c-0.99-1.4-1.94-2.82-2.87-4.25
	c-0.81-1.26-0.55-2.5,0.7-3.37c1.57-1.09,3.14-2.16,4.75-3.18c0.59-0.38,0.79-0.81,0.78-1.5c-0.04-2.49-0.02-4.97-0.01-7.46
	c0-1.19,0.58-1.89,1.49-1.86c0.87,0.03,1.4,0.71,1.41,1.85c0.01,1.87,0.01,3.75,0,5.62c-0.01,0.6,0.13,0.79,0.69,0.4
	c3.5-2.37,7-4.74,10.52-7.09c0.35-0.24,0.41-0.52,0.41-0.9c-0.01-2.68-0.02-5.36,0.01-8.04c0.01-0.61-0.22-0.77-0.79-0.76
	c-3.36,0.02-6.72,0.02-10.08,0c-0.61,0-0.78,0.22-0.76,0.79c0.04,1.03,0.03,2.07,0,3.1c-0.02,1.09-0.55,1.7-1.43,1.72
	c-0.91,0.01-1.45-0.63-1.47-1.77c-0.01-0.61-0.03-1.23,0-1.84c0.07-1.26-0.03-2.28-1.23-3.24c-1.72-1.39-1.55-6.51-0.02-8.12
	c0.53-0.56,1.24-0.78,1.88-1.13c5.36,0,10.72,0,16.08,0c2.22,0.78,3.16,2.36,2.99,4.68c-0.05,0.67,0,1.36-0.02,2.03
	c-0.03,1.35-0.59,2.43-1.73,3.18c-0.23,0.16-0.54,0.25-0.54,0.62c0,2.41,0,4.82,0,7.42c1.86-1.25,3.56-2.4,5.26-3.54
	c1.47-0.99,2.94-1.99,4.42-2.97c2.38-1.59,4.13-1.6,6.53,0.01c8.7,5.86,17.39,11.73,26.09,17.6c2.09,1.41,4.18,2.81,6.26,4.23
	c1.55,1.05,1.79,2.25,0.77,3.79c-0.84,1.26-1.69,2.52-2.54,3.77c-1,1.45-2.17,1.66-3.65,0.74c-0.56-0.35-1.11-1.17-1.67-0.88
	C87.72,40.87,88,41.87,88,42.5c-0.01,3-0.01,6.01-0.01,9.01c0,0.39,0.03,0.78-0.17,1.14c-0.33,0.6-0.85,0.89-1.53,0.77
	c-0.78-0.14-1.18-0.66-1.2-1.43c-0.03-1.26-0.01-2.52-0.01-3.78c0-3-0.01-6.01,0.01-9.01c0-0.57-0.14-0.94-0.64-1.27
	c-8.09-5.43-16.17-10.89-24.25-16.35c-0.47-0.32-0.79-0.31-1.27,0.01c-8.39,5.68-16.8,11.34-25.21,16.99
	c-0.46,0.31-0.62,0.64-0.62,1.18c0.02,7.39,0.02,14.79,0,22.18c0,0.66,0.09,0.81,0.85,0.73c3.79-0.41,7.59-0.69,11.32,0.48
	c0.9,0.28,1.75,0.68,2.55,1.17c0.51,0.31,0.67,0.19,0.66-0.38c-0.04-1.75,0.08-3.48,0.7-5.15c1.79-4.79,6.78-7.83,11.74-7.12
	c5.33,0.76,9.34,4.93,9.65,10.18c0.14,2.35,0.07,4.71,0.05,7.07c0,0.59,0.15,0.92,0.71,1.19c1.97,0.96,3.37,2.48,4.14,4.54
	c0.22,0.59,0.42,0.65,0.96,0.36c2.66-1.4,5.32-2.77,8.01-4.12c0.53-0.27,0.64-0.61,0.63-1.15c-0.02-3.55-0.01-7.1-0.01-10.65
	c0-0.29-0.02-0.58,0.01-0.87c0.08-0.87,0.63-1.41,1.42-1.43c0.83-0.02,1.44,0.54,1.47,1.47c0.04,1.29,0.01,2.58,0.02,3.87
	c0,2.03,0.02,4.07-0.01,6.1c-0.01,0.7,0.19,0.78,0.76,0.45c0.67-0.38,1.36-0.74,2.07-1.07c3.71-1.75,7.67,0.4,8.26,4.47
	c0.16,0.38-0.08,0.81,0.16,1.18c0,0.06,0,0.13,0,0.19c-0.27,2.11-1.51,3.47-3.21,4.66c-7.95,5.55-15.97,11.02-23.9,16.61
	c-2.75,1.94-5.72,3.34-8.99,4.14c-0.88,0.21-1.79,0.11-2.65,0.36c-0.19,0-0.39,0-0.58,0c-0.19-0.15-0.39-0.15-0.58,0
	c-0.58,0-1.16,0-1.74,0c-0.39-0.16-0.78-0.16-1.16,0c-0.52,0-1.03,0-1.55,0c-2.11-0.28-4.2-0.65-6.15-1.55
	c-2-0.92-3.95-1.92-5.9-2.93c-1.08-0.56-1.42-1.52-0.94-2.4c0.49-0.89,1.41-1.11,2.52-0.59c1.7,0.79,3.33,1.72,5.05,2.45
	c7.12,3.02,13.91,2.33,20.25-2c8.19-5.59,16.31-11.28,24.42-16.97c0.66-0.46,1.36-0.92,1.61-1.75c0.28-0.96,0.19-1.88-0.58-2.6
	c-0.89-0.82-1.94-0.85-2.98-0.36c-1.76,0.82-3.5,1.68-5.2,2.6c-3.15,1.7-6.38,3.26-9.55,4.94c-0.63,0.33-1.07,0.72-1.31,1.43
	c-0.68,1.94-2.03,2.92-4.11,2.93c-7.78,0.03-15.57,0.02-23.35,0c-1.36,0-2.13-0.64-2.18-1.7c-0.04-0.9,0.4-1.48,1.27-1.67
	c0.45-0.1,0.9-0.07,1.35-0.07c7.2,0,14.4,0,21.6,0c0.32,0,0.65-0.01,0.97-0.01c0.75,0,1.09-0.36,1.13-1.13
	c0.16-2.91-1.91-5.2-4.98-5.47c-0.39-0.03-0.77-0.02-1.16-0.02c-4.65,0-9.3-0.02-13.95,0.01c-1.14,0.01-1.93-0.34-2.55-1.36
	c-2.25-3.72-5.62-5.48-9.94-5.43c-1.65,0.02-3.3-0.12-4.94,0.08c-2.83,0.34-5.1,1.8-7.05,3.75c-1.07,1.07-2.28,1.48-3.75,1.42
	c-1.27-0.05-1.32,0.03-1.32,1.28c0,4.39,0,8.78,0,13.18c0,1.39,0.06,1.45,1.5,1.45c2.62,0,5.23,0.03,7.85-0.01
	c1.27-0.02,2.43,0.21,3.53,0.84c0.81,0.46,1.71,0.78,2.48,1.32c0.88,0.62,1.11,1.45,0.68,2.26c-0.42,0.79-1.29,1.07-2.26,0.72
	c-0.31-0.11-0.61-0.23-0.88-0.4c-1.69-1.1-3.54-1.4-5.54-1.3c-2.06,0.11-4.13,0.05-6.2,0.01c-0.74-0.01-1.18,0.22-1.47,0.94
	c-1.07,2.66-3.09,3.93-5.96,3.92c-4.91-0.02-9.82-0.01-14.73,0c-0.97,0-1.82-0.14-2.13-1.25c0-0.26,0-0.52,0-0.78
	c0.31-1.2,1.21-1.47,2.3-1.47c4.55,0,9.1,0,13.64,0c0.39,0,0.77,0.01,1.16-0.01c1.55-0.09,2.5-1.05,2.54-2.61
	c0.04-1.77,0.01-3.55,0.01-5.32c0-2.77,0-5.55,0-8.32c0-1.3-0.05-1.34-1.38-1.34c-5.06,0-10.13,0-15.19,0c-0.39,0-0.77-0.01-1.16,0
	c-0.94,0.02-1.63-0.32-1.92-1.27c0-0.26,0-0.52,0-0.78c0.33-1.26,1.29-1.47,2.4-1.46c5.13,0,10.27,0,15.4,0c1.88,0,1.88,0,1.86-1.85
	c-0.02-2-0.95-2.95-2.99-2.97c-4.49-0.03-8.98-0.01-13.46-0.01c-0.39,0-0.77,0.01-1.16,0c-1.34-0.04-1.61-0.23-2.04-1.46
	C0.01,63.95,0.01,63.76,0.01,63.57z"/>
    <path class="st1" d="M0.01,72.67c0.65,0.9,1.56,1.03,2.61,1.03c5.46-0.04,10.91,0,16.37-0.04c0.88-0.01,1.06,0.25,1.05,1.08
	c-0.04,4.62-0.01,9.23-0.02,13.85c0,2.25-1.08,3.31-3.33,3.31c-4.71,0-9.43,0.03-14.14-0.02c-1.08-0.01-1.95,0.18-2.54,1.14
	C0.01,86.24,0.01,79.46,0.01,72.67z"/>
    <path class="st1" d="M0.01,64.15c0.5,0.97,1.31,1.21,2.38,1.2c4.77-0.05,9.55-0.02,14.32-0.02c2.23,0,3.31,1.09,3.32,3.33
	c0.01,2.12,0.01,2.12-2.1,2.12c-5.16,0-10.32,0.02-15.48-0.02c-1.06-0.01-1.88,0.22-2.43,1.14C0.01,69.32,0.01,66.73,0.01,64.15z"/>
    <path class="st2" d="M99.22,73.26c-0.38-0.35-0.14-0.78-0.16-1.18c0.05-0.02,0.11-0.01,0.16,0.02
	C99.22,72.48,99.22,72.87,99.22,73.26z"/>
    <path class="st3" d="M56.4,99.22c0.39-0.31,0.78-0.29,1.16,0C57.17,99.22,56.78,99.22,56.4,99.22z"/>
    <path class="st4" d="M59.3,99.22c0.19-0.23,0.39-0.3,0.58,0C59.69,99.22,59.5,99.22,59.3,99.22z"/>
    <path class="st0" d="M55.49,41.48c0,0.97,0.04,1.94-0.01,2.91c-0.09,1.73-1.39,3.04-3.13,3.08c-1.9,0.05-3.81,0.05-5.72,0
	c-1.79-0.04-3.13-1.4-3.19-3.25c-0.06-1.84-0.05-3.68,0-5.52c0.05-1.89,1.37-3.23,3.26-3.28c1.87-0.05,3.75-0.06,5.62,0.01
	c1.86,0.06,3.1,1.38,3.17,3.25C55.53,39.6,55.5,40.54,55.49,41.48C55.5,41.48,55.49,41.48,55.49,41.48z"/>
    <path class="st0" d="M69.63,47.48c-0.87,0-1.74,0.01-2.62,0c-1.94-0.04-3.31-1.31-3.38-3.26c-0.07-1.84-0.06-3.68,0-5.52
	c0.07-1.97,1.39-3.24,3.35-3.29c1.78-0.04,3.55-0.04,5.33,0c2.01,0.05,3.32,1.34,3.39,3.35c0.06,1.77,0.06,3.55,0,5.33
	c-0.07,2.13-1.41,3.37-3.55,3.39C71.31,47.49,70.47,47.48,69.63,47.48z"/>
    <path class="st1" d="M59.52,13.17c0.56-0.02,0.99,0.19,1.39,0.46c10.65,7.18,21.29,14.37,31.95,21.54c0.53,0.36,0.5,0.61,0.17,1.06
	c-0.5,0.67-0.98,1.37-1.4,2.09c-0.33,0.56-0.61,0.56-1.13,0.21c-4.62-3.14-9.25-6.25-13.88-9.38c-5.11-3.45-10.22-6.9-15.33-10.34
	c-1.35-0.91-2.09-0.9-3.45,0.01c-9.69,6.53-19.38,13.06-29.05,19.62c-0.67,0.45-1,0.44-1.39-0.27c-0.37-0.68-0.82-1.32-1.29-1.93
	c-0.41-0.52-0.28-0.77,0.24-1.11c5.18-3.46,10.34-6.95,15.5-10.43c5.38-3.63,10.75-7.26,16.13-10.89
	C58.47,13.48,58.94,13.14,59.52,13.17z"/>
    <path class="st1" d="M60.22,69.23c-2.1,0-4.19,0-6.29,0c-1.02,0-2.5-1.24-2.52-2.27c-0.02-1.9-0.2-3.81,0.12-5.7
	c0.68-4.02,4.2-6.88,8.31-6.77c3.95,0.1,7.35,3.16,7.81,7.12c0.27,2.34,0.05,4.7,0.11,7.06c0.02,0.6-0.37,0.57-0.77,0.56
	C64.74,69.23,62.48,69.23,60.22,69.23z"/>
    <path class="st1" d="M37.85,7.59c-2.26,0-4.51-0.02-6.77,0.01c-0.91,0.01-1.31-0.35-1.27-1.27c0.03-0.77,0.01-1.55,0.01-2.32
	c-0.01-0.71,0.32-1.09,1.04-1.09c4.71,0,9.42,0,14.12,0c0.67,0,1.02,0.34,1.02,1.01c0.01,0.84-0.01,1.68,0.01,2.52
	c0.01,0.82-0.38,1.15-1.19,1.15C42.49,7.58,40.17,7.59,37.85,7.59z"/>
    <path class="st0" d="M8.8,78.89c2.6,0,4.74,2.15,4.73,4.77c-0.01,2.62-2.16,4.73-4.78,4.71c-2.57-0.02-4.67-2.14-4.68-4.71
	C4.06,81.03,6.19,78.89,8.8,78.89z"/>
    <path class="st1" d="M52.59,41.43c0,0.77-0.02,1.55,0.01,2.32c0.02,0.55-0.14,0.84-0.76,0.83c-1.58-0.03-3.16-0.02-4.74,0
	c-0.54,0.01-0.75-0.22-0.75-0.75c0.01-1.58,0.02-3.16,0-4.74c-0.01-0.6,0.26-0.78,0.82-0.77c1.55,0.02,3.1,0.02,4.65,0
	c0.59-0.01,0.81,0.21,0.79,0.79C52.57,39.88,52.59,40.66,52.59,41.43z"/>
    <path class="st5" d="M69.73,38.33c0.78,0,1.55,0.02,2.32-0.01c0.55-0.02,0.75,0.23,0.74,0.75c-0.01,1.58-0.01,3.16,0,4.75
	c0.01,0.59-0.25,0.78-0.83,0.77c-1.55-0.03-3.1-0.02-4.65,0c-0.52,0.01-0.79-0.16-0.79-0.71c0.01-1.61,0.01-3.23,0-4.84
	c0-0.55,0.26-0.73,0.78-0.71C68.11,38.34,68.92,38.33,69.73,38.33z"/>
    <path class="st6" d="M8.82,85.45c-0.98,0.02-1.8-0.76-1.84-1.74c-0.04-1.01,0.78-1.89,1.79-1.91c0.97-0.02,1.8,0.78,1.84,1.75
	C10.65,84.56,9.83,85.43,8.82,85.45z"/>
</svg>
