<?xml version="1.0" encoding="utf-8"?>
<!-- Generator: Adobe Illustrator 26.1.0, SVG Export Plug-In . SVG Version: 6.00 Build 0)  -->
<svg version="1.1" id="Capa_1" xmlns="http://www.w3.org/2000/svg" x="0px" y="0px"
     viewBox="0 0 99.21 99.21" width="24" height="24" style="enable-background:new 0 0 99.21 99.21;"
     xml:space="preserve">
<style type="text/css">
	.st0{fill:#ED1C24;}
	.st1{fill:#FEFEFE;}
	.st2{fill:#FDECEC;}
	.st3{fill:#F9C1C3;}
	.st4{fill:#EE2129;}
</style>
    <path class="st0" d="M49.5,99.67c-14.46,0-28.92,0-43.38,0c-2.54,0-2.8-0.26-2.8-2.86c0-22.34,0.01-44.67-0.03-67.01
	c0-1.54,0.47-2.45,1.82-3.25c14.3-8.47,28.57-17,42.83-25.55c1.14-0.69,2.07-0.75,3.24-0.06c14.38,8.57,28.79,17.1,43.2,25.61
	c1.11,0.65,1.5,1.46,1.5,2.71c-0.03,22.57-0.02,45.14-0.02,67.71c0,2.15-0.45,2.54-2.81,2.54c-14.52,0-29.04,0-43.55,0
	C49.5,99.57,49.5,99.62,49.5,99.67z"/>
    <path class="st1" d="M29.5,53.05c-5.96,8.27-10.23,16.76-10.76,26.77c-0.27,5.1,0.28,10.09,1.77,14.96c0.39,1.26,0.2,1.63-1.17,1.61
	c-3.76-0.07-7.52-0.05-11.28,0.03c-1.16,0.02-1.48-0.32-1.48-1.48c0.03-21.39,0.03-42.78,0-64.17c0-0.98,0.38-1.46,1.16-1.92
	c13.58-8.08,27.14-16.17,40.69-24.29c0.89-0.53,1.51-0.5,2.38,0.02c13.52,8.05,27.06,16.08,40.62,24.07
	c0.88,0.52,1.18,1.09,1.18,2.09c-0.03,21.27-0.03,42.54,0.01,63.82c0,1.33-0.34,1.72-1.67,1.66c-2.46-0.1-4.94-0.11-7.4,0.01
	c-1.56,0.07-1.97-0.17-1.48-1.87c5.43-18.68,2.97-36.36-7.04-53c-3.44-5.71-7.91-10.49-13.34-14.36c-1.87-1.34-3.93-2.32-6.02-3.27
	c-5.64-2.58-11.01-1.5-16.29,1.02c-2.3,1.09-3.8,3.03-4.46,5.43c-0.77,2.79-2.4,4.49-5.09,5.5c-1.91,0.71-3.71,1.77-5.52,2.73
	c-2.99,1.58-3.79,4.59-1.99,7.44c1.16,1.83,2.45,3.59,3.59,5.44C26.7,52.55,27.55,53.55,29.5,53.05z"/>
    <path class="st1" d="M69.73,39.53c5.74,7.6,9.2,16.17,10.89,25.49c1.82,10.08,1.02,19.99-2.04,29.75c-0.34,1.09-0.78,1.48-1.93,1.46
	c-3.05-0.07-6.11-0.04-9.16,0.01c-0.94,0.02-1.45-0.13-1.65-1.24c-1.2-6.41-4.92-10.79-10.99-13.11c-1.41-0.54-1.97-1.77-2.86-2.75
	c-0.43-0.48,0.09-0.87,0.26-1.26c0.97-2.28,0.87-4.5-0.56-6.53c-0.65-0.92-0.83-1.94-0.99-2.96c-0.68-4.36-3.01-7.43-7.02-9.25
	c-0.32-0.15-0.64-0.3-0.95-0.46c-3.37-1.69-3.41-1.82-3.05-5.62c0.08-0.8,0.42-0.96,1.1-1c1.52-0.1,3.04-0.33,4.56-0.36
	c1.48-0.03,2.42-0.63,2.95-2.03c0.31-0.82,0.8-1.57,1.14-2.38c0.37-0.89,0.09-1.64-0.75-2.09c-0.87-0.47-1.87-0.23-2.09,0.61
	c-0.74,2.78-2.89,2.74-5.07,2.9c-3.86,0.29-7.73,0.63-11.58,1.05c-1.69,0.18-1.74-1.31-2.42-2.12c-0.69-0.81,0.35-1.07,0.73-1.46
	c1.61-1.67,2.41-3.62,2.05-5.93c-0.14-0.87,0.09-1.36,0.89-1.59c3.87-1.11,5.91-3.83,6.94-7.6c0.56-2.06,2.09-3.35,4.15-3.97
	c0.45-0.14,0.89-0.3,1.34-0.43c4.52-1.35,3.47-2.09,6.42,2.3c2.35,3.5,3.02,7.26,2.91,11.37c-0.12,4.33,2.41,7.59,6.21,8.53
	c4.89,1.21,9.15-1.72,10.27-7.06C69.76,41.08,69.26,40.23,69.73,39.53z"/>
    <path class="st1" d="M43.47,96.17c-5.87,0-11.75-0.04-17.62,0.03c-1.15,0.01-1.63-0.36-1.95-1.43c-3.48-11.6-2.27-22.62,3.93-33.06
	c0.81-1.36,1.6-2.73,2.42-4.09c1.17-1.94,2.83-3.25,4.98-3.99c0.86-0.29,1.24-0.16,1.13,0.79c-0.01,0.06,0,0.12,0,0.18
	c0.07,5.5-0.7,4.11,4.32,6.74c1.66,0.87,3.42,1.55,4.73,2.99c1.6,1.76,1.9,3.99,2.33,6.17c0.18,0.94,0.44,1.78,1.08,2.54
	c0.92,1.09,0.99,2.35,0.32,3.62c-2.67,5.06-8.55,6.14-12.74,2.31c-0.91-0.83-1.85-1.48-2.87-0.37c-1.04,1.13-0.21,2.02,0.64,2.84
	c4.01,3.86,9.85,4.27,14.31,0.86c0.97-0.74,1.45-0.67,2.01,0.28c0.79,1.33,2.02,1.96,3.46,2.5c4.48,1.7,7.26,4.99,8.52,9.62
	c0.34,1.24-0.02,1.49-1.2,1.48C55.33,96.14,49.4,96.17,43.47,96.17z"/>
    <path class="st1" d="M52.26,26.31c5.41,1.09,13.08,5.84,13.77,12.88c0.13,1.3,0.19,2.57-0.4,3.79c-1.01,2.09-3.25,3.18-5.58,2.69
	c-2.17-0.46-3.81-2.32-3.79-4.67c0.02-4.26-0.11-8.46-2.53-12.21C53.25,28.02,52.81,27.23,52.26,26.31z"/>
    <path class="st2" d="M27.07,41.48c0.05,0.88-1.12,2.75-1.7,2.64c-0.56-0.1-0.64-0.65-0.7-1.1c-0.1-0.87,1.13-2.14,1.98-2.12
	C27.12,40.91,27.06,41.21,27.07,41.48z"/>
    <path class="st3" d="M69.73,39.53c-0.13,0.75,0.23,1.57-0.33,2.26c-0.02-0.79-0.04-1.57-0.06-2.36c0-0.05,0.04-0.12,0.09-0.13
	C69.64,39.22,69.69,39.37,69.73,39.53z"/>
    <path class="st0" d="M76.05,58.95c-0.05,2.01-0.69,3.55-1.95,4.81c-3.23,3.25-6.49,6.47-9.71,9.73c-1.1,1.11-2.09,1.07-3.17-0.02
	c-3.22-3.26-6.51-6.45-9.7-9.74c-2.6-2.69-2.56-6.64-0.05-9.2c2.55-2.6,6.56-2.61,9.35-0.03c2,1.85,2,1.85,4.02-0.02
	c2.08-1.93,4.91-2.48,7.34-1.33C74.71,54.33,75.93,56.4,76.05,58.95z"/>
    <path class="st4" d="M40.1,35.93c0.11-1.19,0.83-2.01,2.18-2.14c1.25-0.12,2.42,1.04,2.34,2.3c-0.09,1.36-0.87,2.14-2.25,2.2
	C41.15,38.34,40.12,37.31,40.1,35.93z"/>
    <path class="st4" d="M43.61,69.8c-0.2,1.37-0.97,2.15-2.32,2.2c-1.25,0.05-2.39-1.19-2.22-2.42c0.19-1.32,0.99-2.13,2.38-2.06
	C42.85,67.59,43.49,68.48,43.61,69.8z"/>
    <path class="st1" d="M52.98,58.75c0.03-0.98,0.63-1.99,1.87-2.55c1.24-0.56,2.44-0.4,3.44,0.49c1.05,0.93,2.03,1.95,3,2.96
	c1.02,1.05,1.99,1.09,3.02,0.02c0.85-0.89,1.72-1.76,2.61-2.61c1.56-1.49,3.51-1.56,4.84-0.2c1.27,1.3,1.25,3.26-0.18,4.72
	c-2.66,2.73-5.38,5.39-8.06,8.11c-0.52,0.52-0.84,0.59-1.39,0.02c-2.71-2.76-5.46-5.48-8.2-8.22C53.3,60.85,52.97,60.05,52.98,58.75
	z"/>
</svg>
