<?xml version="1.0" encoding="utf-8"?>
<!-- Generator: Adobe Illustrator 26.1.0, SVG Export Plug-In . SVG Version: 6.00 Build 0)  -->
<svg version="1.1" id="Capa_1" xmlns="http://www.w3.org/2000/svg" x="0px" y="0px"
     viewBox="0 0 99.21 99.21" width="24" height="24" style="enable-background:new 0 0 99.21 99.21;"
     xml:space="preserve">
<style type="text/css">
	.st0{fill:#ED1720;}
	.st1{fill:#FEFEFE;}
	.st2{fill:#EE2830;}
	.st3{fill:#EE1E27;}
	.st4{fill:#EE1D26;}
	.st5{fill:#FEFBFB;}
	.st6{fill:#FEFAFA;}
	.st7{fill:#FDF6F6;}
	.st8{fill:#FEF8F8;}
	.st9{fill:#FDF3F4;}
	.st10{fill:#EF2D35;}
</style>
    <path class="st0" d="M98.75,71.77c-6.86-6.73-13.7-13.49-20.6-20.18c-1.29-1.25-1.28-2.08-0.06-3.48c4.16-4.77,4.14-6.72-0.13-11.06
	c-1.06-1.08-0.79-2.02-0.7-3.12c0.27-3.37-1.11-5.82-4.3-6.91c-1.4-0.48-2.22-1.13-2.52-2.53c-0.05-0.25-0.1-0.57-0.26-0.72
	c-3.32-2.92-6.11-6.42-9.39-9.3c-2.53-2.22-6.08-1.14-8.22,1.58c-2.47,3.14-4.36,2.67-6.5-0.19c-0.84-1.12-1.94-2.06-2.98-3.01
	c-4.16-3.82-9.02-2.94-11.19,2.18c-0.57,1.35-1.22,2.13-2.57,2.43c-0.37,0.08-0.91,0.19-1.04,0.45c-2.18,4.49-7.65,6.01-9.6,10.59
	c-0.56,1.33-1.42,1.58-2.45,2.05c-4.71,2.13-5.73,6.74-2.47,10.71c1.04,1.26,3.47,2.31,2.92,3.77c-1.27,3.35-0.49,7.45-2.99,10.16
	c-4.34,4.7-9.1,9.01-13.68,13.49c0,0.77,0,1.54,0,2.31c1.24,1.97,2.72,1.54,4.23,0.39c1.23-0.94,2.27-2.09,3.35-3.19
	c1.14-1.17,2.28-1.89,4.08-1.39c2.63,0.73,4.08-0.3,3.5-3.17c-0.3-1.49-0.55-2.91,1.05-3.69c1.71-0.83,2.56,0.72,3.52,1.65
	c3.13,3.05,6.21,6.15,9.27,9.27c0.86,0.88,2.16,1.72,1.33,3.25c-0.73,1.35-1.96,1.27-3.35,1.1c-3.37-0.42-4.03,0.14-3.45,3.45
	c0.35,2.03-0.55,3.14-1.75,4.35c-3.36,3.37-6.81,6.65-10.05,10.13c-1.48,1.59-3.16,3.34-0.93,5.63c0.77,0,1.54,0,2.31,0
	c2-0.98,3.5-2.56,5.04-4.11c6.17-6.19,12.38-12.34,18.52-18.56c1.61-1.63,3.32-2.69,5.72-2.69c3.05-0.01,5.7-1.45,8.31-2.85
	c4.24-2.28,4.24-2.3,7.74,1.2c7.91,7.9,15.83,15.8,23.71,23.73c1.28,1.29,2.63,2.44,4.23,3.29c0.77,0,1.54,0,2.31,0
	c2.83-2.13,0.83-3.83-0.64-5.33c-5.44-5.59-11.01-11.06-16.52-16.59c-3.52-3.53-3.52-3.54,0.12-7.19c2.26-2.27,4.59-4.46,6.76-6.81
	c1.58-1.71,2.76-1.71,4.39,0.01c3.52,3.71,7.15,7.33,10.85,10.85c1.5,1.42,3.18,2.99,5.06,0.37C98.75,73.31,98.75,72.54,98.75,71.77
	z"/>
    <path class="st1" d="M10.82,98.76c-0.83-1.92-0.13-3.31,1.31-4.69c3.89-3.74,7.66-7.61,11.47-11.43c1.16-1.16,2.77-2.18,0.65-4
	c-0.82-0.7-0.89-1.91,0.06-2.73c0.95-0.82,1.95-0.46,2.76,0.3c2.51,2.38,3.21-0.63,4.49-1.57c1.65-1.22,0.32-2.18-0.57-3.08
	c-4.09-4.09-8.19-8.17-12.27-12.28c-0.96-0.97-1.95-2.02-3.07-0.38c-0.85,1.24-3.7,1.8-1.66,4.19c0.81,0.95,1.42,2.01,0.37,3.05
	c-1.03,1.02-2.19,0.58-3.04-0.35c-1.36-1.49-2.19-0.46-3.12,0.49c-1.26,1.28-2.62,2.48-3.8,3.83c-1.28,1.47-2.66,1.85-4.38,0.88
	c0,8.61,0.06,17.23-0.05,25.84c-0.02,1.66,0.31,2.08,1.98,1.98C4.9,98.64,7.87,98.76,10.82,98.76z"/>
    <path class="st1" d="M98.75,74.08c-1.91,1.12-3.27,0.31-4.65-1.11c-3.75-3.86-7.67-7.58-11.39-11.47c-1.43-1.5-2.34-1.84-3.92-0.12
	c-3.13,3.4-6.4,6.67-9.8,9.79c-1.75,1.61-1.75,2.59-0.03,4.26c6.36,6.16,12.52,12.52,18.84,18.72c1.46,1.44,2.17,2.76,0.92,4.61
	c3.34,0,7.99,1.3,9.66-0.37c1.67-1.67,0.37-6.32,0.37-9.66C98.75,83.85,98.75,78.96,98.75,74.08z"/>
    <path class="st2" d="M74.07,0.03c-1.47,2.77-0.66,5.73-0.73,8.62c-0.02,1.05,0.72,1.67,1.68,1.77c1.18,0.12,2.05-0.62,2.06-1.76
	c0.04-2.89,0.73-5.85-0.7-8.63C75.61,0.03,74.84,0.03,74.07,0.03z"/>
    <path class="st2" d="M22.39,0.03c-1.41,2.64-0.69,5.49-0.75,8.25c-0.03,1.3,0.73,2.24,2.13,2.13c1.17-0.09,1.78-0.97,1.72-2.14
	c-0.15-2.76,0.69-5.61-0.78-8.24C23.94,0.03,23.16,0.03,22.39,0.03z"/>
    <path class="st2" d="M98.75,22.4c-2.64-1.43-5.49-0.69-8.25-0.76c-1.3-0.03-2.25,0.73-2.14,2.12c0.09,1.17,0.97,1.79,2.14,1.73
	c2.76-0.15,5.61,0.69,8.24-0.78C98.75,23.94,98.75,23.17,98.75,22.4z"/>
    <path class="st2" d="M0.02,24.72c2.77,1.47,5.74,0.66,8.63,0.73c1.05,0.02,1.68-0.72,1.77-1.68c0.11-1.18-0.62-2.05-1.76-2.07
	c-2.89-0.04-5.85-0.73-8.63,0.7C0.02,23.17,0.02,23.94,0.02,24.72z"/>
    <path class="st3" d="M93.46,3.5c-0.33,0.1-0.79,0.11-1.03,0.35c-3.2,3.11-6.41,6.23-9.52,9.43c-0.65,0.67-0.57,1.7,0.18,2.43
	c0.75,0.73,1.76,0.8,2.43,0.14c3.19-3.12,6.41-6.23,9.37-9.57C95.93,5.12,95.12,3.89,93.46,3.5z"/>
    <path class="st4" d="M3.5,5.05c0.07,0.4,0.04,0.71,0.18,0.89c3,3.81,6.39,7.24,10.24,10.19c0.59,0.45,1.54,0.06,2-0.67
	c0.53-0.84,0.46-1.74-0.25-2.46c-2.96-3-5.87-6.06-8.97-8.91C5.38,2.89,4.11,3.46,3.5,5.05z"/>
    <path class="st1" d="M56.33,63.41c1.24,0.03,1.79-0.74,2.42-1.36c1.28-1.26,2.81-2.37,3.75-3.85c1.36-2.14,6.01-2.99,3.84-6.34
	c-1.41-2.18-3.12-4.5-5.27-6.49c-3.41-3.16-7.78-5.79-9.92-10.25c-0.5-1.04-1.13-1.5-2.12-1.96c-4.56-2.1-5.89-5.35-3.63-9.58
	c0.87-1.63,0.67-2.45-0.53-3.55c-1.61-1.47-3.07-3.11-4.68-4.58c-1.28-1.17-2.78-1.48-4.08-0.09c-1.19,1.27-0.77,2.63,0.28,3.79
	c1.21,1.33,2.53,2.55,3.74,3.88c0.78,0.85,0.98,1.85,0.07,2.74c-0.91,0.88-1.91,0.63-2.75-0.13c-1.23-1.12-2.37-2.35-3.59-3.49
	c-1.23-1.14-2.66-1.85-4.08-0.47c-1.54,1.5-0.9,3.04,0.4,4.37c1.7,1.75,3.45,3.45,5.15,5.19c0.96,0.98,1.73,2.11,0.5,3.32
	c-1.3,1.28-2.34,0.21-3.27-0.69c-1.75-1.7-3.44-3.46-5.2-5.14c-1.36-1.29-2.93-1.83-4.36-0.23c-1.31,1.47-0.53,2.87,0.63,4.06
	c1.79,1.84,3.63,3.63,5.42,5.47c0.87,0.89,1.44,1.93,0.33,3.01c-1.08,1.06-2.13,0.54-3.03-0.33c-1.84-1.79-3.63-3.63-5.48-5.41
	c-1.33-1.28-2.88-2-4.35-0.36c-1.26,1.4-0.7,2.9,0.52,4.1c5.93,5.86,11.76,11.84,17.89,17.49c3.45,3.19,7.86,4.75,12.54,5.46
	C50.48,62.46,53.64,62.13,56.33,63.41z"/>
    <path class="st5" d="M48.3,65.94c-11.32-1.04-18.17-8.02-25.02-15.08c-0.9-0.93-1.92-3.34-3.29-2.09c-1.33,1.22-2.07,4-0.53,5.65
	c4.9,5.26,10.1,10.24,15.19,15.32c0.17,0.17,0.57,0.43,0.63,0.38C38.81,66.97,44.15,70,48.3,65.94z"/>
    <path class="st6" d="M60.52,67.47c0.61,0.48,1.76,1.5,3.03,2.35c1.25,0.83,1.84-0.44,2.5-1.09c3.39-3.33,6.64-6.8,10.12-10.02
	c1.79-1.66,1.2-2.66-0.25-4c-1.27-1.17-2.14-2.46-3.96-0.49c-3.3,3.58-6.86,6.93-10.29,10.39C61.15,65.12,60.4,65.54,60.52,67.47z"
    />
    <path class="st7" d="M54.78,33.35c0.03,2.24,2.42,3.62,4.09,2.2c2.71-2.3,5.13-4.95,7.56-7.56c0.86-0.93,0.67-2.18-0.2-3.14
	c-0.87-0.96-2.06-1.33-3.09-0.54c-3.06,2.31-5.73,5.05-8.08,8.07C54.83,32.65,54.84,33.1,54.78,33.35z"/>
    <path class="st8" d="M61.26,40.23c0.5,1.83,1.89,3.19,3.61,2.08c3.34-2.15,6.1-5.08,8.37-8.37c0.49-0.72,0.24-1.76-0.44-2.5
	c-0.78-0.86-1.9-1.25-2.79-0.67c-3.45,2.27-6.29,5.2-8.63,8.61C61.26,39.56,61.31,39.87,61.26,40.23z"/>
    <path class="st8" d="M57.89,17.51c-0.95-0.02-1.76,0.33-2.42,0.99c-2.09,2.09-4.2,4.15-6.24,6.28c-1.22,1.28-1.48,2.78-0.06,4.07
	c1.26,1.14,2.65,0.84,3.8-0.27c2.21-2.14,4.38-4.33,6.52-6.54c0.87-0.9,1.14-2.01,0.58-3.19C59.63,17.96,58.86,17.56,57.89,17.51z"
    />
    <path class="st9" d="M69.97,49.15c2.31,0.15,7.45-5.06,7.14-6.96c-0.1-0.58-0.42-1.35-0.88-1.62c-3.46-2.04-4.63,1.38-6.51,2.92
	c-1.54,1.26-2.79,2.84-1.08,4.87C69.01,48.81,69.7,48.99,69.97,49.15z"/>
    <path class="st10" d="M21.07,71.05c-0.05-1.01-0.63-1.74-1.85-1.72c-1.02,0.01-1.63,0.62-1.66,1.66c-0.04,1.21,0.58,1.92,1.81,1.89
	C20.39,72.85,20.97,72.25,21.07,71.05z"/>
</svg>
