<?xml version="1.0" encoding="utf-8"?>
<!-- Generator: Adobe Illustrator 26.1.0, SVG Export Plug-In . SVG Version: 6.00 Build 0)  -->
<svg version="1.1" id="Capa_1" xmlns="http://www.w3.org/2000/svg" x="0px" y="0px"
     viewBox="0 0 68.03 68.03" width="24" height="24" style="enable-background:new 0 0 68.03 68.03;"
     xml:space="preserve">
<style type="text/css">
    .st0{fill:#FFFFFF;}
    .st1{fill:#FFFFFF;}
    .st2{fill:#000000;}
    .st3{fill:#000000;}
    .st4{fill:#000000;}
</style>
    <path class="st0" d="M67.99,41.38c0,6.31,0.07,12.61-0.02,18.92c-0.08,5.4-2.24,7.65-7.57,7.69c-12.46,0.09-24.91,0.09-37.37,0
	c-5.33-0.04-7.49-2.31-7.5-7.69c-0.04-17.53-0.04-35.07,0-52.6c0.01-5.35,2.19-7.57,7.55-7.63c7.53-0.09,15.07,0.03,22.61-0.06
	C48-0.02,49.8,0.66,51.42,2.33c4.61,4.74,9.27,9.44,14.04,14.01c1.95,1.87,2.62,3.94,2.57,6.58C67.91,29.07,67.99,35.23,67.99,41.38
	z M41.82,40.28c0-0.01,0-0.01,0-0.02c3.37,0,6.75,0.09,10.12-0.03c2.02-0.08,3.62-0.98,3.46-3.38c-0.14-2.12-1.59-2.82-3.48-2.83
	c-6.75-0.02-13.49,0.02-20.24-0.02c-2.2-0.01-3.71,0.99-3.73,3.12c-0.02,2.21,1.69,3.12,3.76,3.14
	C35.07,40.31,38.44,40.28,41.82,40.28z M38.49,52.51c0,0.01,0,0.01,0,0.02c2.46,0,4.92,0,7.39,0c2,0,3.32-1.04,3.44-2.96
	c0.13-2-1.26-3.18-3.16-3.22c-5.07-0.11-10.15-0.1-15.23,0.02c-1.71,0.04-2.99,1.2-3,2.93c-0.01,1.89,1.13,3.16,3.18,3.21
	C33.56,52.55,36.02,52.51,38.49,52.51z M59.49,21.81c-4.24-4.23-9.07-9.04-13.27-13.22c0,2,0.02,5.35-0.01,8.71
	c-0.03,3.02,1.4,4.53,4.44,4.51C54.01,21.8,57.37,21.81,59.49,21.81z"/>
    <path class="st1" d="M9.5,67.8c-7.16,0.77-9.48-1.24-9.49-9.22C0,42.25,0,25.92,0.01,9.59c0-8.07,2.14-9.98,9.91-9.32
	C8.75,22.77,9.34,45.23,9.5,67.8z"/>
    <path class="st2" d="M41.82,40.28c-3.37,0-6.75,0.03-10.12-0.01c-2.07-0.03-3.78-0.93-3.76-3.14c0.02-2.13,1.54-3.13,3.73-3.12
	c6.75,0.04,13.49,0.01,20.24,0.02c1.9,0,3.34,0.71,3.48,2.83c0.16,2.4-1.43,3.3-3.46,3.38c-3.37,0.13-6.74,0.03-10.12,0.03
	C41.82,40.27,41.82,40.27,41.82,40.28z"/>
    <path class="st3" d="M38.49,52.51c-2.46,0-4.93,0.04-7.39-0.01c-2.04-0.04-3.19-1.32-3.18-3.21c0.01-1.73,1.29-2.89,3-2.93
	c5.07-0.11,10.15-0.13,15.23-0.02c1.9,0.04,3.29,1.23,3.16,3.22c-0.12,1.92-1.44,2.96-3.44,2.96c-2.46,0-4.92,0-7.39,0
	C38.49,52.52,38.49,52.51,38.49,52.51z"/>
    <path class="st4" d="M59.49,21.81c-2.12,0-5.48-0.01-8.83,0c-3.04,0.02-4.47-1.49-4.44-4.51c0.03-3.35,0.01-6.71,0.01-8.71
	C50.42,12.77,55.25,17.58,59.49,21.81z"/>
</svg>
